<?xml version="1.0" encoding="iso-8859-1"?>
<!-- Generator: Adobe Illustrator 19.0.0, SVG Export Plug-In . SVG Version: 6.00 Build 0)  -->
<svg xmlns="http://www.w3.org/2000/svg" xmlns:xlink="http://www.w3.org/1999/xlink" version="1.1" id="Layer_1" x="0px" y="0px" viewBox="0 0 490.545 490.545" style="enable-background:new 0 0 490.545 490.545;" xml:space="preserve" width="512" height="512">
<g>
	<circle style="fill:#998269;" cx="244.534" cy="247.191" r="214.868"/>
	<circle style="fill:#AA947D;" cx="244.534" cy="247.191" r="166.178"/>
	<path style="fill:#564A3D;" d="M242.314,0c-18.101,0-33.506,13.075-50.439,16.932c-12.332,2.808-29.228-2.403-40.742,2.253   c-11.022,4.457-21.631,9.721-31.754,15.72c-9.623,5.703-13.875,21.054-22.556,28.022c-11.434,9.177-29.642,10.951-39.187,22.068   c-8.319,9.689-15.865,20.06-22.544,31.018c-8.327,13.661-7.658,36.68-13.103,51.98c-3.711,10.427-6.71,21.192-8.939,32.236   c-1.665,8.25-2.899,16.655-3.68,25.192c-0.655,7.169-0.99,14.431-0.99,21.772c0,14.657-10.205,33.031-7.649,46.949   c1.611,8.771,3.706,17.373,6.257,25.777c2.563,8.445,5.587,16.689,9.042,24.704c4.135,9.592,20.428,14.827,25.748,23.712   c3.729,6.228,7.736,12.269,12.006,18.107c4.846,6.627,10.029,12.992,15.524,19.07c6.467,7.153,12.359,23.72,19.648,30.037   c8.217,7.12,16.93,13.681,26.08,19.627c8.314,5.402,17.997,0.483,26.989,4.822c11.872,5.729,24.227,22.819,37.103,26.518   c11.354,3.262,20.503,2.365,32.488,3.9c9.918,1.27,22.653-7.071,32.916-7.071c15.75,0,33,9.444,47.887,6.503   c12.96-2.56,26.215-8.741,38.319-13.328c9.554-3.621,16.275-16.269,25.191-21.047c11.062-5.929,21.596-12.713,31.515-20.264   c8.193-6.237,24.292-6.53,31.596-13.764c9.276-9.188,17.794-19.139,25.452-29.752c5.482-7.598,2.197-22.002,6.761-30.241   c5.752-10.384,10.743-21.247,14.901-32.514c3.823-10.361,17.61-16.368,19.963-27.355c1.776-8.293,3.117-16.747,3.997-25.337   c0.82-8.007-9.429-20.829-9.429-29.053c0-14.11-1.237-27.931-3.61-41.36c-1.918-10.856,4.573-17.279,1.226-27.569   c-5.092-15.655-10.372-36.391-18.454-50.419c-4.665-8.097-20.35-14.269-25.912-21.724c-5.58-7.479-9.32-28.75-15.727-35.508   c-7.306-7.707-15.127-14.921-23.407-21.588c-10.81-8.704-24.675-2.342-36.928-9.058c-11.59-6.352-23.77-11.761-36.438-16.121   C310.954,20.235,297.92,6.305,286.83,4.19C272.414,1.439,257.532,0,242.314,0z M244.534,445.359   c-109.445,0-198.168-88.723-198.168-198.168S135.089,49.022,244.534,49.022s198.168,88.723,198.168,198.168   S353.979,445.359,244.534,445.359z"/>
	<circle style="fill:#B5A593;" cx="244.534" cy="247.191" r="129.497"/>
	<circle style="fill:#C2B5A5;" cx="244.534" cy="247.191" r="93.4"/>
	<circle style="fill:#AA947D;" cx="244.534" cy="247.191" r="57.019"/>
	<circle style="fill:#C2B5A5;" cx="244.534" cy="247.191" r="20.038"/>
	<path style="opacity:0.19;fill:#564A3D;" d="M480.747,247.191c0-14.11-1.237-27.931-3.61-41.36   c-1.918-10.856,4.573-17.279,1.226-27.569c-5.092-15.655-10.372-36.391-18.454-50.419c-4.665-8.097-20.35-14.269-25.912-21.724   c-4.555-6.106-7.885-21.4-12.44-30.489c9.152,26.993,14.117,55.918,14.117,86.003c0,147.839-119.847,267.686-267.686,267.686   c-33.006,0-64.61-5.989-93.803-16.914c4.713,7.964,9.382,18.418,14.833,23.142c8.217,7.12,16.93,13.681,26.08,19.627   c8.314,5.402,17.997,0.483,26.989,4.822c11.872,5.729,24.227,22.819,37.103,26.518c11.354,3.262,20.503,2.365,32.488,3.9   c9.918,1.27,22.653-7.071,32.916-7.071c15.75,0,33,9.444,47.887,6.503c12.96-2.56,26.215-8.741,38.319-13.328   c9.554-3.621,16.275-16.269,25.191-21.047c11.062-5.929,21.596-12.713,31.515-20.264c8.193-6.237,24.292-6.53,31.596-13.764   c9.276-9.188,17.794-19.139,25.452-29.752c5.482-7.598,2.197-22.002,6.761-30.241c5.752-10.384,10.743-21.247,14.901-32.514   c3.823-10.361,17.61-16.368,19.963-27.355c1.776-8.293,3.117-16.747,3.997-25.337C490.997,268.237,480.747,255.415,480.747,247.191   z"/>
</g>















</svg>
