<?xml version="1.0" encoding="iso-8859-1"?>
<!-- Generator: Adobe Illustrator 19.0.0, SVG Export Plug-In . SVG Version: 6.00 Build 0)  -->
<svg version="1.1" id="Capa_1" xmlns="http://www.w3.org/2000/svg" xmlns:xlink="http://www.w3.org/1999/xlink" x="0px" y="0px"
	 viewBox="0 0 512 512" style="enable-background:new 0 0 512 512;" xml:space="preserve">
<path style="fill:#93482B;" d="M411.095,152.336c-4.457-21.779-23.726-38.163-46.823-38.163c-6.41,0-4.434,0-10.841,0
	c-2.818-0.118-10.114-1.258-10.114-9.898V80.656H168.761v23.618c0,8.641-7.295,9.78-10.116,9.898h-10.839l0,0
	c-26.392,0-47.794,21.392-47.794,47.796c0.343,309.784-0.839,295.523,0.971,304.368c4.455,21.778,23.726,38.162,46.823,38.162
	c25.028,0,189.176,0,216.464,0c26.389,0,47.794-21.391,47.794-47.795V161.969C412.065,158.67,411.731,155.446,411.095,152.336z"/>
<g>
	<path style="fill:#7A3421;" d="M183.647,112.173c2.82-0.118,10.116-1.258,10.116-9.898V80.656h-25.002v23.618
		c0,5.156-2.6,7.631-5.294,8.822C170.561,111.69,174.699,112.342,183.647,112.173z"/>
	<path style="fill:#7A3421;" d="M125.985,469.337c-1.795-8.775-0.627,6.133-0.971-309.369c0-21.495,14.253-39.932,34.237-45.835
		c-0.901,0.076-0.068,0.018-11.445,0.039c-26.392,0-47.794,21.392-47.794,47.796v294.736c0,26.392,21.392,47.795,47.794,47.795
		h8.313C140.874,498.816,129.308,485.579,125.985,469.337z"/>
</g>
<path style="fill:#DDDDDD;" d="M369.854,409.009c0,8.033-6.512,14.547-14.546,14.547H156.103c-8.033,0-14.546-6.514-14.546-14.547
	V208.998c0-8.033,6.512-14.547,14.546-14.547h199.205c8.033,0,14.546,6.513,14.546,14.547L369.854,409.009L369.854,409.009z"/>
<path style="fill:#DADADA;" d="M166.559,409.009V208.998c0-8.033,6.512-14.547,14.546-14.547h-25.002
	c-8.033,0-14.546,6.513-14.546,14.547v200.011c0,8.033,6.512,14.547,14.546,14.547h25.002
	C173.071,423.556,166.559,417.042,166.559,409.009z"/>
<path style="fill:#DDDDDD;" d="M373.015,68.109c0,8.033-6.512,14.547-14.548,14.547H153.608c-8.033,0-14.546-6.513-14.546-14.547
	V22.046c0-8.032,6.512-14.546,14.546-14.546h204.86c8.035,0,14.548,6.513,14.548,14.546v46.063H373.015z"/>
<path style="fill:#DADADA;" d="M164.064,68.109V22.046c0-8.032,6.512-14.546,14.546-14.546h-25.002
	c-8.033,0-14.546,6.513-14.546,14.546V68.11c0,8.033,6.512,14.547,14.546,14.547h25.002
	C170.576,82.656,164.064,76.144,164.064,68.109z"/>
<path style="fill:#9AD14B;" d="M296.035,245.544c-20.457-16.098-44.961-16.202-67.873,4.881c-1.123,1.035-1.066,2.826,0.124,3.786
	c20.764,16.743,45.48,20.437,66.02,3.744C300.077,252.985,299.418,248.217,296.035,245.544z"/>
<path style="fill:#8DC133;" d="M293.594,243.724c-17.663,13.129-37.812,11.705-56.866-0.171c-2.882,1.987-5.739,4.273-8.566,6.872
	c-1.123,1.035-1.066,2.826,0.124,3.786c20.764,16.743,45.48,20.437,66.02,3.744c5.603-4.826,5.182-9.175,1.896-12.269
	C296.149,245.638,294.149,244.118,293.594,243.724z"/>
<path style="fill:#E83D3D;" d="M298.211,335.63c0.556-5.673-0.157-11.411-2.074-16.77l-0.041-0.03
	c-2.335-6.551-6.612-12.722-12.605-17.373l-0.006-0.017c-5.051-3.947-11.41-6.745-18.13-7.693l-0.027,0.006
	c-6.835-0.968-13.803-0.078-20.137,2.539l-0.058,0.086c-0.99,0.413-1.968,0.86-2.925,1.357l-0.027,0.004
	c-0.681,0.356-2.275,1.282-2.376,1.345l-0.123,0.025c-4.845,3.004-8.971,7.055-12.064,11.832l0.001,0.104
	c-4.016,6.264-6.044,13.281-6.115,20.464l-0.042,0.063c-0.03,5.689,1.2,11.339,3.605,16.507l0.059,0.06
	c0.853,1.825,1.858,3.589,3.005,5.278v0.038c3.854,5.651,9.243,10.25,15.472,13.179l0.001,0.001
	c0.1,0.012,23.661,11.876,43.275-7.351l0.012-0.025c4.92-4.843,8.444-10.918,10.212-17.54l-0.029-0.086
	c0.513-1.939,0.873-3.901,1.074-5.872L298.211,335.63z"/>
<path style="fill:#BC3535;" d="M270.606,353.634l-0.001-0.001c-6.285-2.955-11.645-7.567-15.472-13.179v-0.038
	c-1.146-1.689-2.152-3.453-3.005-5.278l-0.059-0.06c-2.405-5.168-3.636-10.817-3.605-16.507l0.042-0.063
	c0.071-7.155,2.085-14.178,6.115-20.464l-0.001-0.104c1.03-1.591,2.185-3.093,3.432-4.511c-4.413,0.214-8.771,1.172-12.862,2.862
	l-0.058,0.086c-0.99,0.413-1.968,0.86-2.925,1.357l-0.027,0.004c-0.681,0.356-2.275,1.282-2.376,1.345l-0.123,0.025
	c-4.845,3.004-8.971,7.055-12.064,11.832l0.001,0.104c-4.016,6.264-6.044,13.281-6.115,20.464l-0.042,0.063
	c-0.03,5.689,1.2,11.339,3.605,16.507l0.059,0.06c0.853,1.825,1.858,3.589,3.005,5.278v0.038c3.854,5.651,9.243,10.25,15.472,13.179
	l0.001,0.001c0.1,0.012,23.661,11.876,43.275-7.351l0.012-0.025c0.662-0.651,1.293-1.329,1.904-2.022
	C278.317,357.739,271.1,353.776,270.606,353.634z"/>
<path d="M419.532,161.969c0-30.762-25.122-55.296-55.296-55.296h-10.664c-2.788-0.147-2.788-1.095-2.788-2.397V90.156h7.65
	c12.157,0,22.048-9.891,22.048-22.047V22.046C380.483,9.891,370.591,0,358.434,0h-40.905c-4.143,0-7.5,3.357-7.5,7.5
	s3.357,7.5,7.5,7.5h40.905c3.886,0,7.047,3.16,7.047,7.045V68.11c0,3.885-3.161,7.046-7.047,7.046c-18.542,0-196.259,0-204.86,0
	c-3.885,0-7.045-3.161-7.045-7.046V22.046c0-3.885,3.16-7.045,7.045-7.045h128.952c4.143,0,7.5-3.357,7.5-7.5s-3.357-7.5-7.5-7.5
	H153.574c-12.156,0-22.046,9.891-22.046,22.046V68.11c0,12.157,9.891,22.047,22.046,22.047h7.652v14.118c0,1.303,0,2.25-2.79,2.397
	h-10.664c-30.132,0-55.294,24.489-55.294,55.296c0.387,309.645-0.932,295.831,1.123,305.872c5.234,25.589,28.017,44.16,54.171,44.16
	h216.464c26.152,0,48.935-18.571,54.171-44.159C420.44,457.911,419.143,472.548,419.532,161.969z M403.712,464.833
	c-3.814,18.638-20.417,32.166-39.477,32.166H147.774c-21.846,0-40.293-17.719-40.293-40.294V161.969
	c0-22.56,18.433-40.295,40.293-40.295c11.741-0.002,10.922,0.004,11.153-0.007c10.349-0.434,17.302-7.422,17.302-17.392V90.156
	h159.555v14.118c0,10.591,7.945,17.398,17.614,17.398h10.841c21.848,0,40.293,17.724,40.293,40.295
	C404.246,472.34,405.259,457.273,403.712,464.833z"/>
<path d="M299.111,263.687c9.77-8.411,8.266-18.693,1.621-23.964c-21.66-17.104-48.782-18.815-73.823,1.827
	c-4.878-5.615-10.073-10.595-15.419-14.679c-3.292-2.514-7.998-1.884-10.515,1.406c-2.515,3.292-1.885,7.999,1.406,10.515
	c15.104,11.54,28.904,31.42,36.379,52.243c-16.513,8.488-25.791,26.13-24.708,43.527c0.256,4.134,3.804,7.274,7.95,7.021
	c4.134-0.257,7.277-3.815,7.021-7.951c-1.458-23.779,24.218-41.104,46.516-28.55c4.789,2.815,8.848,6.914,11.607,12.031
	c0.001,0.001,0.047,0.087,0.047,0.088c0.16,0.526,4.532,7.279,3.487,17.769c-2.301,22.507-27.1,35.105-47.01,23.159l-0.292-0.189
	c-3.473-2.257-8.118-1.271-10.376,2.203s-1.271,8.118,2.203,10.376c28.365,18.391,67.165,0.061,70.462-34.186
	c2.889-29.498-22.742-54.46-52.627-49.955c-1.565-4.402-3.391-8.772-5.436-13.057C267.237,279.759,285.693,275.153,299.111,263.687z
	 M237.835,252.009c18.004-14.062,36.454-13.593,52.869-1.081c-0.261,0.326-0.669,0.771-1.305,1.323
	C269.143,268.635,248.197,258.933,237.835,252.009z"/>
<path d="M355.608,187.283H156.402c-12.156,0-22.046,9.891-22.046,22.047v200.011c0,12.157,9.891,22.047,22.046,22.047h199.205
	c12.156,0,22.046-9.891,22.046-22.047V265.063c0-4.143-3.357-7.5-7.5-7.5s-7.5,3.357-7.5,7.5v144.28c0,3.885-3.16,7.046-7.045,7.046
	H156.402c-3.885,0-7.045-3.161-7.045-7.046V209.331c0-3.885,3.16-7.046,7.045-7.046h199.205c3.885,0,7.045,3.161,7.045,7.046v20.73
	c0,4.143,3.357,7.5,7.5,7.5s7.5-3.357,7.5-7.5v-20.73C377.655,197.174,367.764,187.283,355.608,187.283z"/>
<g>
</g>
<g>
</g>
<g>
</g>
<g>
</g>
<g>
</g>
<g>
</g>
<g>
</g>
<g>
</g>
<g>
</g>
<g>
</g>
<g>
</g>
<g>
</g>
<g>
</g>
<g>
</g>
<g>
</g>
</svg>
