<svg id="Capa_1" enable-background="new 0 0 511.639 511.639" height="512" viewBox="0 0 511.639 511.639" width="512" xmlns="http://www.w3.org/2000/svg"><g><g><g><path d="m278.125 204.099h-44.611v-68.13c0-3.107 2.519-5.625 5.625-5.625h33.361c3.107 0 5.625 2.519 5.625 5.625z" fill="#e2dee2"/></g><g><path d="m278.123 137.307v66.793h-23.134v-66.793c0-3.841-3.11-6.964-6.964-6.964h23.134c3.842.001 6.964 3.123 6.964 6.964z" fill="#cbc4cc"/></g></g><g><g><path d="m65.885 463.37 11.542 33.387c1.527 4.418 5.688 7.382 10.362 7.382h336.061c4.675 0 8.835-2.964 10.362-7.382l11.542-33.387z" fill="#d8ecfe"/></g><g><path d="m34.707 437.147 6.513 18.841c1.527 4.418 5.688 7.382 10.362 7.382h408.473c4.675 0 8.835-2.964 10.362-7.382l6.513-18.841c2.462-7.121-2.828-14.546-10.362-14.546h-421.498c-7.535 0-12.824 7.425-10.363 14.546z" fill="#b3dafe"/></g><g><path d="m445.749 463.372-11.54 33.38c-1.52 4.42-5.69 7.39-10.36 7.39h-22.5c4.67 0 8.84-2.97 10.36-7.39l11.54-33.38z" fill="#c4e2ff"/></g><g><path d="m476.929 437.152-6.51 18.84c-1.53 4.41-5.69 7.38-10.36 7.38h-18.48c2.27 0 4.28-1.44 5.02-3.58l10.42-30.14c1.2-3.45-1.37-7.05-5.02-7.05h14.57c7.53 0 12.82 7.42 10.36 14.55z" fill="#8ac9fe"/></g></g><g><g><path d="m75.855 265.71h359.929v156.891h-359.929z" fill="#ac5e2e"/></g><g><path d="m414.776 265.71h21.008v156.891h-21.008z" fill="#9e5528"/></g><g><path d="m75.855 318.505h359.929v51.302h-359.929z" fill="#fece85"/></g><g><path d="m414.709 318.505h21.075v51.302h-21.075z" fill="#fec165"/></g><g><g><path d="m395.473 192.804c-12.101-.014-22.955 5.301-30.358 13.725-2.417 2.75-6.688 2.857-9.096.099-7.396-8.47-18.268-13.824-30.397-13.824s-23.001 5.354-30.397 13.824c-2.373 2.718-6.635 2.718-9.009 0-7.396-8.47-18.269-13.824-30.397-13.824-12.129 0-23.001 5.354-30.397 13.824-2.373 2.718-6.635 2.718-9.009 0-7.396-8.47-18.269-13.824-30.397-13.824s-23.001 5.354-30.397 13.824c-2.408 2.758-6.679 2.652-9.096-.099-7.404-8.424-18.258-13.739-30.359-13.725-22.385.026-40.31 18.672-40.31 41.057v32.199h221.574c5.383 0 9.747 4.364 9.747 9.747v44.031c0 11.044 8.953 19.997 19.997 19.997 11.044 0 19.997-8.953 19.997-19.997v-44.031c0-5.383 4.364-9.747 9.747-9.747h78.868v-32.199c0-22.386-17.925-41.031-40.311-41.057z" fill="#fe3d97"/></g><g><path d="m435.779 233.862v32.2h-21.12v-32.2c0-18.77-12.59-34.9-29.85-39.64 3.39-.93 6.97-1.42 10.66-1.42 22.39.03 40.31 18.67 40.31 41.06z" fill="#e41e7f"/></g></g></g><g><g><path d="m254.12 8.744c-3.074 9.811-11.058 27.641-29.673 34.601-1.52.568-1.52 2.755 0 3.324 18.615 6.96 26.599 24.79 29.673 34.601.52 1.659 2.879 1.659 3.398 0 3.074-9.811 11.058-27.641 29.673-34.601 1.52-.568 1.52-2.755 0-3.324-18.615-6.96-26.599-24.79-29.673-34.601-.519-1.659-2.878-1.659-3.398 0z" fill="#fdb441"/></g><g><path d="m287.191 46.669c-18.615 6.958-26.597 24.787-29.669 34.6-.522 1.661-2.882 1.661-3.404 0-1.37-4.374-3.71-10.322-7.528-16.208 3.438-7.324 2.962-14.533 13.291-18.392 1.519-.57 1.519-2.753 0-3.323-10.328-3.866-9.853-11.074-13.291-18.398 3.818-5.88 6.158-11.834 7.528-16.201.522-1.661 2.882-1.661 3.404 0 3.072 9.806 11.054 27.635 29.669 34.6 1.519.569 1.519 2.753 0 3.322z" fill="#fea613"/></g><g><path d="m481.607 422.852c-3.458-4.854-9.08-7.751-15.039-7.751h-23.285v-149.031c0-.003 0-32.209 0-32.209 0-26.744-21.444-48.526-47.802-48.557-.02 0-.037 0-.056 0-13.237 0-25.868 5.493-34.902 15.126-9.035-9.634-21.658-15.126-34.901-15.126-13.244 0-25.867 5.492-34.902 15.126-1.591-1.697-3.298-3.257-5.096-4.689v-59.772c0-7.237-5.888-13.125-13.125-13.125h-9.18v-9.661c0-4.142-3.358-7.5-7.5-7.5s-7.5 3.358-7.5 7.5v9.661h-9.18c-7.237 0-13.125 5.888-13.125 13.125v59.772c-1.797 1.432-3.505 2.993-5.096 4.689-9.035-9.634-21.658-15.126-34.902-15.126-13.243 0-25.866 5.492-34.901 15.126-9.035-9.634-21.665-15.126-34.902-15.126-.019 0-.038 0-.056 0-26.358.031-47.802 21.813-47.802 48.557v181.24h-23.285c-5.959 0-11.581 2.898-15.039 7.751s-4.359 11.114-2.412 16.745l6.513 18.841c2.57 7.436 9.583 12.431 17.451 12.431h8.959l9.796 28.338c2.571 7.436 9.583 12.431 17.451 12.431h150.53c4.142 0 7.5-3.358 7.5-7.5s-3.358-7.5-7.5-7.5h-150.53c-1.476 0-2.792-.938-3.274-2.333l-8.102-23.437h358.813l-8.102 23.438c-.482 1.395-1.798 2.332-3.274 2.332h-150.53c-4.142 0-7.5 3.358-7.5 7.5s3.358 7.5 7.5 7.5h150.53c7.868 0 14.881-4.996 17.451-12.431l9.796-28.338h8.959c7.867 0 14.88-4.996 17.451-12.431l6.513-18.841c1.947-5.631 1.045-11.891-2.413-16.745zm-240.593-285.009h29.611v49.819c-4.733-1.542-9.722-2.358-14.806-2.358s-10.073.816-14.806 2.358v-49.819zm-157.66 96.018c0-18.482 14.723-33.536 32.819-33.557h.039c9.441 0 18.435 4.072 24.678 11.176 2.606 2.965 6.351 4.665 10.278 4.665h.022c3.867-.006 7.541-1.677 10.078-4.584 6.247-7.154 15.267-11.257 24.747-11.257 9.481 0 18.501 4.103 24.748 11.257 2.556 2.927 6.257 4.605 10.154 4.605s7.598-1.679 10.154-4.606c6.247-7.154 15.267-11.257 24.748-11.257s18.501 4.103 24.748 11.257c2.556 2.927 6.257 4.605 10.154 4.605s7.598-1.679 10.154-4.605c6.247-7.154 15.267-11.257 24.748-11.257 9.48 0 18.5 4.103 24.747 11.256 2.538 2.907 6.212 4.578 10.079 4.584h.022c3.927 0 7.672-1.699 10.278-4.665 6.244-7.104 15.236-11.176 24.678-11.176h.039c18.097.021 32.819 15.074 32.819 33.557v24.35l-71.368.35c-9.51 0-17.247 7.737-17.247 17.247v44.031c0 6.891-5.606 12.497-12.497 12.497s-12.497-5.606-12.497-12.497v-44.031c0-9.51-7.737-17.247-17.246-17.247l-214.075-.35v-24.348zm344.93 39.699v37.444h-73.614v-35.198c0-1.239 1.008-2.247 2.247-2.247h71.367zm-344.93 52.444h67.131c4.142 0 7.5-3.358 7.5-7.5s-3.358-7.5-7.5-7.5h-67.131v-37.444h214.075c1.238 0 2.246 1.008 2.246 2.247v35.198h-114.689c-4.142 0-7.5 3.358-7.5 7.5s3.358 7.5 7.5 7.5h115.395c2.808 12.201 13.75 21.331 26.792 21.331 13.041 0 23.983-9.129 26.791-21.331h74.32v36.302h-344.93zm0 51.302h344.929v37.794h-344.929zm386.489 57.391-6.513 18.84c-.482 1.395-1.798 2.333-3.274 2.333h-408.473c-1.476 0-2.792-.938-3.274-2.332l-6.513-18.841c-.507-1.468.065-2.598.453-3.141.387-.543 1.268-1.455 2.821-1.455h421.499c1.553 0 2.435.911 2.821 1.455.387.542.96 1.673.453 3.141z"/><path d="m221.821 53.694c15.572 5.823 22.437 21.182 25.143 29.819 1.218 3.889 4.777 6.502 8.856 6.502s7.638-2.613 8.856-6.502c2.706-8.637 9.571-23.996 25.143-29.818 3.653-1.366 6.013-4.775 6.013-8.687 0-3.911-2.36-7.321-6.014-8.687-15.572-5.822-22.437-21.181-25.143-29.819-1.218-3.89-4.778-6.502-8.856-6.502s-7.637 2.612-8.856 6.501v.001c-2.706 8.637-9.571 23.996-25.143 29.818-3.653 1.366-6.013 4.775-6.013 8.687 0 3.911 2.36 7.321 6.014 8.687zm39.456-42.708c0 .002 0 .003-.001.004 0-.001.001-.002.001-.004zm-5.458 13.072c3.912 7.328 9.745 15.156 18.328 20.95-8.583 5.794-14.416 13.622-18.328 20.95-3.912-7.328-9.745-15.156-18.328-20.95 8.584-5.795 14.416-13.623 18.328-20.95z"/></g></g></g></svg>