<?xml version="1.0" encoding="iso-8859-1"?>
<!-- Generator: Adobe Illustrator 21.0.0, SVG Export Plug-In . SVG Version: 6.00 Build 0)  -->
<svg xmlns="http://www.w3.org/2000/svg" xmlns:xlink="http://www.w3.org/1999/xlink" version="1.1" id="Capa_1" x="0px" y="0px" viewBox="0 0 512 512" style="enable-background:new 0 0 512 512;" xml:space="preserve" width="512" height="512">
<g>
	<path style="fill:#FF2C5C;" d="M272.997,166.33v54c0,15.464-12.536,28-28,28h-42v-30h38c1.105,0,2-0.895,2-2v-46   c0-1.105-0.895-2-2-2h-38v-30h42C260.467,138.33,272.997,150.87,272.997,166.33z"/>
	<path style="fill:#E62753;" d="M244.997,138.33h-30c15.47,0,28,12.54,28,28v4v46v4c0,15.464-12.536,28-28,28h30   c15.464,0,28-12.536,28-28v-54C272.997,150.87,260.467,138.33,244.997,138.33z"/>
	<path style="fill:#FF2C5C;" d="M191,320H41.002c-6.628,0-12.001-5.373-12.001-12.001V104h174v203.999   C203.001,314.627,197.628,320,191,320z"/>
	<path style="fill:#E62753;" d="M173.001,104v203.999c0,6.628-5.373,12.001-12.001,12.001h30c6.628,0,12.001-5.373,12.001-12.001   V104H173.001z"/>
	<rect x="45.001" y="320" style="fill:#E62753;" width="142" height="30"/>
	<path style="fill:#F0AC7A;" d="M192.005,258.478c0,0-49.858,31.636-52.863,60.417c-3.005,28.781,41.595,53.331,97.374,35.203   C252.808,348.803,207.447,288.826,192.005,258.478z"/>
	<path style="fill:#EB9F67;" d="M179.059,267.676c-6.638,10.084-11.627,20.912-12.535,31.44   c-2.607,30.236,28.948,56.792,73.045,52.048c4.861-13.526-33.594-65.23-47.564-92.687   C192.005,258.478,186.509,261.966,179.059,267.676z"/>
	<path style="fill:#F0AC7A;" d="M251.487,216.179c0,0-45.352,8.963-73.092,37.815c-2.07,2.153-2.704,5.31-1.572,8.077   c6.655,16.265,31.327,73.128,59.694,95.746c0,0,20.516,12.168,40.304-5.001C280.004,350.054,264.561,293.207,251.487,216.179z"/>
	<path style="fill:#EB9F67;" d="M276.82,352.816c3.184-2.762-12.26-59.609-25.333-136.637c0,0-13.849,2.739-30.921,10.056   c-2.427,2.069-4.773,4.26-7.005,6.581c-2.07,2.153-2.205,5.155-1.572,8.077c4.3,19.84,39.885,121.905,57.815,116.841   C272.13,356.455,274.48,354.847,276.82,352.816z"/>
	<path style="fill:#F0AC7A;" d="M433.996,258.478c0,0,49.858,31.636,52.863,60.417c3.005,28.781-42.709,53.331-98.487,35.203   C372.08,348.803,418.554,288.826,433.996,258.478z"/>
	<path style="fill:#EB9F67;" d="M486.859,318.894c-3.005-28.781-52.863-60.417-52.863-60.417c-2.364,4.647-5.458,9.991-8.941,15.724   c14.008,11.837,30.135,28.704,31.804,44.693c1.974,18.913-17.089,35.997-46.22,40.346   C455.764,365.411,489.452,343.731,486.859,318.894z"/>
	<path style="fill:#F0AC7A;" d="M374.514,216.179c0,0,45.352,8.963,73.092,37.815c2.07,2.153,2.704,5.31,1.572,8.077   c-6.655,16.265-31.327,73.128-59.694,95.746c0,0-20.516,12.168-40.304-5.001C345.997,350.054,361.441,293.207,374.514,216.179z"/>
	<path style="fill:#EB9F67;" d="M447.607,253.994c-27.741-28.853-73.092-37.815-73.092-37.815c-0.516,3.039-1.035,6.042-1.557,9.016   c14.365,5.902,31.488,15.111,44.65,28.799c2.07,2.153,2.704,5.31,1.572,8.077c-6.654,16.265-31.327,73.128-59.694,95.746   c0,0-0.561,0.33-1.57,0.801c16.659,8.028,31.57-0.801,31.57-0.801c28.367-22.618,53.039-79.481,59.694-95.746   C450.311,259.304,449.677,256.148,447.607,253.994z"/>
	<path style="fill:#F0AC7A;" d="M313.001,195c-35.652,0.071-58.039,8.419-67.213,12.719c-2.887,1.353-4.603,4.372-4.279,7.549   c2.403,23.566,13.201,122.052,26.833,133.19c15.499,12.663,73.82,12.663,89.319,0c13.632-11.138,24.429-109.624,26.833-133.19   c0.324-3.176-1.391-6.195-4.279-7.549C371.04,203.419,348.652,195.071,313.001,195z"/>
	<path style="fill:#EB9F67;" d="M380.214,207.719c-9.174-4.3-31.562-12.648-67.213-12.719c-5.295,0.01-10.29,0.207-15,0.542   c27.003,1.922,44.402,8.515,52.213,12.176c2.887,1.353,4.603,4.372,4.279,7.549c-2.403,23.566-13.201,122.052-26.833,133.19   c-5.619,4.591-16.866,7.515-29.659,8.778c22.497,2.22,49.779-0.705,59.659-8.778c13.632-11.138,24.429-109.624,26.833-133.19   C384.816,212.091,383.101,209.072,380.214,207.719z"/>
	<path style="fill:#D5DFE8;" d="M457,408H55c-9.941,0-18-8.059-18-18v-10h438v10C475,399.941,466.941,408,457,408z"/>
	<path style="fill:#CAD2DB;" d="M489.5,380h-467c-8.284,0-15-6.716-15-15l0,0c0-8.284,6.716-15,15-15h467c8.284,0,15,6.716,15,15   l0,0C504.5,373.284,497.784,380,489.5,380z"/>
	<path style="fill:#BFC7D1;" d="M489.5,350h-30c8.284,0,15,6.716,15,15c0,8.284-6.716,15-15,15h30c8.284,0,15-6.716,15-15   C504.5,356.716,497.784,350,489.5,350z"/>
	<path d="M489.5,342.5h-2.058c5.347-7.354,7.783-15.719,6.877-24.389c-2.034-19.483-21.037-38.94-38.337-52.863   c0.046-0.113,0.098-0.237,0.142-0.346c2.236-5.482,1.021-11.803-3.107-16.11c-3.3-3.432-6.992-6.763-10.974-9.901   c-3.254-2.564-7.97-2.004-10.533,1.249c-2.563,3.253-2.005,7.969,1.248,10.533c3.444,2.714,6.622,5.579,9.478,8.564   c-0.608,1.491-1.373,3.326-2.271,5.437c-6.846,16.023-24.64,54.857-45.293,77.827h-24.729c3.593-8.878,7.619-24.069,12.143-51.094   c3.805-22.731,6.736-46.7,8.529-62.853c4.815,1.662,10.407,3.819,16.273,6.538c1.021,0.474,2.094,0.698,3.149,0.698   c2.83,0,5.54-1.61,6.81-4.347c1.742-3.758,0.107-8.217-3.65-9.959c-7.882-3.654-15.308-6.375-21.233-8.295   c-0.463-5.25-3.672-9.971-8.567-12.257c-10.63-4.985-33.908-13.358-70.409-13.43c-12.253,0.024-23.01,0.987-32.306,2.442V166.33   c0-19.575-15.925-35.5-35.5-35.5H210.5V104c0-4.142-3.357-7.5-7.5-7.5H96.5c-4.143,0-7.5,3.358-7.5,7.5s3.357,7.5,7.5,7.5h99   v119.316c-7.931,4.956-15.704,10.896-22.525,17.986c-4.119,4.298-5.335,10.619-3.099,16.102c0.044,0.109,0.096,0.233,0.142,0.345   c-15.645,12.59-32.672,29.703-37.293,47.252H41c-2.481,0-4.5-2.019-4.5-4.5V111.5H64c4.143,0,7.5-3.358,7.5-7.5s-3.357-7.5-7.5-7.5   H29c-4.143,0-7.5,3.358-7.5,7.5v204c0,9.556,6.915,17.512,16,19.168V342.5h-15C10.094,342.5,0,352.593,0,365s10.094,22.5,22.5,22.5   h7v2.5c0,14.061,11.439,25.5,25.5,25.5h402c14.061,0,25.5-11.439,25.5-25.5v-2.5h7c12.406,0,22.5-10.093,22.5-22.5   S501.906,342.5,489.5,342.5z M449.798,279.58c17.812,14.949,28.476,29.299,29.603,40.089c0.869,8.324-4.111,16.563-13.709,22.831   h-51.634C428.997,322.754,441.616,297.718,449.798,279.58z M377.028,214.512l-0.348,3.339c-1.543,14.76-4.803,43.559-9.31,70.591   c-7.432,44.583-13.157,52.806-14.306,54.058h-80.129c-1.172-1.285-6.89-9.563-14.307-54.058   c-4.507-27.032-7.767-55.831-9.31-70.593l-0.06-0.581c-0.002-0.016-0.003-0.033-0.005-0.049l-0.28-2.708c0,0,0,0,0,0   c7.653-3.589,29.21-11.942,64.011-12.011C347.815,202.568,369.373,210.922,377.028,214.512z M210.68,145.83h34.5   c11.304,0,20.5,9.196,20.5,20.5v26.628c-5.88,1.466-10.874,3.069-15,4.605V170.33c0-5.238-4.262-9.5-9.5-9.5h-30.5V145.83z    M235.68,175.83v31.746c-0.538,1.03-0.956,2.12-1.243,3.254H210.5v-35H235.68z M206.437,241.701   c0.262-0.136,0.519-0.281,0.761-0.446c0.03-0.019,0.06-0.035,0.09-0.054c9.889-5.719,19.894-9.825,28.099-12.652   c1.793,16.154,4.724,40.125,8.529,62.857c4.524,27.026,8.549,42.217,12.142,51.094h-24.711   c-20.71-23.006-38.479-61.814-45.307-77.818c-0.902-2.119-1.667-3.954-2.246-5.491C190.54,252.179,198.43,246.411,206.437,241.701z    M176.199,279.583c8.169,18.125,20.782,43.153,35.751,62.917h-52.029c-9.026-6.034-13.883-13.984-13.383-22.085   c0.014-0.239,0.032-0.479,0.061-0.746C147.726,308.88,158.389,294.531,176.199,279.583z M52.5,327.5h79.51   c0.928,5.284,3.117,10.346,6.436,15H52.5V327.5z M489.5,372.5H96.125c-4.143,0-7.5,3.358-7.5,7.5s3.357,7.5,7.5,7.5H467.5v2.5   c0,5.79-4.71,10.5-10.5,10.5H55c-5.79,0-10.5-4.71-10.5-10.5v-2.5H64c4.143,0,7.5-3.358,7.5-7.5s-3.357-7.5-7.5-7.5H22.5   c-4.136,0-7.5-3.364-7.5-7.5s3.364-7.5,7.5-7.5h467c4.136,0,7.5,3.364,7.5,7.5S493.636,372.5,489.5,372.5z"/>
</g>















</svg>
