<?xml version="1.0" encoding="iso-8859-1"?>
<!-- Generator: Adobe Illustrator 19.0.0, SVG Export Plug-In . SVG Version: 6.00 Build 0)  -->
<svg version="1.1" id="Capa_1" xmlns="http://www.w3.org/2000/svg" xmlns:xlink="http://www.w3.org/1999/xlink" x="0px" y="0px"
	 viewBox="0 0 512 512" style="enable-background:new 0 0 512 512;" xml:space="preserve">
<path style="fill:#F6B245;" d="M366.013,105.813l-190.478,0.014c-35.602,0.221-65.739,18.623-75.775,43.837
	c1.702-0.096,3.413-0.164,5.142-0.175l184.786-0.012C299.858,124.208,330.224,105.817,366.013,105.813z"/>
<path style="fill:#B57A4E;" d="M298.057,149.53v-0.053H295.4C296.291,149.478,297.173,149.508,298.057,149.53z"/>
<path style="fill:#F39600;" d="M228.292,245.551c-8.425-10.092-12.876-21.789-12.876-33.855c0-34.307,35.873-62.215,79.968-62.219
	l-190.481,0.012C61.1,149.76,25.57,177.555,25.57,211.697c0,12.066,4.451,23.764,12.876,33.855v113.303
	c0,1.314,0.385,2.537,1.041,3.568h189.847c-0.656-1.031-1.041-2.254-1.041-3.568L228.292,245.551L228.292,245.551z"/>
<path style="fill:#FFCB00;" d="M504.5,401.184c0,2.75-2.25,5-5,5h-487c-2.75,0-5-2.25-5-5v-33.762c0-2.75,2.25-5,5-5h487
	c2.75,0,5,2.25,5,5V401.184z"/>
<path style="fill:#F8D5AB;" d="M375.367,211.696c0,12.066-4.451,23.766-12.876,33.855v16.469h70.633v-60.133
	C441.549,191.798,446,180.099,446,168.032c0-34.307-35.877-62.219-79.976-62.219c-35.88,0-66.314,18.479-76.414,43.845
	c1.912-0.107,3.835-0.181,5.781-0.181C339.49,149.478,375.367,177.388,375.367,211.696z"/>
<path style="opacity:0.1;enable-background:new    ;" d="M38.445,358.854c0,1.314,0.385,2.537,1.041,3.568h32.943
	c-0.655-1.031-1.041-2.254-1.041-3.568V245.551c-8.425-10.092-12.876-21.789-12.876-33.855c0-34.141,35.53-61.936,79.333-62.207
	h-32.943c-43.803,0.271-79.333,28.066-79.333,62.207c0,12.066,4.451,23.764,12.876,33.855V358.854z"/>
<path style="fill:#F8D5AB;" d="M468.299,355.393v-14.457c0-5.5-4.5-10-10-10h-95.808v27.918c0,1.314-0.385,2.537-1.041,3.568
	h103.941C467.185,360.613,468.299,358.128,468.299,355.393z"/>
<path style="fill:#F8C36E;" d="M470.399,296.477H362.491v34.459h107.908c5.5,0,10-4.5,10-10v-14.459
	C480.399,300.977,475.899,296.477,470.399,296.477z"/>
<path style="fill:#F8D5AB;" d="M452.499,262.021h-90.008v34.457h90.008c5.5,0,10-4.5,10-10v-14.457
	C462.499,266.521,457.999,262.021,452.499,262.021z"/>
<path style="fill:#FAE4C8;" d="M228.292,358.854c0,1.314,0.385,2.537,1.041,3.568h132.118c0.656-1.031,1.041-2.254,1.041-3.568
	V245.551c8.425-10.09,12.876-21.789,12.876-33.855c0-34.309-35.877-62.219-79.976-62.219s-79.976,27.91-79.976,62.219
	c0,12.066,4.451,23.764,12.876,33.855L228.292,358.854L228.292,358.854z"/>
<path style="opacity:0.1;enable-background:new    ;" d="M228.292,358.854c0,1.314,0.385,2.537,1.041,3.568h27.584
	c-0.656-1.031-1.041-2.254-1.041-3.568V245.551C247.451,235.46,243,223.763,243,211.696c0-30.648,28.638-56.172,66.184-61.273
	c-4.484-0.609-9.087-0.945-13.792-0.945c-44.099,0-79.976,27.91-79.976,62.219c0,12.066,4.451,23.764,12.876,33.855V358.854z"/>
<path style="fill:#FF6489;" d="M504.5,401.184c0,2.75-2.25,5-5,5h-487c-2.75,0-5-2.25-5-5v-33.762c0-2.75,2.25-5,5-5h487
	c2.75,0,5,2.25,5,5V401.184z"/>
<path d="M336.3,197.559c-1.97,0-3.91,0.8-5.3,2.2c-1.4,1.39-2.2,3.32-2.2,5.3c0,1.971,0.8,3.91,2.2,5.3c1.39,1.4,3.33,2.2,5.3,2.2
	s3.91-0.8,5.3-2.2c1.4-1.39,2.2-3.329,2.2-5.3c0-1.98-0.8-3.91-2.2-5.3C340.21,198.357,338.27,197.559,336.3,197.559z"/>
<path d="M308.6,220.549c0-1.98-0.8-3.91-2.2-5.3c-1.39-1.4-3.33-2.2-5.3-2.2s-3.91,0.8-5.3,2.2c-1.4,1.39-2.2,3.319-2.2,5.3
	c0,1.97,0.8,3.91,2.2,5.3c1.4,1.4,3.33,2.2,5.3,2.2s3.9-0.8,5.3-2.2C307.8,224.449,308.6,222.519,308.6,220.549z"/>
<path d="M333,244.029c-1.97,0-3.91,0.8-5.3,2.199c-1.4,1.391-2.2,3.32-2.2,5.301c0,1.97,0.8,3.909,2.2,5.3
	c1.39,1.399,3.33,2.2,5.3,2.2s3.9-0.801,5.3-2.2c1.4-1.391,2.2-3.33,2.2-5.3c0-1.971-0.8-3.91-2.2-5.301
	C336.9,244.829,334.97,244.029,333,244.029z"/>
<path d="M333,280.539c-1.97,0-3.91,0.8-5.3,2.2c-1.4,1.399-2.2,3.329-2.2,5.3c0,1.979,0.8,3.91,2.2,5.31
	c1.39,1.391,3.33,2.19,5.3,2.19s3.91-0.8,5.3-2.19c1.4-1.399,2.2-3.33,2.2-5.31c0-1.971-0.8-3.9-2.2-5.3
	C336.91,281.339,334.97,280.539,333,280.539z"/>
<path d="M333,317.059c-1.98,0-3.91,0.8-5.3,2.19c-1.4,1.399-2.2,3.33-2.2,5.31c0,1.971,0.8,3.9,2.2,5.3c1.39,1.4,3.33,2.2,5.3,2.2
	s3.9-0.8,5.3-2.2c1.4-1.399,2.2-3.329,2.2-5.3c0-1.979-0.8-3.91-2.2-5.31C336.91,317.858,334.97,317.059,333,317.059z"/>
<path d="M308.8,294.928c-1.97,0-3.91,0.8-5.3,2.19c-1.4,1.399-2.2,3.33-2.2,5.31c0,1.97,0.8,3.9,2.2,5.3c1.4,1.4,3.33,2.2,5.3,2.2
	s3.91-0.8,5.3-2.2c1.4-1.399,2.2-3.33,2.2-5.3c0-1.979-0.8-3.91-2.2-5.31C312.71,295.728,310.78,294.928,308.8,294.928z"/>
<path d="M499.5,354.923h-23.701v-13.986c0-1.114-0.116-2.201-0.316-3.259c7.177-2.184,12.416-8.86,12.416-16.741v-14.459
	c0-9.649-7.851-17.5-17.5-17.5h-0.6c0.118-0.818,0.2-1.649,0.2-2.5v-14.457c0-9.649-7.851-17.5-17.5-17.5h-11.875v-49.999
	c8.434-10.956,12.876-23.517,12.876-36.489c0-37.486-37.313-68.151-83.892-69.655c-0.304-0.038-3.569-0.063-3.569-0.063
	c-0.005,0-0.01,0-0.015,0c-0.003,0-0.007,0-0.01,0l-190.526,0.014c-22.847,0.142-44.394,7.244-60.672,19.998
	c-8.909,6.98-15.684,15.214-20.102,24.209c-19.025,1.865-36.686,8.606-50.53,19.454c-16.84,13.195-26.115,30.849-26.115,49.708
	c0,12.972,4.442,25.53,12.876,36.489v106.737H12.5c-6.893,0-12.5,5.608-12.5,12.5v33.762c0,6.893,5.607,12.5,12.5,12.5h487
	c6.893,0,12.5-5.607,12.5-12.5v-33.762C512,360.53,506.393,354.923,499.5,354.923z M452.499,269.52c1.355,0,2.5,1.144,2.5,2.5
	v14.457c0,1.356-1.145,2.5-2.5,2.5H437c-4.142,0-7.5,3.357-7.5,7.5s3.358,7.5,7.5,7.5h33.399c1.355,0,2.5,1.145,2.5,2.5v14.459
	c0,1.355-1.145,2.5-2.5,2.5H369.991v-19.459H386h19c4.142,0,7.5-3.357,7.5-7.5s-3.358-7.5-7.5-7.5h-19h-16.009V269.52
	L452.499,269.52L452.499,269.52z M460.799,340.936v13.986h-90.808v-16.486h88.308C459.654,338.436,460.799,339.581,460.799,340.936z
	 M366.024,113.314c39.963,0,72.476,24.547,72.476,54.719c0,10.281-3.85,20.326-11.133,29.049c-1.126,1.349-1.743,3.05-1.743,4.807
	v52.633h-55.633v-6.335c8.434-10.956,12.876-23.517,12.876-36.489c0-15.747-6.41-30.599-18.537-42.951
	c-2.902-2.957-7.65-3-10.606-0.098c-2.956,2.901-3,7.65-0.098,10.606c9.317,9.49,14.241,20.709,14.241,32.443
	c0,10.281-3.85,20.326-11.133,29.049c-1.126,1.349-1.743,3.05-1.743,4.807v109.371h-119.2V245.551c0-1.757-0.617-3.458-1.743-4.807
	c-7.283-8.725-11.133-18.77-11.133-29.049c0-30.172,32.513-54.719,72.476-54.719c11.762,0,23.453,2.201,33.809,6.366
	c3.842,1.547,8.211-0.315,9.757-4.159c1.545-3.844-0.317-8.212-4.16-9.757c-10.273-4.132-21.23-6.535-32.64-7.22
	C314.393,125.025,338.426,113.314,366.024,113.314z M175.535,113.327l136.355-0.011c-11.858,7.471-21.246,17.329-26.996,28.662
	l-172.394,0.01C124.715,125.081,148.398,113.495,175.535,113.327z M104.902,156.989l136.338-0.009
	c-20.284,12.779-33.325,32.556-33.325,54.716c0,12.972,4.441,25.53,12.876,36.489v106.737H45.945v-10.955h13.156
	c4.142,0,7.5-3.358,7.5-7.5c0-4.143-3.358-7.5-7.5-7.5H45.945V318.52h13.156c4.142,0,7.5-3.357,7.5-7.5s-3.358-7.5-7.5-7.5H45.945
	v-10.449h13.156c4.142,0,7.5-3.357,7.5-7.5s-3.358-7.5-7.5-7.5H45.945v-10.449h13.156c4.142,0,7.5-3.357,7.5-7.5s-3.358-7.5-7.5-7.5
	H45.945v-7.07c0-1.757-0.617-3.458-1.743-4.807c-7.283-8.725-11.133-18.77-11.133-29.049
	C33.069,181.775,65.314,157.234,104.902,156.989z M497,398.684H15v-7.139h46c4.142,0,7.5-3.357,7.5-7.5s-3.358-7.5-7.5-7.5H15
	v-6.623h482V398.684z"/>
<path d="M413.2,153.329c1.97,0,3.91-0.8,5.3-2.19c1.4-1.399,2.2-3.33,2.2-5.31c0-1.971-0.8-3.9-2.2-5.3c-1.39-1.4-3.33-2.2-5.3-2.2
	s-3.91,0.8-5.3,2.2c-1.4,1.39-2.2,3.329-2.2,5.3c0,1.98,0.8,3.91,2.2,5.31C409.29,152.529,411.23,153.329,413.2,153.329z"/>
<path d="M413.7,166.529c-1.4,1.39-2.2,3.319-2.2,5.3c0,1.98,0.8,3.91,2.2,5.31c1.39,1.391,3.33,2.19,5.3,2.19s3.91-0.8,5.3-2.19
	c1.4-1.399,2.2-3.33,2.2-5.31c0-1.971-0.8-3.9-2.2-5.3c-1.39-1.4-3.33-2.2-5.3-2.2S415.09,165.129,413.7,166.529z"/>
<path d="M406,209.329c1.98,0,3.91-0.8,5.3-2.2c1.4-1.39,2.2-3.32,2.2-5.3c0-1.971-0.8-3.9-2.2-5.3c-1.39-1.4-3.33-2.2-5.3-2.2
	c-1.98,0-3.91,0.8-5.3,2.2c-1.4,1.39-2.2,3.329-2.2,5.3c0,1.98,0.8,3.91,2.2,5.3C402.09,208.529,404.02,209.329,406,209.329z"/>
<path d="M389,167.719c1.98,0,3.91-0.809,5.3-2.2c1.4-1.399,2.2-3.33,2.2-5.309c0-1.97-0.8-3.9-2.2-5.3c-1.39-1.391-3.33-2.2-5.3-2.2
	s-3.91,0.809-5.3,2.2c-1.4,1.399-2.2,3.33-2.2,5.3c0,1.979,0.8,3.91,2.2,5.309C385.09,166.909,387.03,167.719,389,167.719z"/>
<g>
</g>
<g>
</g>
<g>
</g>
<g>
</g>
<g>
</g>
<g>
</g>
<g>
</g>
<g>
</g>
<g>
</g>
<g>
</g>
<g>
</g>
<g>
</g>
<g>
</g>
<g>
</g>
<g>
</g>
</svg>
