<?xml version="1.0" encoding="iso-8859-1"?>
<!-- Generator: Adobe Illustrator 19.0.0, SVG Export Plug-In . SVG Version: 6.00 Build 0)  -->
<svg version="1.1" id="Capa_1" xmlns="http://www.w3.org/2000/svg" xmlns:xlink="http://www.w3.org/1999/xlink" x="0px" y="0px"
	 viewBox="0 0 512 512" style="enable-background:new 0 0 512 512;" xml:space="preserve">
<rect x="66.839" y="386.525" style="fill:#EF2929;" width="378.318" height="38.282"/>
<rect x="415.8" y="386.525" style="fill:#D31A1A;" width="29.36" height="38.282"/>
<path style="fill:#FF9017;" d="M437.282,504.494H74.718c-15.575,0-28.201-12.626-28.201-28.201v-42.314
	c0-5.038,4.084-9.123,9.123-9.123h400.721c5.038,0,9.123,4.084,9.123,9.123v42.314C465.483,491.868,452.857,504.494,437.282,504.494
	z"/>
<path style="fill:#EF7D0A;" d="M465.486,433.981v42.316c0,15.573-12.631,28.194-28.204,28.194h-27.023
	c15.573,0,28.204-12.621,28.204-28.194v-42.316c0-5.044-4.083-9.128-9.128-9.128h27.023
	C461.402,424.854,465.486,428.937,465.486,433.981z"/>
<path style="fill:#B7623F;" d="M453.92,386.572H58.08c-14.355,0-25.993-11.637-25.993-25.993v-19.911
	c0-14.355,11.637-25.993,25.993-25.993h395.84c14.355,0,25.993,11.637,25.993,25.993v19.911
	C479.913,374.936,468.275,386.572,453.92,386.572z"/>
<path style="fill:#A55235;" d="M479.908,340.673v19.907c0,14.352-11.63,25.992-25.992,25.992h-27.113
	c14.352,0,25.992-11.64,25.992-25.992v-19.907c0-14.362-11.64-25.992-25.992-25.992h27.113
	C468.278,314.681,479.908,326.311,479.908,340.673z"/>
<path style="fill:#1BCF92;" d="M436.831,337.125l-16.872-11.4c-1.852-1.251-4.286-1.217-6.101,0.085l-20.678,14.826
	c-1.86,1.334-4.363,1.334-6.223,0l-20.587-14.762c-1.86-1.333-4.363-1.333-6.223,0l-20.589,14.762c-1.86,1.333-4.363,1.333-6.223,0
	l-20.589-14.761c-1.861-1.334-4.364-1.333-6.223,0l-20.584,14.761c-1.86,1.334-4.364,1.334-6.223,0l-20.587-14.761
	c-1.86-1.334-4.363-1.334-6.223,0l-20.588,14.761c-1.86,1.333-4.363,1.333-6.223,0l-20.591-14.762c-1.86-1.333-4.363-1.333-6.222,0
	l-20.592,14.762c-1.86,1.333-4.363,1.333-6.222,0l-20.592-14.762c-1.86-1.333-4.363-1.333-6.222,0l-20.593,14.763
	c-1.86,1.333-4.363,1.333-6.222,0l-20.687-14.828c-1.816-1.301-4.25-1.335-6.1-0.084l-16.875,11.402
	c-3.546,2.396-8.329-0.145-8.329-4.425V274h378.321v58.701C445.161,336.98,440.378,339.521,436.831,337.125z"/>
<path style="fill:#11BA7D;" d="M445.159,273.997v58.699c0,4.284-4.784,6.826-8.327,4.434l-16.874-11.41
	c-1.241-0.831-2.742-1.091-4.153-0.781v-50.943H445.159z"/>
<path d="M441.024,330.899l0.009,0.006C441.03,330.903,441.027,330.901,441.024,330.899z"/>
<path style="fill:#FF9017;" d="M446.644,221.597H65.356c-10.599,0-19.191-8.592-19.191-19.191l0,0
	c0-107.64,87.259-194.899,194.899-194.899h29.872c107.64,0,194.899,87.259,194.899,194.899l0,0
	C465.835,213.004,457.243,221.597,446.644,221.597z"/>
<path style="fill:#EF7D0A;" d="M257.252,7.502h13.684c107.64,0,194.904,87.264,194.904,194.904c0,5.3-2.152,10.098-5.622,13.566
	c-3.48,3.48-8.277,5.622-13.576,5.622h-16.32c0.17-3.84,0.341-7.68,0.511-11.52c0.461-10.384,0.189-20.696-1.046-31.033
	c-1.132-9.472-2.959-18.861-5.471-28.064c-2.465-9.034-5.588-17.888-9.334-26.47c-3.702-8.481-8.013-16.697-12.885-24.565
	c-4.84-7.817-10.234-15.29-16.125-22.348c-5.877-7.041-12.248-13.67-19.052-19.82c-6.813-6.158-14.059-11.837-21.668-16.979
	c-7.65-5.169-15.667-9.794-23.973-13.827c-8.391-4.073-17.076-7.54-25.967-10.363C282.801,12.637,269.933,10.57,257.252,7.502z"/>
<rect x="66.839" y="221.597" style="fill:#EF2929;" width="378.318" height="38.282"/>
<rect x="415.8" y="221.597" style="fill:#D31A1A;" width="29.36" height="38.282"/>
<path style="fill:#FCC927;" d="M66.839,259.445v42.591c0,14.227,11.533,25.76,25.76,25.76l0,0c14.227,0,25.76-11.533,25.76-25.76
	v-4.143c0-2.949,2.391-5.34,5.339-5.34h152.86c2.949,0,5.339,2.391,5.339,5.34v42.452c0,14.894,12.073,26.967,26.967,26.967l0,0
	c14.894,0,26.967-12.073,26.967-26.967v-42.452c0-2.949,2.391-5.34,5.339-5.34h103.99v-33.111L66.839,259.445z"/>
<rect x="415.8" y="259.438" style="fill:#EFAD0A;" width="29.36" height="33.108"/>
<path d="M453.92,307.171h-1.253v-78.761c11.829-2.739,20.674-13.354,20.674-26.004C473.341,90.798,382.542,0,270.936,0h-29.872
	C178.406,0,120.289,28.327,81.615,77.717c-2.556,3.264-1.982,7.983,1.282,10.538c3.266,2.556,7.983,1.981,10.538-1.282
	c35.809-45.731,89.618-71.961,147.629-71.961h29.872c103.329,0,187.393,84.065,187.393,187.393c0,6.442-5.241,11.684-11.684,11.684
	h-1.483H66.839h-1.483c-6.443,0-11.684-5.241-11.684-11.685c0-26.819,5.544-52.71,16.477-76.955
	c1.704-3.779,0.022-8.224-3.757-9.928c-3.777-1.702-8.224-0.022-9.928,3.756c-11.814,26.198-17.805,54.166-17.805,83.127
	c0,12.649,8.845,23.265,20.674,26.003v78.761H58.08c-18.472,0-33.499,15.028-33.499,33.499v19.912
	c0,18.472,16.115,33.499,34.586,33.499v23.273h-3.529c-9.169,0-16.628,7.459-16.628,16.628v42.314
	C39.01,495.982,55.027,512,74.717,512H292.53c4.145,0,7.506-3.361,7.506-7.506s-3.361-7.506-7.506-7.506H74.718
	c-11.411,0-20.694-9.283-20.694-20.694v-42.314c0-0.891,0.725-1.615,1.615-1.615h400.722c0.891,0,1.615,0.725,1.615,1.615v42.314
	c0,11.411-9.283,20.694-20.694,20.694H339.32c-4.145,0-7.506,3.361-7.506,7.506S335.174,512,339.32,512h97.962
	c19.689,0,35.707-16.017,35.707-35.707v-42.314c0-9.169-7.459-16.628-16.628-16.628h-3.735l-0.127-23.272
	c18.472,0,34.92-15.028,34.92-33.499v-19.912C487.419,322.197,472.392,307.171,453.92,307.171z M74.346,229.103h363.309v22.833
	L74.346,251.94C74.346,251.94,74.346,229.103,74.346,229.103z M74.346,284.9v-17.513h363.309v17.004v0.656h-96.483
	c-7.084,0-12.846,5.763-12.846,12.846v42.452c0,10.73-8.73,19.46-19.46,19.46s-19.46-8.73-19.46-19.46v-42.452
	c0-7.084-5.763-12.846-12.846-12.846h-152.86c-7.084,0-12.846,5.763-12.846,12.846v4.143c0,10.064-8.189,18.253-18.253,18.253
	s-18.253-8.189-18.253-18.253V284.9H74.346z M437.654,300.06v28.562l-13.493-9.117c-4.432-2.995-10.33-2.911-14.676,0.205
	l-19.416,13.922l-19.326-13.857c-4.478-3.209-10.493-3.21-14.971,0l-12.433,8.915v-28.629L437.654,300.06L437.654,300.06z
	 M274.392,300.06v27.525l-10.892-7.811c-4.477-3.21-10.493-3.211-14.971,0l-19.326,13.857l-19.329-13.858
	c-4.477-3.211-10.493-3.21-14.97,0l-19.33,13.858l-19.329-13.858c-4.477-3.211-10.493-3.21-14.97,0l-19.331,13.859l-8.236-5.903
	c7.419-6.106,12.158-15.356,12.158-25.692v-1.978L274.392,300.06L274.392,300.06z M74.346,417.309v-23.23h363.309v23.23H74.346z
	 M472.407,360.581c0,10.194-8.293,18.487-18.487,18.487h-7.967c-0.26-0.027-0.524-0.042-0.793-0.042H66.839
	c-0.268,0-0.531,0.015-0.793,0.042H58.08c-10.194,0-18.487-8.293-18.487-18.487v-19.912c0-10.194,8.293-18.487,18.487-18.487h1.253
	v10.519c0,4.763,2.613,9.111,6.82,11.345c4.207,2.234,9.272,1.966,13.218-0.701l11.952-8.075c0.424,0.016,4.854-0.117,6.584-0.396
	l16.552,11.864c2.238,1.605,4.861,2.407,7.484,2.407s5.246-0.803,7.484-2.407l19.331-13.859l19.329,13.858
	c4.477,3.211,10.493,3.21,14.97,0l19.33-13.858l19.329,13.858c4.476,3.21,10.493,3.211,14.971,0l19.326-13.857l18.931,13.574
	c2.893,16.103,16.997,28.364,33.92,28.364c16.526,0,30.368-11.692,33.702-27.236c0.466-0.252,0.924-0.53,1.363-0.845l19.327-13.857
	l19.326,13.857c4.478,3.211,10.494,3.211,14.971,0l19.453-13.948l15.622,10.555c3.946,2.667,9.012,2.935,13.219,0.701
	c4.207-2.235,6.82-6.582,6.82-11.345v-10.517h1.253c10.194,0,18.487,8.293,18.487,18.487v19.91H472.407z"/>
<circle cx="328.106" cy="69.729" r="8.507"/>
<circle cx="275.392" cy="87.604" r="8.507"/>
<circle cx="290.835" cy="49.966" r="8.507"/>
<circle cx="245.547" cy="41.455" r="8.507"/>
<circle cx="243.395" cy="78.236" r="8.507"/>
<circle cx="183.895" cy="79.097" r="8.507"/>
<circle cx="212.999" cy="49.966" r="8.507"/>
<g>
</g>
<g>
</g>
<g>
</g>
<g>
</g>
<g>
</g>
<g>
</g>
<g>
</g>
<g>
</g>
<g>
</g>
<g>
</g>
<g>
</g>
<g>
</g>
<g>
</g>
<g>
</g>
<g>
</g>
</svg>
