<?xml version="1.0" encoding="iso-8859-1"?>
<!-- Generator: Adobe Illustrator 19.0.0, SVG Export Plug-In . SVG Version: 6.00 Build 0)  -->
<svg version="1.1" id="Capa_1" xmlns="http://www.w3.org/2000/svg" xmlns:xlink="http://www.w3.org/1999/xlink" x="0px" y="0px"
	 viewBox="0 0 512 512" style="enable-background:new 0 0 512 512;" xml:space="preserve">
<rect x="36.597" y="59.269" style="fill:#76C2E0;" width="258.49" height="84.5"/>
<polygon style="fill:#CAEDFF;" points="324.18,432.96 7.5,432.96 7.5,201.099 35.901,125.887 295.46,125.887 323.85,201.099 
	323.861,205.544 323.907,241.495 "/>
<g>
	<path style="fill:#76C2E0;" d="M323.907,241.495c-1.978,2.751-4.207,5.366-6.674,7.8c-11.302,11.176-26.31,17.339-42.238,17.339
		c-10.415,0-20.227-2.672-28.788-7.345c-3.115,1.694-6.412,3.149-9.88,4.298c-6.06,2.012-12.438,3.047-18.942,3.047
		c-33.165,0-60.146-26.992-60.146-60.157c0-2.001,0.091-3.854,0.273-5.674c2.899-31.062,28.629-54.483,59.873-54.483
		c6.503,0,12.882,1.035,18.965,3.058c3.422,1.126,6.685,2.558,9.778,4.23c5.855-3.184,12.302-5.412,19.146-6.503
		c0.648-2.285,1.41-4.548,2.331-6.765c2.183-5.287,5.059-10.13,8.504-14.451h19.351l28.39,75.21l0.011,4.446L323.907,241.495z"/>
	<path style="fill:#76C2E0;" d="M324.18,432.96h-90.434c-0.546-2.797-0.83-5.696-0.83-8.652v-6.469
		c-39.817-15.94-74.335-43.955-98.45-81.305c-12.2-18.896-21.25-39.544-26.889-61.373c-4.389-17.089-6.617-34.768-6.617-52.562v-4.4
		c0-6.992,5.673-12.654,12.655-12.654h210.248L324.18,432.96z"/>
</g>
<path style="fill:#A24223;" d="M366.27,163.374c0,19.658-13.155,36.247-31.153,41.42c-3.798,1.103-7.8,1.683-11.95,1.683
	c-9.653,0-18.555-3.172-25.741-8.527c-10.528-7.856-17.35-20.42-17.35-34.575c0-5.833,1.16-11.404,3.275-16.486
	c6.469-15.622,21.864-26.605,39.816-26.605c17.862,0,33.177,10.858,39.714,26.321C365.065,151.754,366.27,157.428,366.27,163.374z"
	/>
<g>
	<path style="fill:#8B381E;" d="M335.117,204.794c-3.798,1.103-7.8,1.683-11.95,1.683c-9.653,0-18.555-3.172-25.741-8.527
		c-10.528-7.856-17.35-20.42-17.35-34.575c0-5.833,1.16-11.404,3.275-16.486c12.757,1.774,24.57,7.561,33.893,16.759
		C328.398,174.653,334.708,189.206,335.117,204.794z"/>
	<path style="fill:#8B381E;" d="M366.27,163.374c0,23.808-19.294,43.102-43.103,43.102c-9.653,0-18.555-3.172-25.741-8.527
		c4.15-29.14,29.266-51.63,59.543-51.63c2.001,0,3.968,0.102,5.912,0.284C365.065,151.754,366.27,157.428,366.27,163.374z"/>
</g>
<path style="fill:#A24223;" d="M260.487,206.476c0,19.056-12.37,35.235-29.527,40.919c-4.264,1.421-8.834,2.183-13.575,2.183
	c-23.797,0-43.091-19.306-43.091-43.102c0-1.353,0.057-2.695,0.193-4.014c2.012-21.921,20.454-39.089,42.898-39.089
	c4.741,0,9.312,0.762,13.575,2.183c15.94,5.276,27.742,19.613,29.334,36.906C260.43,203.782,260.487,205.124,260.487,206.476z"/>
<g>
	<path style="fill:#8B381E;" d="M260.487,206.476c0,19.056-12.37,35.235-29.527,40.919c-4.264,1.421-8.834,2.183-13.575,2.183
		c-23.797,0-43.091-19.306-43.091-43.102c0-1.353,0.057-2.695,0.193-4.014h85.807C260.43,203.782,260.487,205.124,260.487,206.476z"
		/>
	<path style="fill:#8B381E;" d="M260.487,206.476c0,19.056-12.37,35.235-29.527,40.919c-10.005-10.733-16.122-25.127-16.122-40.919
		s6.117-30.187,16.122-40.92C248.116,171.242,260.487,187.41,260.487,206.476z"/>
</g>
<path style="fill:#B96340;" d="M318.097,206.476c0,12.006-4.911,22.864-12.836,30.675c-7.777,7.686-18.476,12.427-30.266,12.427
	c-23.808,0-43.102-19.306-43.102-43.102c0-1.353,0.057-2.695,0.193-4.014c2.012-21.921,20.454-39.089,42.909-39.089
	c11.79,0,22.489,4.741,30.266,12.416c7.027,6.936,11.688,16.27,12.654,26.673C318.04,203.782,318.097,205.124,318.097,206.476z"/>
<g>
	<path style="fill:#A24223;" d="M318.097,206.476c0,12.006-4.911,22.864-12.836,30.675c-7.777,7.686-18.476,12.427-30.266,12.427
		c-23.808,0-43.102-19.306-43.102-43.102c0-1.353,0.057-2.695,0.193-4.014h85.83C318.04,203.782,318.097,205.124,318.097,206.476z"
		/>
	<path style="fill:#A24223;" d="M318.097,206.476c0,12.006-4.911,22.864-12.836,30.675c-5.366-8.982-8.436-19.476-8.436-30.675
		c0-11.211,3.081-21.705,8.436-30.687C313.185,183.612,318.097,194.469,318.097,206.476z"/>
</g>
<path style="fill:#B96340;" d="M400.072,206.476c0,23.797-19.294,43.102-43.102,43.102c-23.797,0-43.091-19.306-43.091-43.102
	c0-1.353,0.057-2.695,0.193-4.014c2.012-21.921,20.454-39.089,42.898-39.089c22.455,0,40.897,17.168,42.909,39.089
	C400.015,203.782,400.072,205.124,400.072,206.476z"/>
<path style="fill:#A24223;" d="M400.072,206.476c0,23.797-19.294,43.102-43.102,43.102c-23.797,0-43.091-19.306-43.091-43.102
	c0-1.353,0.057-2.695,0.193-4.014h85.807C400.015,203.782,400.072,205.124,400.072,206.476z"/>
<path style="fill:#FEC007;" d="M480.09,176.988l-16.797,16.797l-83.536,83.536l-22.787-22.787l100.332-100.332
	c3.142-3.142,7.268-4.713,11.394-4.713c4.109,0,8.252,1.571,11.394,4.713C486.374,160.502,486.374,170.687,480.09,176.988z"/>
<polygon style="fill:#FE9700;" points="463.293,193.785 379.758,277.32 356.971,254.533 417.719,193.785 "/>
<path style="fill:#E21717;" d="M356.765,452.729h-91.021c-8.711,0-15.773-7.062-15.773-15.773v-50.358h122.567v50.358
	C372.538,445.667,365.476,452.729,356.765,452.729z"/>
<path style="fill:#FB4239;" d="M504.5,222.597c0,16.676-2.106,32.851-6.077,48.302c-5.231,20.267-13.655,39.256-24.721,56.381
	c-34.388,53.291-94.308,88.559-162.445,88.559c-68.154,0-128.057-35.268-162.462-88.559c-11.066-17.125-19.473-36.114-24.703-56.381
	c-3.97-15.45-6.077-31.625-6.077-48.302L504.5,222.597L504.5,222.597z"/>
<path style="fill:#FEC007;" d="M498.423,270.897c-5.231,20.267-13.655,39.256-24.721,56.381H148.797
	c-11.066-17.125-19.473-36.114-24.703-56.381H498.423z"/>
<path d="M505.89,271.574c4.161-15.851,6.11-32.33,6.11-48.975c0-4.143-3.357-7.5-7.5-7.5h-51.912l32.806-32.806
	c9.207-9.208,9.207-24.189-0.008-33.404c-4.468-4.455-10.394-6.909-16.686-6.909c-6.312,0-12.243,2.456-16.704,6.916l-45.821,45.821
	c-4.024-16.832-16.475-30.417-32.632-36.035c-2.379-25.705-24.058-45.902-50.374-45.902c-7.154,0-14.163,1.526-20.59,4.39V94.221
	c3.662-0.496,6.486-3.626,6.486-7.424s-2.825-6.928-6.486-7.424V59.269c0-4.143-3.357-7.5-7.5-7.5h-30.25
	c-4.143,0-7.5,3.357-7.5,7.5s3.357,7.5,7.5,7.5h22.75v12.53H44.1v-12.53h191.74c4.143,0,7.5-3.357,7.5-7.5s-3.357-7.5-7.5-7.5H36.6
	c-4.143,0-7.5,3.357-7.5,7.5v20.106c-3.663,0.495-6.488,3.625-6.488,7.424c0,3.799,2.826,6.929,6.488,7.424v28.556
	c-0.071,0.155-0.155,0.3-0.216,0.461l-28.4,75.2C0.167,199.277,0,200.195,0,201.089v98.75c0,4.143,3.357,7.5,7.5,7.5
	s7.5-3.357,7.5-7.5v-91.245h151.84c0.09,2.192,0.327,4.361,0.696,6.505H118.01c-4.143,0-7.5,3.357-7.5,7.5
	c0,17.459,2.088,35.294,6.799,52.134c4.76,17.015,11.5,33.417,20.405,48.689c7.674,13.16,16.864,25.446,27.299,36.551
	c10.02,10.664,21.197,20.237,33.278,28.494c12.175,8.321,25.265,15.299,38.967,20.752c1.728,0.688,3.465,1.351,5.212,1.99v14.252H15
	v-96.63c0-4.143-3.357-7.5-7.5-7.5s-7.5,3.357-7.5,7.5v104.13c0,4.143,3.357,7.5,7.5,7.5h235.233
	c1.693,11.177,11.365,19.771,23.007,19.771h91.029c12.831,0,23.271-10.439,23.271-23.271v-25.72
	c14.752-5.382,28.893-12.515,42.15-21.323c3.45-2.292,4.389-6.947,2.097-10.397c-2.292-3.451-6.947-4.388-10.397-2.097
	c-30.452,20.232-65.944,30.927-102.64,30.927c-60.306,0-113.982-28.9-147.935-73.569h295.939
	c-6.897,9.114-14.655,17.641-23.234,25.425c-3.067,2.783-3.298,7.526-0.515,10.595c2.784,3.067,7.527,3.297,10.595,0.515
	c12.879-11.686,24.061-24.908,33.383-39.255c0.367-0.444,0.678-0.934,0.936-1.455C491.581,313.098,502.33,285.134,505.89,271.574z
	 M365.04,416.046v20.913c0,4.561-3.71,8.271-8.271,8.271H265.74c-4.561,0-8.271-3.71-8.271-8.271v-20.937
	c17.124,4.768,35.158,7.327,53.78,7.327C329.594,423.349,347.66,420.87,365.04,416.046z M462.604,159.503
	c1.627-1.627,3.792-2.523,6.097-2.523c2.293,0,4.457,0.898,6.086,2.523c3.359,3.358,3.359,8.824,0,12.183l-43.414,43.413h-24.365
	L462.604,159.503z M392.57,206.479c0,2.933-0.353,5.816-1.051,8.619H322.42c-0.698-2.803-1.051-5.687-1.051-8.619
	c0-19.63,15.97-35.601,35.6-35.601S392.57,186.85,392.57,206.479z M239.4,206.479c0-19.63,15.966-35.601,35.59-35.601
	c1.434,0,2.852,0.086,4.249,0.251c0.032,0.004,0.063,0.008,0.095,0.011c12.915,1.566,23.961,10.045,28.763,22.245
	c-1.12,4.179-1.727,8.565-1.727,13.093c0,2.912,0.259,5.788,0.746,8.619H240.45C239.752,212.297,239.4,209.413,239.4,206.479z
	 M357.974,155.904c-0.335-0.007-0.667-0.025-1.004-0.025c-16.826,0-31.75,8.263-40.955,20.936
	c-6.799-9.429-16.674-16.237-27.969-19.232c0.588-3.613,1.72-7.095,3.411-10.397c2.117-4.137,4.979-7.769,8.521-10.807
	c6.434-5.546,14.67-8.601,23.192-8.601C340.236,127.779,354.529,139.852,357.974,155.904z M287.58,94.299v24.09H44.1v-24.09H287.58z
	 M41.085,133.389h241.338c-1.615,2.192-3.064,4.51-4.319,6.962c-2.489,4.863-4.15,10.15-4.958,15.575
	c-9.982,0.36-19.232,3.622-26.935,8.972c-8.418-5.846-18.441-9.019-28.821-9.019c-23.448,0-43.218,16.035-48.931,37.715H18.348
	L41.085,133.389z M181.79,206.479c0-19.63,15.97-35.601,35.6-35.601c6.237,0,12.288,1.63,17.61,4.664
	c-6.635,8.561-10.599,19.292-10.599,30.937c0,2.912,0.259,5.789,0.746,8.619h-42.302C182.146,212.296,181.79,209.413,181.79,206.479
	z M496.848,230.099c-0.458,11.273-1.958,22.415-4.418,33.3H130.038c-2.426-10.78-3.924-21.907-4.378-33.3L496.848,230.099
	L496.848,230.099z M153.022,319.779c-7.918-12.846-14.317-26.723-18.943-41.381h354.295c-4.579,14.503-10.92,28.406-18.879,41.381
	H153.022z"/>
<path d="M39.613,387.574H51.6c4.143,0,7.5-3.357,7.5-7.5s-3.357-7.5-7.5-7.5H39.613c-4.143,0-7.5,3.357-7.5,7.5
	S35.471,387.574,39.613,387.574z"/>
<path d="M39.613,410.997h57.061c4.143,0,7.5-3.357,7.5-7.5s-3.357-7.5-7.5-7.5H39.613c-4.143,0-7.5,3.357-7.5,7.5
	S35.471,410.997,39.613,410.997z"/>
<g>
</g>
<g>
</g>
<g>
</g>
<g>
</g>
<g>
</g>
<g>
</g>
<g>
</g>
<g>
</g>
<g>
</g>
<g>
</g>
<g>
</g>
<g>
</g>
<g>
</g>
<g>
</g>
<g>
</g>
</svg>
