<svg id="Capa_1" enable-background="new 0 0 510.976 510.976" height="512" viewBox="0 0 510.976 510.976" width="512" xmlns="http://www.w3.org/2000/svg"><path d="m66.483 441.964h295.258v41.252h-295.258z" fill="#dbe0ea"/><path d="m343.741 441.964h18v41.252h-18z" fill="#d2d5dd"/><path d="m335.915 67.451-277.241-39.692 33.749 74.197h243.492z" fill="#eaeff9"/><path d="m317.915 64.874v37.082h18v-34.505z" fill="#dbe0ea"/><path d="m361.855 441.964s72.105-59.258 56.901-158.719c-11.816-77.299-82.841-137.523-82.841-137.523h-243.492s-71.025 60.225-82.841 137.523c-15.204 99.461 56.901 158.719 56.901 158.719z" fill="#eaeff9"/><path d="m418.757 283.244c-11.816-77.299-82.841-137.523-82.841-137.523h-18s71.025 60.225 82.841 137.523c15.204 99.461-56.901 158.719-56.901 158.719h18c-.001.001 72.104-59.258 56.901-158.719z" fill="#dbe0ea"/><path d="m9.582 283.244c-15.204 99.461 56.901 158.719 56.901 158.719h295.372s72.105-59.258 56.901-158.719c-1.712-11.199-4.672-22.037-8.474-32.389h-392.226c-3.801 10.352-6.762 21.19-8.474 32.389z" fill="#a95118"/><path d="m418.756 283.244c-1.712-11.199-4.672-22.037-8.474-32.389h-18c3.801 10.351 6.762 21.189 8.474 32.389 15.204 99.461-56.901 158.719-56.901 158.719h18c0 .001 72.105-59.258 56.901-158.719z" fill="#994916"/><path d="m399.509 101.956h-307.085v43.765h302.955c35.53 0 64.332 28.803 64.332 64.333v110.11c0 12.085 9.797 21.882 21.883 21.882 12.085 0 21.882-9.797 21.882-21.882v-114.24c0-57.42-46.548-103.968-103.967-103.968z" fill="#ff2b4e"/><path d="m399.509 101.956h-18c57.42 0 103.967 46.548 103.967 103.968v114.24c0 8.876-5.288 16.512-12.882 19.945 2.746 1.241 5.791 1.938 9 1.938 12.085 0 21.882-9.797 21.882-21.882v-114.24c0-57.421-46.548-103.969-103.967-103.969z" fill="#ff002d"/><path d="m399.509 94.456h-56.094v-27.005c0-3.731-2.743-6.895-6.438-7.424l-50.021-7.161c-4.096-.592-7.899 2.26-8.486 6.361-.588 4.101 2.261 7.9 6.361 8.487l43.583 6.24v20.502h-231.162l-26.077-57.331 183.942 26.335c4.091.585 7.899-2.261 8.487-6.361.587-4.101-2.262-7.9-6.362-8.487l-197.505-28.277c-5.752-.815-10.301 5.229-7.89 10.53l33.076 72.718v38.749c-13.403 12.072-71.825 68.275-82.756 139.779-8.188 53.567 8.374 95.699 23.709 121.611 13.057 22.062 27.253 36.252 33.106 41.625v37.869c0 4.142 3.357 7.5 7.5 7.5h295.258c4.143 0 7.5-3.358 7.5-7.5v-37.765c5.779-5.289 20.076-19.518 33.221-41.729 15.336-25.912 31.897-68.044 23.709-121.611-8.93-58.415-49.555-106.616-71.439-128.89h40.647c31.338 0 56.833 25.495 56.833 56.833v110.109c0 16.202 13.181 29.383 29.383 29.383 16.201 0 29.382-13.181 29.382-29.383v-114.239c0-61.463-50.004-111.468-111.467-111.468zm-.327 148.9h-276.758c-4.143 0-7.5 3.358-7.5 7.5s3.357 7.5 7.5 7.5h282.534c2.815 8.404 5.021 17.102 6.385 26.022 6.007 39.292-1.227 76.709-21.497 111.21-12.27 20.883-25.882 34.337-30.83 38.877h-46.066c-4.143 0-7.5 3.358-7.5 7.5s3.357 7.5 7.5 7.5h41.291v26.252h-280.258v-26.252h208.967c4.143 0 7.5-3.358 7.5-7.5s-3.357-7.5-7.5-7.5h-213.627c-4.944-4.537-18.556-17.988-30.829-38.877-20.271-34.501-27.504-71.917-21.498-111.21 1.363-8.917 3.572-17.615 6.392-26.022h69.036c4.143 0 7.5-3.358 7.5-7.5s-3.357-7.5-7.5-7.5h-63.252c20.369-46.82 57.148-82.01 66.101-90.134h237.797c8.955 8.113 45.745 43.257 66.112 90.134zm96.794 76.807c0 7.931-6.451 14.383-14.382 14.383s-14.383-6.452-14.383-14.383v-110.109c0-39.608-32.225-71.833-71.833-71.833h-295.454v-28.765h299.585c53.192 0 96.468 43.275 96.468 96.468v114.239z"/></svg>