<?xml version="1.0" encoding="iso-8859-1"?>
<!-- Generator: Adobe Illustrator 19.0.0, SVG Export Plug-In . SVG Version: 6.00 Build 0)  -->
<svg version="1.1" id="Capa_1" xmlns="http://www.w3.org/2000/svg" xmlns:xlink="http://www.w3.org/1999/xlink" x="0px" y="0px"
	 viewBox="0 0 512 512" style="enable-background:new 0 0 512 512;" xml:space="preserve">
<circle style="fill:#A7A951;" cx="440.62" cy="313.751" r="20"/>
<path style="fill:#CF8575;" d="M41.066,236.75c-2.427-4.847-4.295-10.021-5.534-15.436l37.904-6.484l66.909,50.296L73.84,315.507
	l-38.308-6.569c1.239-5.415,3.107-10.589,5.534-15.436C50.035,275.59,50.035,254.662,41.066,236.75z"/>
<path style="fill:#BE6054;" d="M61.67,340.802c-12.372,6.943-27.827-1.898-27.886-16.085c0-0.096-0.001-0.193-0.001-0.29
	c0-5.326,0.608-10.509,1.748-15.49l104.813-43.812C120.954,296.237,93.835,322.752,61.67,340.802z"/>
<g>
	<path style="fill:#E1A996;" d="M33.784,205.825c0-0.096,0-0.193,0.001-0.289c0.058-14.187,15.513-23.029,27.886-16.085
		c32.165,18.05,59.284,44.566,78.674,75.676L35.532,221.315C34.392,216.334,33.784,211.151,33.784,205.825z"/>
	<path style="fill:#E1A996;" d="M208.269,130.611l74.515,24.515l2.5,52.5h-97.141v-41.075
		C188.143,151.615,196.006,138.177,208.269,130.611z"/>
</g>
<path style="fill:#CF8575;" d="M218.839,125.921c14.627-4.236,29.669-7.252,44.992-9.003l68.953,28.209l16.751,57.496
	c-4.613,3.114-10.258,5.004-16.688,5.004h-47.563l-77.015-77.015C211.508,128.612,215.049,127.018,218.839,125.921z"/>
<path style="fill:#BE6054;" d="M295.164,115.126c11.085,0,21.715,4.403,29.553,12.241l29.256,29.256
	c14.274,14.274,10.045,36.221-4.438,45.998l-85.704-85.704C274.161,115.737,284.618,115.126,295.164,115.126z"/>
<path style="fill:#CE9276;" d="M290.805,162.626c70.705,0,133.397,34.38,172.41,87.38c-3.597,4.887-6.998,9.929-10.181,15.12
	c3.182,5.192,6.583,10.233,10.181,15.12c-39.013,52.999-101.705,87.38-172.41,87.38c-67.23,0-127.219-31.08-166.492-79.697
	c-10.761-13.322-10.761-32.284,0-45.606C163.586,193.706,223.576,162.626,290.805,162.626z"/>
<path style="fill:#DFB296;" d="M290.805,162.626c67.283,0,127.293,31.147,166.563,79.83c-39.065,41.65-94.494,67.67-155.994,67.67
	c-46.938,0-90.368-15.178-125.674-40.886c-25.738-18.741-24.492-57.676,2.54-74.498
	C210.941,174.393,249.493,162.626,290.805,162.626z"/>
<path style="opacity:0.4;fill:#BD7155;enable-background:new    ;" d="M310.046,163.488c62.764,5.608,117.734,38.38,153.168,86.518
	c-3.597,4.887-6.998,9.928-10.181,15.12c3.182,5.191,6.583,10.233,10.181,15.12c-28.722,39.019-70.287,67.925-118.427,80.471
	c-36.833-25.22-61.004-67.58-61.004-115.591C283.784,214.659,293.521,186.469,310.046,163.488z"/>
<g>
	<path style="fill:#BE6054;" d="M463.227,295.247c3.088,0,6.203-0.95,8.88-2.921c6.671-4.911,8.099-14.301,3.188-20.973
		c-1.508-2.048-2.979-4.128-4.407-6.228c1.427-2.1,2.898-4.179,4.407-6.228c4.911-6.672,3.484-16.062-3.188-20.973
		c-6.672-4.912-16.061-3.484-20.973,3.188c-3.869,5.256-7.533,10.698-10.889,16.174c-2.949,4.81-2.949,10.868,0,15.678
		c3.356,5.476,7.021,10.918,10.889,16.174C454.075,293.133,458.621,295.247,463.227,295.247z"/>
	<path style="fill:#BE6054;" d="M376.284,310.126c24.813,0,45-20.187,45-45s-20.187-45-45-45s-45,20.187-45,45
		S351.471,310.126,376.284,310.126z"/>
</g>
<path style="fill:#DAC69C;" d="M376.284,295.126c-16.542,0-30-13.458-30-30s13.458-30,30-30s30,13.458,30,30
	S392.826,295.126,376.284,295.126z"/>
<path style="fill:#E6D8B3;" d="M346.284,265.126c0,3.72,0.686,7.281,1.929,10.571c3.29,1.243,6.851,1.929,10.571,1.929
	c16.542,0,30-13.458,30-30c0-3.72-0.686-7.281-1.929-10.571c-3.29-1.243-6.851-1.929-10.571-1.929
	C359.742,235.126,346.284,248.584,346.284,265.126z"/>
<path style="fill:#FEFBE1;" d="M239.278,285.296c-14.47-14.48-34.47-23.42-56.58-23.42s-42.11,8.94-56.58,23.42
	c-9.581,9.575-16.737,21.571-20.482,34.997c-3.024,10.842,5.123,21.583,16.379,21.583h60.683h60.683
	c11.255,0,19.403-10.742,16.379-21.583C256.015,306.867,248.859,294.871,239.278,285.296z"/>
<path style="fill:#F6EEA4;" d="M242.698,341.876h-60l42.428-42.427l0.007-0.008C235.993,310.294,242.698,325.294,242.698,341.876z"
	/>
<path style="fill:#EFE388;" d="M225.133,299.441l-0.007,0.008l-42.428,42.427v-60C199.28,281.876,214.28,288.581,225.133,299.441z"
	/>
<path style="fill:#E7D96B;" d="M182.698,281.876v60l-42.428-42.427l-0.007-0.008C151.115,288.581,166.115,281.876,182.698,281.876z"
	/>
<path style="fill:#DFCE4E;" d="M182.698,341.876h-60c0-16.582,6.705-31.582,17.565-42.435l0.007,0.008L182.698,341.876z"/>
<circle style="fill:#7B7E4D;" cx="458.62" cy="342.031" r="20"/>
<circle style="fill:#A7A951;" cx="317" cy="342.031" r="20"/>
<circle style="fill:#7B7E4D;" cx="422.23" cy="342.031" r="20"/>
<circle style="fill:#A7A951;" cx="389" cy="342.031" r="20"/>
<path style="fill:#C1BDAB;" d="M423.574,396.876H88.426c-7.956,0-15.587-3.161-21.213-8.787L36,356.876h440l-31.213,31.213
	C439.161,393.715,431.53,396.876,423.574,396.876z"/>
<path style="fill:#E7E4CD;" d="M489.5,371.876h-467c-8.284,0-15-6.716-15-15l0,0c0-8.284,6.716-15,15-15h467c8.284,0,15,6.716,15,15
	l0,0C504.5,365.161,497.784,371.876,489.5,371.876z"/>
<path d="M376.284,302.626c20.678,0,37.5-16.822,37.5-37.5s-16.822-37.5-37.5-37.5s-37.5,16.822-37.5,37.5
	S355.606,302.626,376.284,302.626z M376.284,242.626c12.406,0,22.5,10.093,22.5,22.5s-10.094,22.5-22.5,22.5s-22.5-10.093-22.5-22.5
	S363.878,242.626,376.284,242.626z"/>
<circle cx="376.28" cy="265.121" r="7.5"/>
<path d="M489.5,334.376h-4.462c-1.271-4.411-3.638-8.454-6.974-11.79c-2.894-2.894-6.339-5.063-10.082-6.418
	c0.399-4.64-0.376-9.319-2.257-13.575c3.908-0.432,7.614-1.861,10.828-4.227c9.991-7.354,12.136-21.467,4.781-31.459
	c-0.435-0.59-0.866-1.184-1.296-1.781c0.43-0.597,0.861-1.191,1.296-1.781c7.354-9.992,5.21-24.104-4.781-31.459
	c-6.25-4.601-14.114-5.483-20.928-3.052c-23.891-26.632-53.525-46.786-86.207-59.229c-1.511-6.837-5.017-13.16-10.142-18.285
	l-29.256-29.256c-9.311-9.311-21.69-14.438-34.857-14.438c-10.672,0-21.5,0.619-32.185,1.839
	c-15.654,1.789-31.207,4.901-46.227,9.251c-4.359,1.262-8.534,3.114-12.41,5.504c-0.004,0.002-0.009,0.004-0.013,0.007
	c-12.192,7.523-20.565,19.889-22.974,33.925c-0.7,4.083,2.042,7.959,6.124,8.66c0.429,0.074,0.855,0.109,1.277,0.109
	c3.585,0,6.756-2.58,7.383-6.233c1.351-7.876,5.406-14.999,11.375-20.225l22.989,22.989
	c-40.821,11.523-77.715,34.693-106.314,67.396c-17.029-19.446-36.788-35.559-58.85-47.939c-8.198-4.601-17.956-4.513-26.102,0.234
	c-8.073,4.705-12.916,13.064-12.954,22.354l-0.001,0.327c0,5.771,0.652,11.546,1.937,17.163c1.358,5.938,3.424,11.698,6.139,17.121
	c7.961,15.899,7.961,34.137,0,50.036c-2.715,5.422-4.78,11.183-6.139,17.121c-1.285,5.617-1.937,11.391-1.937,17.163l0.001,0.32
	c0.014,3.377,0.682,6.627,1.893,9.628H22.5c-12.407,0-22.5,10.093-22.5,22.5s10.093,22.5,22.5,22.5h25.394l14.016,14.016
	c7.083,7.083,16.5,10.983,26.516,10.983h335.147c10.018,0,19.435-3.901,26.518-10.983l14.015-14.016H489.5
	c12.406,0,22.5-10.093,22.5-22.5S501.906,334.376,489.5,334.376z M467.457,333.193c0.374,0.374,0.711,0.773,1.031,1.184h-28.361
	c0.554-0.321,1.079-0.709,1.553-1.184c2.929-2.929,2.929-7.678,0-10.606c-1.249-1.249-2.591-2.349-4.001-3.307
	c4.559-4.051,8.956-8.288,13.171-12.698c1.855,2.658,2.6,5.941,2.107,9.117c-2.372,1.436-3.858,4.131-3.595,7.079
	c0.369,4.126,4.022,7.181,8.138,6.804c0.154-0.014,0.307-0.008,0.461-0.016c0.276,0.031,0.552,0.048,0.827,0.048
	c0.199,0,0.394-0.026,0.591-0.042C462.405,329.755,465.28,331.015,467.457,333.193z M295.164,122.626
	c9.161,0,17.773,3.567,24.25,10.044l29.256,29.256c0.401,0.401,0.784,0.812,1.15,1.23c-12.059-3.343-24.44-5.658-37.015-6.917
	c-0.364-0.972-0.931-1.886-1.713-2.668l-30.534-30.535C285.44,122.769,290.319,122.626,295.164,122.626z M221.285,133.021
	c12.959-3.733,26.337-6.493,39.823-8.219l30.333,30.333c-0.212,0-0.424-0.009-0.636-0.009c-14.727,0-29.244,1.447-43.382,4.256
	c-0.278-0.423-0.601-0.825-0.974-1.198L221.285,133.021z M130.148,247.036c39.482-48.877,98.04-76.91,160.657-76.91
	c58.387,0,113.956,24.791,153.137,68.143c-3.568,4.932-6.963,9.998-10.088,15.097c-1.949,3.177-3.085,6.823-3.286,10.544
	c-0.223,4.136,2.949,7.67,7.085,7.894c4.118,0.22,7.67-2.949,7.894-7.085c0.066-1.239,0.444-2.452,1.095-3.511
	c3.244-5.293,6.789-10.558,10.533-15.646c2.454-3.331,7.157-4.045,10.487-1.594c1.613,1.188,2.668,2.932,2.969,4.913
	c0.301,1.98-0.188,3.96-1.375,5.573c-1.562,2.121-3.099,4.294-4.569,6.458c-1.729,2.544-1.729,5.886,0,8.431
	c1.471,2.165,3.008,4.337,4.569,6.458c1.188,1.613,1.676,3.593,1.375,5.573c-0.301,1.981-1.355,3.726-2.969,4.913
	c-1.298,0.956-2.831,1.461-4.433,1.461c-1.694,0-3.352-0.573-4.665-1.613c-3.156-2.498-7.694-2.043-10.308,0.966
	c-0.054,0.06-0.112,0.113-0.165,0.175c-8.49,9.983-17.967,19.179-28.177,27.389c-5.073,0.426-10.05,2.229-14.296,5.453
	c-10.769-8.177-26.238-7.355-36.063,2.47c-3.331,3.332-5.697,7.377-6.97,11.79H343.42c-1.271-4.411-3.638-8.455-6.973-11.79
	c-6.819-6.819-16.356-9.294-25.156-7.44c-13.1-20.986-20.006-45.071-20.006-70.02c0-4.142-3.357-7.5-7.5-7.5s-7.5,3.358-7.5,7.5
	c0,27.408,7.501,53.88,21.72,77.032c-0.15,0.143-0.303,0.281-0.45,0.428c-3.335,3.336-5.702,7.379-6.973,11.79h-24.61
	c2.07-4.88,2.494-10.309,1.141-15.586c1.163,0.693,2.495,1.067,3.851,1.067c1.219,0,2.456-0.298,3.601-0.926
	c3.632-1.993,4.96-6.551,2.968-10.183c-10.629-19.375-16.247-41.375-16.247-63.622c0-4.142-3.358-7.5-7.5-7.5s-7.5,3.358-7.5,7.5
	c0,15.344,2.408,30.583,7.053,45.093c-2.646-3.616-5.568-7.039-8.754-10.224c-16.509-16.521-38.487-25.619-61.885-25.619
	c-21.17,0-41.162,7.47-57.006,21.122c-0.372-0.956-0.696-1.924-0.962-2.906c-0.015-0.052-0.029-0.104-0.046-0.156
	C122.399,263.801,124.217,254.378,130.148,247.036z M432.626,334.376h-20.254c0.324-0.419,0.661-0.821,1.024-1.184
	c4.872-4.874,12.803-4.875,17.677,0C431.546,333.667,432.072,334.056,432.626,334.376z M398.863,334.376h-19.731
	c0.32-0.411,0.656-0.81,1.03-1.184c4.874-4.875,12.804-4.874,17.676-0.002C398.201,333.555,398.539,333.958,398.863,334.376z
	 M326.869,334.376H307.13c0.32-0.41,0.657-0.81,1.03-1.184c4.873-4.874,12.805-4.874,17.678,0
	C326.213,333.566,326.55,333.966,326.869,334.376z M230.428,294.146c-2.929-2.929-7.678-2.929-10.606,0l-29.624,29.624v-41.894
	c0-4.142-3.358-7.5-7.5-7.5s-7.5,3.358-7.5,7.5v41.894l-29.625-29.624c-2.929-2.929-7.678-2.929-10.606,0
	c-2.929,2.929-2.929,7.678,0,10.606l29.624,29.624h-42.577c-2.997,0-5.755-1.369-7.568-3.757c-1.815-2.391-2.394-5.42-1.587-8.311
	c3.33-11.938,9.748-22.902,18.563-31.711c13.675-13.685,31.885-21.221,51.275-21.221c19.389,0,37.599,7.537,51.278,21.225
	c8.812,8.806,15.229,19.77,18.56,31.707c0.806,2.892,0.228,5.921-1.587,8.312c-1.813,2.387-4.571,3.756-7.567,3.756h-42.577
	l29.624-29.624C233.357,301.824,233.357,297.074,230.428,294.146z M41.285,205.566c0.016-3.984,2.023-7.433,5.506-9.463
	c3.505-2.043,7.695-2.085,11.208-0.113c21.389,12.003,40.479,27.775,56.807,46.921c-0.54,0.912-1.05,1.837-1.519,2.776
	l-71.174-29.75c-0.551-3.338-0.83-6.726-0.83-10.113L41.285,205.566z M108.986,270.105l-60.507,25.292
	c9.149-19.329,9.149-41.213,0-60.542l60.204,25.165c0.103,0.043,0.208,0.074,0.313,0.113
	C108.613,263.446,108.604,266.791,108.986,270.105z M42.114,314.315l71.178-29.752c0.401,0.804,0.829,1.6,1.283,2.385
	c-1.471,1.823-2.869,3.701-4.187,5.632c-0.387,0.283-0.754,0.605-1.091,0.971C94.179,309.947,76.92,323.644,58,334.262
	c-0.063,0.035-0.12,0.077-0.182,0.114H47.24c-3.712-1.948-5.938-5.534-5.956-9.699l-0.001-0.25
	C41.284,321.041,41.563,317.654,42.114,314.315z M99.424,334.376H85.695c4.023-2.883,7.961-5.901,11.802-9.062
	C97.547,328.431,98.204,331.498,99.424,334.376z M489.5,364.376H376.207c-4.143,0-7.5,3.358-7.5,7.5s3.357,7.5,7.5,7.5h66.686
	l-3.409,3.41c-4.249,4.25-9.899,6.59-15.91,6.59H88.426c-6.01,0-11.66-2.34-15.91-6.59l-3.41-3.41H132.5c4.142,0,7.5-3.358,7.5-7.5
	s-3.358-7.5-7.5-7.5h-110c-4.136,0-7.5-3.364-7.5-7.5s3.364-7.5,7.5-7.5h454.594c0.492,0.102,1.002,0.156,1.525,0.156
	s1.032-0.054,1.525-0.156h9.356c4.136,0,7.5,3.364,7.5,7.5S493.636,364.376,489.5,364.376z"/>
<g>
</g>
<g>
</g>
<g>
</g>
<g>
</g>
<g>
</g>
<g>
</g>
<g>
</g>
<g>
</g>
<g>
</g>
<g>
</g>
<g>
</g>
<g>
</g>
<g>
</g>
<g>
</g>
<g>
</g>
</svg>
