<svg height="512pt" viewBox="0 -5 512 512" width="512pt" xmlns="http://www.w3.org/2000/svg"><path d="m177.890625 339.679688c-14.792969-13.054688-17.644531-17.421876-19.242187-20.164063-16.703126-28.683594-7.625-71.316406 8.726562-76.628906 9.800781-3.183594 18.800781 8.148437 26.078125 3.136719 6.605469-4.546876.761719-14.945313 8.066406-26.367188 5.445313-8.507812 16.421875-14.835938 27.914063-14.066406.652344.046875 15.628906 1.273437 22.679687 12.828125 8.609375 14.101562-4.214843 27.800781 3.550781 38.421875 7.9375 10.855468 24.910157 1.421875 33.039063 10.839844 13.519531 15.664062-20.84375 56.351562-7.765625 71.453124 8.488281 9.800782 27.246094-2.429687 38.476562 8.667969 11 10.871094 8.917969 38.339844-4.710937 49.632813-17.511719 14.511718-50.175781-.9375-73.925781-12.167969-24.226563-11.460937-40.671875-25.976563-62.886719-45.585937zm0 0" fill="#5db57f"/><path d="m274.183594 256.035156c-.703125 0-1.273438-.589844-1.253906-1.292968l6.628906-225.347657c.351562-11.984375-9.269532-21.886719-21.253906-21.886719-11.777344 0-21.257813 9.558594-21.257813 21.253907 0 .222656 0 .453125.007813.671875l7.011718 225.308594c.019532.703124-.550781 1.292968-1.261718 1.292968h-.421876c-14.519531 0-26.285156 11.765625-26.285156 26.285156v87.222657l84.378906-16.582031v-70.640626c0-14.519531-11.773437-26.285156-26.292968-26.285156zm-22.449219 83.179688c0 4.144531-3.363281 7.507812-7.511719 7.507812-4.144531 0-7.507812-3.363281-7.507812-7.507812v-34.785156c0-4.148438 3.363281-7.511719 7.507812-7.511719 4.144532 0 7.511719 3.363281 7.511719 7.511719zm28.125 0c0 4.144531-3.363281 7.507812-7.507813 7.507812-4.144531 0-7.511718-3.363281-7.511718-7.507812v-34.785156c0-4.148438 3.363281-7.511719 7.511718-7.511719 4.144532 0 7.507813 3.363281 7.507813 7.511719zm0 0" fill="#d9fcff"/><path d="m274.183594 256.035156c-.703125 0-1.273438-.589844-1.253906-1.292968l6.628906-225.347657c.351562-11.984375-9.269532-21.886719-21.253906-21.886719-9.800782 0-17.992188 6.628907-20.472657 15.59375 2.023438-.636718 4.171875-.988281 6.40625-.988281 11.988281 0 21.609375 9.90625 21.257813 21.890625l-6.628906 225.347656c-.019532.703126.550781 1.292969 1.253906 1.292969 14.519531 0 26.292968 11.765625 26.292968 26.285157v58.792968l14.0625-2.761718v-70.640626c0-14.519531-11.773437-26.285156-26.292968-26.285156zm0 0" fill="#b0dee2"/><path d="m97.984375 395.179688c-19.15625-4.707032-23.710937-7.253907-26.398437-8.945313-28.101563-17.664063-39.828126-59.644531-27.800782-71.933594 7.207032-7.367187 20.433594-1.5 24.558594-9.316406 3.742188-7.089844-6.257812-13.589844-5.082031-27.101563.878906-10.0625 7.667969-20.761718 18.210937-25.40625.597656-.265624 14.433594-6.121093 26.039063.847657 14.164062 8.5 9.160156 26.585937 20.960937 32.394531 12.066406 5.933594 22.730469-10.292969 34.300782-5.71875 19.242187 7.609375 7.667968 59.59375 26.253906 66.90625 12.070312 4.746094 23.015625-14.789062 38.109375-10.164062 14.789062 4.53125 25.679687 29.832031 18.84375 46.15625-8.785157 20.980468-44.890625 22.441406-71.136719 23.5-26.777344 1.085937-48.082031-4.148438-76.859375-11.21875zm0 0" fill="#74c577"/><path d="m290.699219 385.839844s-27.460938-65.824219 40.1875-123.941406c5.371093-4.941407 13.867187-3.996094 18.027343 2.003906 4.277344 6.160156 9.117188 13.503906 16.238282 16.777344 9.058594 4.164062 26.765625-4.441407 36.960937 2.386718 8.628907 5.78125 7.542969 25.144532 16.25 33.277344 7.960938 7.433594 26.578125 4.1875 32.523438 11.660156 6.972656 8.765625-.542969 26.363282 4.066406 34.3125 6.230469 10.738282 25.699219 16.679688 28.585937 23.917969zm0 0" fill="#74c577"/><path d="m412.152344 379.714844c0 33.453125-27.117188 60.570312-60.558594 60.570312-3.074219 0-6.089844-.230468-9.03125-.671875-29.167969-4.355469-51.539062-29.519531-51.539062-59.898437 0-30.367188 22.371093-55.53125 51.539062-59.886719 2.941406-.441406 5.957031-.671875 9.03125-.671875 33.441406 0 60.558594 27.117188 60.558594 60.558594zm0 0" fill="#e55045"/><path d="m369.917969 379.714844c0 23.921875-10.59375 45.359375-27.355469 59.898437-29.167969-4.355469-51.535156-29.519531-51.535156-59.898437 0-30.367188 22.367187-55.53125 51.535156-59.886719 16.761719 14.527344 27.355469 35.976563 27.355469 59.886719zm0 0" fill="#c64b3f"/><path d="m382.972656 379.71875c0 17.515625-14.195312 31.710938-31.710937 31.710938-17.511719 0-31.710938-14.195313-31.710938-31.710938 0-17.511719 14.199219-31.710938 31.710938-31.710938 17.515625 0 31.710937 14.199219 31.710937 31.710938zm0 0" fill="#ff9a2d"/><path d="m319.550781 379.71875c0 17.515625 14.199219 31.710938 31.710938 31.710938 4.730469 0 9.214843-1.042969 13.246093-2.898438 3.488282-8.933594 5.40625-18.648438 5.40625-28.816406 0-10.164063-1.917968-19.875-5.40625-28.808594-4.03125-1.855469-8.515624-2.898438-13.246093-2.898438-17.511719 0-31.710938 14.195313-31.710938 31.710938zm0 0" fill="#ff8d29"/><path d="m351.261719 379.71875c0 33.449219-27.113281 60.566406-60.5625 60.566406s-60.566407-27.117187-60.566407-60.566406 27.117188-60.566406 60.566407-60.566406 60.5625 27.117187 60.5625 60.566406zm0 0" fill="#e55045"/><path d="m322.734375 379.71875c0 17.515625-14.199219 31.710938-31.710937 31.710938-17.515626 0-31.710938-14.195313-31.710938-31.710938 0-17.511719 14.195312-31.710938 31.710938-31.710938 17.511718 0 31.710937 14.199219 31.710937 31.710938zm0 0" fill="#ff9a2d"/><path d="m503.859375 395.324219v19.625c0 5.027343-4.066406 9.09375-9.09375 9.09375h-4.15625c-16.980469 0-31.820313 11.433593-36.144531 27.855469l-3.933594 14.929687c-4.328125 16.410156-19.167969 27.855469-36.136719 27.855469h-317.269531c-16.722656 0-31.410156-11.113282-35.964844-27.207032l-4.597656-16.238281c-2.28125-8.050781-7.085938-14.839843-13.414062-19.636719-6.339844-4.785156-14.1875-7.558593-22.550782-7.558593h-4.003906c-5.027344 0-9.09375-4.066407-9.09375-9.09375v-19.625c0-5.015625 4.066406-9.089844 9.09375-9.089844h478.175781c5.023438 0 9.089844 4.074219 9.089844 9.089844zm0 0" fill="#f0dbbd"/><path d="m494.765625 386.234375h-66.972656c5.027343 0 9.09375 4.074219 9.09375 9.089844v19.625c0 5.027343-4.066407 9.09375-9.09375 9.09375h-4.152344c-16.984375 0-31.824219 11.433593-36.148437 27.855469l-3.933594 14.929687c-4.328125 16.410156-19.164063 27.855469-36.136719 27.855469h66.972656c16.972657 0 31.808594-11.445313 36.136719-27.855469l3.933594-14.929687c4.324218-16.421876 19.164062-27.855469 36.144531-27.855469h4.15625c5.027344 0 9.09375-4.066407 9.09375-9.09375v-19.625c0-5.015625-4.066406-9.089844-9.09375-9.089844zm0 0" fill="#eac9a2"/><path d="m503.859375 395.324219v19.625c0 5.027343-4.066406 9.09375-9.09375 9.09375h-478.171875c-5.027344 0-9.09375-4.066407-9.09375-9.09375v-19.625c0-5.015625 4.066406-9.089844 9.09375-9.089844h478.171875c5.027344 0 9.09375 4.074219 9.09375 9.089844zm0 0" fill="#d2b393"/><path d="m494.765625 386.234375h-66.972656c5.027343 0 9.09375 4.074219 9.09375 9.089844v19.625c0 5.027343-4.066407 9.09375-9.09375 9.09375h66.976562c5.023438 0 9.089844-4.066407 9.089844-9.09375v-19.625c0-5.015625-4.066406-9.089844-9.09375-9.089844zm0 0" fill="#bf9984"/><path d="m495.390625 378.726562h-7.292969c-2.953125-3.269531-7.253906-5.933593-12.011718-8.878906-5.488282-3.394531-11.710938-7.242187-14.066407-11.300781-.929687-1.59375-.554687-6.851563-.285156-10.691406.582031-8.175781 1.238281-17.441407-4.410156-24.519531-4.816407-6.0625-12.773438-7.371094-20.464844-8.636719-4.960937-.816407-10.582031-1.738281-12.84375-3.851563-2.746094-2.558594-4.375-8.203125-5.949219-13.664062-2.253906-7.808594-4.582031-15.878906-11.28125-20.367188-7.949218-5.3125-17.625-4.160156-26.160156-3.144531-4.34375.515625-9.75 1.160156-11.882812.179687-4.925782-2.261718-9.007813-8.15625-12.605469-13.359374l-.613281-.886719c-3.226563-4.636719-8.296876-7.652344-13.910157-8.277344-5.566406-.621094-11.132812 1.179687-15.285156 4.9375-6.992187 6.007813-13.234375 12.308594-18.742187 18.871094-2.855469-13.136719-13.375-23.449219-26.632813-26.003907l1.980469-67.296874c.125-4.144532-3.136719-7.605469-7.285156-7.726563-4.152344-.140625-7.601563 3.136719-7.726563 7.285156l-2.152344 73.125c-.070312 2.351563.832031 4.671875 2.472657 6.363281 1.640624 1.691407 3.933593 2.660157 6.289062 2.660157 10.371094 0 18.808594 8.421875 18.808594 18.777343v13.238282c-2.996094 5.304687-5.566406 10.75-7.699219 16.320312-1.832031.144532-3.648437.351563-5.4375.640625v-8.089843c0-4.148438-3.359375-7.511719-7.507813-7.511719-4.148437 0-7.511718 3.363281-7.511718 7.511719v12.328124c-4.664063 1.917969-9.0625 4.34375-13.140625 7.199219v-19.527343c0-4.148438-3.363281-7.511719-7.511719-7.511719-4.144531 0-7.507812 3.363281-7.507812 7.511719v28.746093c-2.363282-1.609375-4.84375-2.832031-7.40625-3.621093-1.902344-.578126-3.808594-.917969-5.734376-1.015626v-46.222656c0-10.351562 8.4375-18.773437 18.808594-18.773437h.421875c2.359375 0 4.652344-.972657 6.292969-2.664063 1.640625-1.695312 2.539062-4.015625 2.46875-6.371094l-1.398438-44.828124c0-.039063 0-.078126 0-.117188l-5.617187-180.367188c-.117187-3.746093 1.257813-7.292968 3.867187-9.984374 2.621094-2.703126 6.136719-4.191407 9.902344-4.191407 3.761719 0 7.277344 1.484375 9.894532 4.179688 2.613281 2.691406 3.988281 6.234375 3.878906 9.953125l-3.914063 121.246094c-.132812 4.144531 3.121094 7.613281 7.265625 7.746093 4.183594.136719 7.613282-3.117187 7.746094-7.261719l3.914062-121.265624c.230469-7.835938-2.648437-15.253907-8.113281-20.878907-5.472656-5.636719-12.8125-8.738281-20.667969-8.738281-7.867187 0-15.214843 3.109375-20.6875 8.753906-5.46875 5.640625-8.34375 13.066406-8.097656 20.910156l5.265625 169.191407c-2.621093-.566407-4.476562-.726563-4.886719-.757813-13.511718-.890625-27.484374 6.132813-34.777343 17.511719-4.753907 7.421875-5.175781 14.410156-5.484375 19.511719-.09375 1.574218-.234375 3.910156-.550782 4.699218-.976562.015626-3.671874-1.085937-5.304687-1.757812-4.824219-1.992188-11.429687-4.722656-18.839844-2.316406-13.675781 4.4375-20.933593 22.980468-22.496093 40.835937-5.476563 2.65625-8.226563 3.667969-10.824219 2.390625-2.6875-1.320312-3.804688-4.511718-5.546875-10.039062-2.15625-6.832032-5.105469-16.1875-14.886719-22.050782-15.039063-9.011718-32.242187-1.601562-32.964844-1.28125-12.390625 5.464844-21.507812 18.171876-22.6875 31.632813-.761719 8.773437 2.109375 15.160156 4.203125 19.820313.644532 1.4375 1.601563 3.5625 1.695313 4.417968-.886719.472656-3.753907.730469-5.5.890625-5.203125.472657-12.328125 1.117188-17.777344 6.679688-6.421875 6.550781-8.421875 17.792969-5.636719 31.652343.816406 4.066407 4.78125 6.703126 8.839844 5.882813 4.066406-.816406 6.703125-4.777344 5.882812-8.84375-1.898437-9.460937-.546874-15.945313 1.640626-18.179687 1.476562-1.507813 4.160156-1.847657 8.402343-2.234376 5.671875-.511718 13.441407-1.214843 17.46875-8.832031 3.554688-6.75.855469-12.761719-1.316406-17.589843-1.730469-3.847657-3.363281-7.484376-2.941406-12.359376.707031-8.035156 6.375-15.929687 13.761719-19.1875.109374-.046874 10.898437-4.566406 19.210937.410157 4.65625 2.792969 6.179687 7.019531 8.28125 13.6875 2.078125 6.589843 4.664063 14.785156 13.25 19.003906 9.566406 4.699219 18.242187.460937 24.574219-2.636719 1.058594-.515625 2.113281-1.035156 3.164062-1.503906 4.089844-1.832031 5.816406-1.859375 7.152344-1.332031 5.570312 2.199219 7.332031 16.445312 8.746094 27.890625 2.050781 16.597656 4.171875 33.765625 17.554687 39.019531 2.296875.90625 4.523438 1.285156 6.671875 1.285156 6.554688 0 12.390625-3.535156 17.3125-6.515625 2.328125-1.410156 4.554688-2.75 6.710938-3.71875 1.152344-.128906 2.226562-.519531 3.160156-1.109375 1.753906-.417969 3.300781-.386719 4.851562.085938 1.917969.589843 3.890626 1.859375 5.777344 3.667969-5.007812 9.304687-7.902344 19.898437-8.0625 31.140624h-68.070312c-7.710938-5.328124-14.742188-11.558593-20.910156-18.566406-16.253907-18.496094-23.089844-38.25-25.960938-51.566406-.871094-4.054688-4.863281-6.625-8.921875-5.757812-4.054687.875-6.632813 4.867187-5.757813 8.921874 3.246094 15.058594 10.972657 37.402344 29.363282 58.320313 2.652344 3.015625 5.449218 5.894531 8.371094 8.648437h-57.101563c-5.761719-3.964843-11.097656-9.390624-15.515625-15.84375-2.347656-3.417968-7.019531-4.296874-10.441406-1.949218-3.421875 2.34375-4.292969 7.019531-1.949219 10.4375 1.789063 2.613281 3.691406 5.050781 5.679687 7.355468h-35.117187c-9.160156 0-16.609375 7.445313-16.609375 16.597657v19.628906c0 9.152344 7.449219 16.597656 16.609375 16.597656h4.015625c13.320312 0 25.152344 8.9375 28.78125 21.734375l4.601562 16.242188c5.449219 19.230468 23.226563 32.660156 43.234376 32.660156h317.667968c20.386719 0 38.25-13.753906 43.449219-33.445312l3.9375-14.933594c3.460937-13.105469 15.351563-22.253906 28.925781-22.253906h4.167969c9.160156 0 16.609375-7.449219 16.609375-16.601563v-19.628906c0-9.152344-7.449219-16.597657-16.609375-16.597657zm-303.382813-38.8125c-5.066406-1.988281-6.84375-16.378906-8.140624-26.886718-2.101563-16.980469-4.269532-34.539063-18.136719-40.015625-2.476563-.976563-4.890625-1.347657-7.195313-1.332031 2.242188-12.492188 7.503906-20.394532 11.367188-21.648438 2.011718-.648438 4.542968.289062 8.476562 1.914062 5.265625 2.171876 12.476563 5.148438 19.566406.269532 6.292969-4.324219 6.691407-10.902344 7.007813-16.1875.257813-4.210938.496094-8.1875 3.140625-12.316406 4.359375-6.800782 13.050781-11.179688 21.082031-10.628907.039063.003907 2.910157.238281 6.425781 1.480469l1.074219 34.496094c-15.792969 2.84375-27.816406 16.675781-27.816406 33.261718v49.984376c-2.1875 1.121093-4.238281 2.359374-6.140625 3.507812-5.175781 3.136719-8.480469 4.976562-10.710938 4.101562zm144.183594-72.320312c.0625-.054688.125-.109375.1875-.164062 1.324219-1.21875 2.808594-1.253907 3.578125-1.171876.765625.085938 2.207031.449219 3.230469 1.921876l.597656.859374c4.464844 6.453126 10.023438 14.484376 18.691406 18.464844 5.972657 2.742188 13.066407 1.898438 19.921876 1.082032 6.246093-.742188 12.703124-1.511719 16.035156.714843 2.140625 1.433594 3.835937 7.316407 5.199218 12.042969 2.042969 7.078125 4.355469 15.101562 10.140626 20.492188 5.585937 5.207031 13.585937 6.523437 20.648437 7.683593 3.953125.652344 9.929687 1.632813 11.152344 3.171875 2 2.507813 1.566406 8.667969 1.179687 14.105469-.476562 6.738281-.972656 13.707031 2.277344 19.296875 3.03125 5.21875 7.9375 9.203125 13.039062 12.632812h-41.917968c-.53125-37.078124-30.875-67.078124-68.117188-67.078124-10.636718 0-21.097656 2.480468-30.519531 7.195312-6.15625-3.082031-12.835937-5.273438-19.875-6.375 7.167969-16.25 18.746094-31.3125 34.550781-44.875zm22.996094 111.132812c-.117188-8.085937-1.644531-15.832031-4.359375-23.003906 11.574219 1.492188 20.609375 11.164063 21.089844 23.003906zm31.75 0c-.527344-21.171874-17.917969-38.234374-39.234375-38.234374-1.605469 0-3.199219.109374-4.777344.300781-3.03125-4.324219-6.546875-8.289063-10.476562-11.800781 5.019531-1.535157 10.273437-2.328126 15.585937-2.328126 28.960938 0 52.566406 23.265626 53.097656 52.0625zm-99.875-52.0625c28.960938 0 52.570312 23.265626 53.105469 52.0625h-13.542969c-.53125-21.167968-17.921875-38.230468-39.238281-38.230468-21.3125 0-38.703125 17.0625-39.234375 38.230468h-14.195313c.53125-28.796874 24.140625-52.0625 53.105469-52.0625zm24.542969 52.0625h-48.433594c.523437-12.886718 11.183594-23.210937 24.21875-23.210937 13.03125 0 23.691406 10.324219 24.214844 23.210937zm175.617187 37.808594h-400.472656c-4.148438 0-7.511719 3.359375-7.511719 7.507813 0 4.148437 3.363281 7.511719 7.511719 7.511719h366.949219c-4.605469 5.15625-8.074219 11.410156-9.925781 18.425781l-3.9375 14.929687c-3.457032 13.105469-15.351563 22.257813-28.925782 22.257813h-317.667968c-13.320313 0-25.15625-8.9375-28.78125-21.734375l-4.605469-16.242188c-5.449219-19.226562-23.226563-32.65625-43.230469-32.65625h-4.015625c-.875 0-1.589844-.710937-1.589844-1.582031v-19.628906c0-.871094.714844-1.578125 1.589844-1.578125h478.78125c.875 0 1.589844.707031 1.589844 1.578125v19.628906c0 .871094-.714844 1.582031-1.589844 1.582031zm0 0"/></svg>