<?xml version="1.0" encoding="iso-8859-1"?>
<!-- Generator: Adobe Illustrator 19.0.0, SVG Export Plug-In . SVG Version: 6.00 Build 0)  -->
<svg version="1.1" id="Capa_1" xmlns="http://www.w3.org/2000/svg" xmlns:xlink="http://www.w3.org/1999/xlink" x="0px" y="0px"
	 viewBox="0 0 512 512" style="enable-background:new 0 0 512 512;" xml:space="preserve">
<path style="fill:#C8DA52;" d="M108.779,291.031c-9.911,0-19.229-3.86-26.238-10.868s-10.868-16.326-10.868-26.238
	c0-9.911,3.86-19.229,10.868-26.238c7.008-7.008,16.326-10.868,26.238-10.868s19.229,3.86,26.238,10.868
	c7.008,7.008,10.868,16.326,10.868,26.238c0,9.911-3.86,19.229-10.868,26.238C128.008,287.171,118.69,291.031,108.779,291.031z"/>
<path style="fill:#90C23E;" d="M135.016,227.688c-7.008-7.008-16.326-10.868-26.237-10.868c-5.253,0-10.336,1.094-15,3.157
	c4.136,1.829,7.944,4.417,11.237,7.71c7.008,7.008,10.868,16.326,10.868,26.237c0,9.912-3.86,19.229-10.868,26.238
	c-3.294,3.293-7.102,5.882-11.237,7.71c4.664,2.063,9.747,3.157,15,3.157c9.911,0,19.229-3.859,26.237-10.868
	s10.868-16.326,10.868-26.238C145.884,244.014,142.025,234.696,135.016,227.688z"/>
<path style="fill:#C8DA52;" d="M252.941,282.658c-11.301,0-21.926-4.401-29.917-12.392c-7.991-7.991-12.392-18.616-12.392-29.917
	s4.401-21.926,12.392-29.917s18.616-12.392,29.917-12.392s21.926,4.401,29.917,12.392s12.392,18.616,12.392,29.917
	s-4.401,21.926-12.392,29.917S264.242,282.658,252.941,282.658z"/>
<path style="fill:#90C23E;" d="M282.858,210.433c-7.991-7.991-18.615-12.392-29.917-12.392c-5.255,0-10.359,0.963-15.125,2.785
	c5.483,2.096,10.516,5.332,14.792,9.607C260.599,218.424,265,229.049,265,240.35s-4.401,21.925-12.392,29.916
	c-4.275,4.275-9.309,7.511-14.792,9.607c4.766,1.822,9.87,2.785,15.125,2.785c11.301,0,21.926-4.4,29.917-12.392
	c7.991-7.991,12.392-18.616,12.392-29.916S290.849,218.424,282.858,210.433z"/>
<path style="fill:#F04348;" d="M429.67,253.511l-23.852,23.852c-6.436,6.436-16.87,6.436-23.305,0l-23.852-23.852
	c-6.436-6.436-6.436-16.87,0-23.305l23.852-23.852c6.436-6.436,16.87-6.436,23.305,0l23.852,23.852
	C436.105,236.642,436.105,247.076,429.67,253.511z"/>
<path style="fill:#D83D49;" d="M429.67,230.206l-23.852-23.853c-6.436-6.436-16.87-6.436-23.305,0l-3.264,3.264l20.588,20.588
	c6.436,6.436,6.436,16.87,0,23.305l-20.589,20.59l3.264,3.264c6.436,6.436,16.87,6.436,23.305,0l23.852-23.853
	C436.105,247.076,436.105,236.642,429.67,230.206z"/>
<path style="fill:#DDDED2;" d="M314.364,258.709L314.364,258.709c-6.884-4.609-8.728-13.926-4.119-20.809L427.57,62.659
	c4.609-6.884,13.926-8.728,20.809-4.119l0,0c6.884,4.609,8.728,13.926,4.119,20.809l-117.325,175.24
	C330.564,261.473,321.248,263.317,314.364,258.709z"/>
<path style="fill:#FEBE40;" d="M371.736,275.003h-84.455c-5.126,0-9.281-4.155-9.281-9.281v-33.983c0-5.126,4.155-9.281,9.281-9.281
	h84.455c5.126,0,9.281,4.155,9.281,9.281v33.983C381.017,270.847,376.861,275.003,371.736,275.003z"/>
<path style="fill:#FC9642;" d="M371.736,222.458h-30c5.126,0,9.281,4.155,9.281,9.281v33.983c0,5.125-4.155,9.281-9.281,9.281h30
	c5.126,0,9.281-4.155,9.281-9.281v-33.983C381.017,226.613,376.861,222.458,371.736,222.458z"/>
<path style="fill:#F04348;" d="M227.458,248.219l-30.113,30.113c-8.125,8.125-21.298,8.125-29.423,0l-30.113-30.113
	c-8.125-8.125-8.125-21.298,0-29.423l30.113-30.113c8.125-8.125,21.298-8.125,29.423,0l30.113,30.113
	C235.582,226.921,235.582,240.094,227.458,248.219z"/>
<path style="fill:#D83D49;" d="M227.458,218.796l-30.113-30.113c-8.125-8.125-21.298-8.125-29.423,0l-0.414,0.414l29.699,29.699
	c8.125,8.125,8.125,21.298,0,29.423l-29.699,29.699l0.414,0.414c8.125,8.125,21.298,8.125,29.423,0l30.113-30.113
	C235.582,240.094,235.582,226.921,227.458,218.796z"/>
<path style="fill:#89CEEA;" d="M489.5,286.003h-467c-8.284,0-15-6.716-15-15l0,0c0-8.284,6.716-15,15-15h467c8.284,0,15,6.716,15,15
	l0,0C504.5,279.287,497.784,286.003,489.5,286.003z"/>
<path style="fill:#63B9DB;" d="M489.5,256.003h-30c8.284,0,15,6.716,15,15s-6.716,15-15,15h30c8.284,0,15-6.716,15-15
	S497.784,256.003,489.5,256.003z"/>
<path style="fill:#CAEEFC;" d="M345.088,456.003H166.912c-63.225,0-122.03-51.491-132.155-120.524L27.5,286.003h457l-7.256,49.476
	C467.119,404.511,408.313,456.003,345.088,456.003z"/>
<path style="fill:#89CEEA;" d="M453.75,286.003l-7.256,49.476c-10.125,69.033-68.931,120.524-132.155,120.524h30.75
	c63.225,0,122.03-51.491,132.155-120.524l7.256-49.476H453.75z"/>
<path d="M512,271.038c0-12.436-10.094-22.554-22.5-22.554h-48.434c0.612-2.139,0.934-4.374,0.934-6.66
	c0-6.421-2.495-12.458-7.026-16.999l-23.854-23.913c-7.646-7.653-19.211-9.037-28.288-4.168l75.895-113.623
	c2.495-3.723,3.814-8.06,3.814-12.543c0-7.551-3.734-14.564-9.985-18.755c-4.992-3.354-10.989-4.558-16.887-3.388
	c-5.898,1.17-10.988,4.573-14.33,9.581l-36.036,53.952c-2.304,3.451-1.382,8.12,2.06,10.43c3.443,2.308,8.101,1.386,10.405-2.065
	l36.037-53.955c1.114-1.669,2.811-2.804,4.775-3.193c1.966-0.39,3.963,0.012,5.631,1.133c2.085,1.398,3.33,3.738,3.33,6.26
	c0,1.485-0.438,2.922-1.272,4.167l-93.593,140.118h-18.047l45.34-67.882c2.304-3.451,1.382-8.12-2.06-10.43
	c-3.443-2.308-8.101-1.385-10.405,2.065l-50.928,76.248h-20.769c-2.125-3.59-4.681-6.895-7.643-9.858
	c-9.407-9.429-21.916-14.621-35.223-14.621c-11.709,0-22.805,4.031-31.721,11.433l-18.575-18.613
	c-11.028-11.057-28.983-11.057-40.026-0.001l-30.109,30.183c-0.555,0.557-1.077,1.137-1.579,1.729
	c-6.696-3.839-14.32-5.905-22.148-5.905c-11.916,0-23.118,4.652-31.539,13.094c-7.137,7.144-11.546,16.291-12.734,26.18H22.5
	c-12.407,0-22.5,10.118-22.5,22.554c0,11.934,9.297,21.728,21.012,22.499l6.324,43.222c5.109,34.921,22.357,67.186,48.566,90.852
	C101.89,451.077,134.211,464,166.912,464h178.176c36.67,0,73.151-16.516,100.091-45.312c2.834-3.029,2.681-7.786-0.341-10.626
	c-3.021-2.841-7.77-2.686-10.601,0.342c-24.115,25.776-56.608,40.561-89.149,40.561H166.912c-60.56,0-115.35-50.244-124.735-114.386
	l-5.997-40.986H64c4.142,0,7.5-3.365,7.5-7.518c0-4.152-3.358-7.518-7.5-7.518H22.5c-4.136,0-7.5-3.372-7.5-7.518
	s3.364-7.518,7.5-7.518h467c4.136,0,7.5,3.372,7.5,7.518s-3.364,7.518-7.5,7.518H96.25c-4.142,0-7.5,3.365-7.5,7.518
	c0,4.153,3.358,7.518,7.5,7.518h379.569l-5.997,40.986c-2.584,17.662-8.511,34.428-17.615,49.832
	c-2.111,3.572-0.935,8.184,2.629,10.3c1.2,0.713,2.517,1.051,3.816,1.051c2.562,0,5.059-1.317,6.459-3.687
	c10.105-17.097,16.684-35.707,19.553-55.315l6.324-43.223C502.703,292.766,512,282.973,512,271.038z M400.517,211.549l23.851,23.909
	c1.698,1.702,2.633,3.963,2.633,6.367c0,2.403-0.935,4.663-2.634,6.366l-0.294,0.295H388.52v-16.8c0-5.663-2.815-10.671-7.106-13.72
	l6.395-6.411C391.313,208.048,397.017,208.046,400.517,211.549z M285.5,231.685c0-0.984,0.799-1.785,1.78-1.785h4.006
	c0.009,0,0.018,0.002,0.028,0.002c0.012,0,0.024-0.002,0.036-0.002h29.209c0.005,0,0.009,0.001,0.014,0.001s0.011-0.001,0.016-0.001
	h36.07c0.005,0,0.009,0.001,0.014,0.001s0.011-0.001,0.016-0.001h15.051c0.981,0,1.779,0.801,1.779,1.785v16.8H285.5V231.685z
	 M252.94,205.422c9.3,0,18.043,3.629,24.625,10.225c0.475,0.474,0.929,0.966,1.374,1.464c-5.034,2.907-8.438,8.344-8.438,14.574
	v16.8h-33.753c6.817-10.95,5.495-25.584-3.984-35.098l-0.865-0.867C237.926,207.919,245.243,205.422,252.94,205.422z M173.22,193.84
	c5.191-5.197,13.633-5.199,18.817-0.002l30.116,30.178c5.185,5.204,5.185,13.671,0.003,18.872l-5.583,5.596h-67.876l-5.584-5.597
	c-3.74-3.749-4.914-9.357-2.981-14.305c0.662-1.708,1.665-3.243,2.982-4.563L173.22,193.84z M87.844,232.941
	c5.592-5.606,13.027-8.694,20.936-8.694c5.729,0,11.119,1.575,15.819,4.577c-1.125,6.813,0.271,13.811,3.918,19.66H79.669
	C80.745,242.628,83.55,237.239,87.844,232.941z"/>
<g>
</g>
<g>
</g>
<g>
</g>
<g>
</g>
<g>
</g>
<g>
</g>
<g>
</g>
<g>
</g>
<g>
</g>
<g>
</g>
<g>
</g>
<g>
</g>
<g>
</g>
<g>
</g>
<g>
</g>
</svg>
