<svg id="Layer_1" enable-background="new 0 0 512 512" height="512" viewBox="0 0 512 512" width="512" xmlns="http://www.w3.org/2000/svg"><g><g><path d="m166 209c-24.853 0-45-20.147-45-45v-50c0-24.853 20.147-45 45-45 24.853 0 45 20.147 45 45v50c0 24.853-20.147 45-45 45z" fill="#98ab2d"/><path d="m166 69c-5.261 0-10.307.911-15 2.571 17.476 6.179 30 22.838 30 42.429v50c0 19.592-12.524 36.251-30 42.429 4.693 1.659 9.739 2.571 15 2.571 24.853 0 45-20.147 45-45v-50c0-24.853-20.147-45-45-45z" fill="#83a322"/></g><g><path d="m137.4 252.812c-17.574 17.574-46.066 17.574-63.64 0l-35.355-35.355c-17.574-17.574-17.574-46.066 0-63.64 17.574-17.574 46.066-17.574 63.64 0l35.355 35.355c17.573 17.574 17.573 46.066 0 63.64z" fill="#98ab2d"/><path d="m38.405 153.817c-3.72 3.72-6.644 7.933-8.789 12.424 16.726-7.988 37.362-5.065 51.215 8.789l35.355 35.355c13.853 13.853 16.777 34.489 8.789 51.215 4.492-2.145 8.704-5.069 12.424-8.789 17.574-17.574 17.574-46.066 0-63.64l-35.355-35.355c-17.573-17.573-46.066-17.573-63.639.001z" fill="#83a322"/></g><path d="m195.617 377c-41.273 0-138.943-17.549-138.943-73.69s73-101.254 131-141.355 94-45.113 170-18.045 96 89.224 96 139.35-30.5 93.705-95.474 93.705c-34.923-.001-121.31.035-162.583.035z" fill="#bf6724"/><path d="m453.67 283.26c0 50.13-30.5 93.7-95.47 93.7-7.89 0-18.4 0-30.42.01.14-.01.28-.01.42-.01 64.97 0 95.47-43.57 95.47-93.7s-20-112.28-96-139.35c-24.36-8.68-44.61-14.05-62.8-16.04 31.017-3.722 63.237 5.512 92.8 16.04 76 27.07 96 89.22 96 139.35z" fill="#a35418"/><path d="m276.728 322.449s-57.403-3.719-44.963-59.29c9.764-43.617 97.91-59.298 135.384-64.026 9.215-1.163 17.606 5.445 18.728 14.731.887 7.346-3.065 14.424-9.771 17.449-10.765 4.856-26.58 16.527-35.978 44.387-15.263 45.241-38.436 49.181-63.4 46.749z" fill="#a35418"/><path d="m457.947 344.218c0 25.837-20.945 46.782-46.782 46.782s-46.782-20.945-46.782-46.782 20.945-39.397 46.782-39.397 46.782 13.56 46.782 39.397z" fill="#d35d3f"/><path d="m411.165 304.82c-5.249 0-10.29.569-15 1.678 18.477 4.348 31.782 17.131 31.782 37.72 0 20.588-13.305 38.057-31.782 44.311 4.71 1.594 9.751 2.471 15 2.471 25.837 0 46.782-20.945 46.782-46.782s-20.945-39.398-46.782-39.398z" fill="#c24b31"/><circle cx="174" cy="360" fill="#d35d3f" r="31"/><circle cx="78" cy="360" fill="#ffd54f" r="31"/><circle cx="124" cy="360" fill="#ff9800" r="31"/><circle cx="174" cy="360" fill="#d35d3f" r="31"/><path d="m484.5 407h-457c-11.046 0-20-8.954-20-20v-6c0-2.209 1.791-4 4-4h489c2.209 0 4 1.791 4 4v6c0 11.046-8.954 20-20 20z" fill="#fff7e6"/><path d="m500.5 377h-30c2.209 0 4 1.791 4 4v6c0 11.046-8.954 20-20 20h30c11.046 0 20-8.954 20-20v-6c0-2.209-1.791-4-4-4z" fill="#ebe3d4"/><path d="m398.393 443h-284.786c-9.337 0-18.432-2.97-25.97-8.481l-37.637-27.519h412l-37.637 27.519c-7.538 5.511-16.633 8.481-25.97 8.481z" fill="#ebe3d4"/><path d="m432 407-37.637 27.519c-7.537 5.511-16.632 8.481-25.97 8.481h30c9.337 0 18.432-2.97 25.97-8.481l37.637-27.519z" fill="#d9d2c4"/><g><path d="m224.446 261.521c-4.148 18.529-1.688 34.015 7.311 46.027 14.791 19.744 41.86 22.191 44.342 22.375 33.023 3.195 56.139-7.373 71.135-51.826 8.396-24.891 22.012-35.462 31.956-39.948 9.742-4.395 15.421-14.515 14.133-25.185-1.623-13.439-13.783-22.961-27.113-21.272-20.988 2.648-51.845 7.887-79.663 17.807-36.384 12.974-57.278 30.476-62.101 52.022zm143.641-54.947c.389-.049.776-.073 1.161-.073 4.536 0 8.597 3.417 9.182 8.263.498 4.125-1.676 8.028-5.409 9.713-12.661 5.711-29.878 18.818-40.001 48.826-14.205 42.109-34.39 43.746-55.565 41.682-.067-.006-.155-.013-.222-.018-.224-.016-22.547-1.746-33.52-16.477-6.21-8.337-7.768-19.672-4.629-33.692 4.514-20.164 31.042-33.518 52.501-41.17 27.945-9.966 59.926-14.962 76.502-17.054z"/><path d="m500.5 369.5h-41.562c4.104-7.736 6.512-16.294 6.512-25.28 0-10.825-3.312-20.229-9.166-27.759 3.068-10.447 4.886-21.511 4.886-33.201 0-30.391-7.089-58.768-20.5-82.064-17.147-29.786-44.226-51.437-80.483-64.351-11.842-4.218-22.32-7.528-32.035-10.119-4.004-1.067-8.112 1.311-9.18 5.313s1.312 8.112 5.313 9.18c9.317 2.485 19.414 5.676 30.868 9.756 79.192 28.207 91.017 94.987 91.017 132.284 0 7.75-1.053 15.081-2.579 22.185-8.765-5.175-19.741-8.125-32.421-8.125-32.473 0-54.29 18.848-54.29 46.9 0 8.986 2.407 17.544 6.512 25.28-82.8-.05-54.119-.017-152.274-.002.79-3.096 1.382-6.255 1.382-9.498 0-21.229-17.271-38.5-38.5-38.5-9.524 0-17.968 3.842-24.697 9.592-6.957-6.071-15.93-9.592-25.303-9.592-8.855 0-16.641 3.507-23.153 8.551-6.649-5.053-14.379-8.55-22.847-8.55-2.761 0-5.19 1.021-7.788 1.576-3.751-6.167-6.042-12.61-6.042-19.766 0-52.575 73.998-98.011 127.765-135.191 40.513-28.009 67.22-36.596 102.061-32.804 4.121.449 7.819-2.527 8.267-6.645s-2.527-7.819-6.645-8.267c-27.204-2.96-50.533 1.453-77.118 14.622v-21.025c0-29.015-23.48-52.5-52.5-52.5-28.949 0-52.5 23.551-52.5 52.5v40.672l-6.154-6.152c-20.496-20.519-53.73-20.522-74.25-.003-20.464 20.464-20.464 53.771 0 74.247l4.074 4.073c1.464 1.464 3.384 2.196 5.303 2.196s3.839-.732 5.304-2.197c2.929-2.929 2.928-7.678-.001-10.606l-4.072-4.071c-14.618-14.626-14.618-38.418-.001-53.035 14.648-14.648 38.389-14.662 53.034.001l33.692 33.683c-8.21 6.045-16.275 12.191-23.883 18.544l-9.441-9.441 4.328-14.068c1.218-3.959-1.004-8.156-4.963-9.374s-8.156 1.004-9.374 4.963l-1.993 6.477-10.282-10.282c-2.929-2.929-7.678-2.929-10.606 0-2.929 2.929-2.929 7.678 0 10.606l10.283 10.283-6.48 1.994c-3.959 1.218-6.181 5.415-4.963 9.374.992 3.225 3.96 5.296 7.166 5.296.73 0 1.474-.107 2.208-.333l14.071-4.329 8.896 8.896c-7.625 6.992-14.724 14.145-20.861 21.567l-4.15-4.149c-2.929-2.929-7.678-2.929-10.606.001-2.929 2.929-2.928 7.678.001 10.606l5.889 5.888c-9.986 15.037-16.499 30.89-16.499 47.983 0 9.158 2.922 17.605 7.369 25.599-10.035 6.956-17.039 17.983-17.039 31.091 0 3.244.592 6.404 1.382 9.5h-29.382c-6.341 0-11.5 5.159-11.5 11.5v6c0 15.164 12.336 27.5 27.5 27.5h20.051l35.66 26.073c8.882 6.495 19.393 9.927 30.396 9.927h238.448c4.142 0 7.5-3.358 7.5-7.5s-3.358-7.5-7.5-7.5h-238.448c-7.798 0-15.248-2.433-21.543-7.036l-19.099-13.964h366.07l-19.099 13.964c-6.295 4.603-13.744 7.036-21.542 7.036h-14.524c-4.142 0-7.5 3.358-7.5 7.5s3.358 7.5 7.5 7.5h14.524c11.003 0 21.514-3.433 30.396-9.927l35.66-26.073h20.05c15.164 0 27.5-12.336 27.5-27.5v-6c0-6.341-5.159-11.5-11.5-11.5zm-357.797-185.634-13.498-13.494c-.363-2.113-.705-4.238-.705-6.372v-50c0-20.678 16.822-37.5 37.5-37.5 20.725 0 37.5 16.771 37.5 37.5v29.386c-6.549 3.868-12.935 7.445-20.096 12.396-3.245 2.244-6.58 4.524-9.904 6.801v-18.067l13.009-6.887c3.661-1.938 5.057-6.477 3.119-10.138-1.937-3.66-6.475-5.058-10.138-3.119l-5.991 3.172v-14.544c0-4.142-3.358-7.5-7.5-7.5s-7.5 3.358-7.5 7.5v14.543l-5.991-3.172c-3.66-1.938-8.2-.542-10.138 3.119s-.542 8.2 3.119 10.138l13.009 6.887v18.121l-5.991-3.172c-3.66-1.938-8.2-.542-10.138 3.119s-.542 8.2 3.119 10.138l7.515 3.978c-3.44 2.385-6.819 4.799-10.248 7.228-.017-.018-.033-.042-.052-.061zm229.177 160.354c0-15.422 10.321-31.9 39.29-31.9 28.961 0 39.28 16.479 39.28 31.9 0 9.438-3.694 18.17-9.779 25.28h-59.013c-6.084-7.109-9.778-15.842-9.778-25.28zm-197.88-7.72c12.958 0 23.5 10.542 23.5 23.5 0 3.389-1.446 6.457-2.832 9.5h-41.336c-1.386-3.043-2.832-6.111-2.832-9.5 0-12.958 10.542-23.5 23.5-23.5zm-34.325 6.832c-2.492 5.094-4.175 10.625-4.175 16.668 0 3.244.592 6.404 1.382 9.5h-33.55c-1.386-3.043-2.832-6.111-2.832-9.5 0-12.958 10.542-23.5 23.5-23.5 5.985 0 11.354 2.801 15.675 6.832zm-85.175 16.668c0-12.958 10.542-23.5 23.5-23.5 4.836 0 9.245 1.925 13.151 4.644-3.271 5.658-5.651 11.865-5.651 18.856 0 3.244.592 6.404 1.382 9.5h-29.55c-1.386-3.043-2.832-6.111-2.832-9.5zm442.5 27c0 6.893-5.607 12.5-12.5 12.5h-457c-6.893 0-12.5-5.607-12.5-12.5v-2.5h37.075c.001 0 .001.001.002.001s.002-.001.003-.001h45.995c.001 0 .001.001.002.001s.002-.001.003-.001h49.995c.001 0 .001.001.002.001s.002-.001.003-.001h348.92z"/></g></g></svg>