<svg height="511pt" viewBox="-128 0 511 511.99955" width="511pt" xmlns="http://www.w3.org/2000/svg"><path d="m104.191406 55.597656c-44.269531 0-80.160156 35.890625-80.160156 80.160156h160.324219c-.003907-44.269531-35.890625-80.160156-80.164063-80.160156zm0 0" fill="#cdf5a0"/><path d="m104.191406 464.417969c-27.734375 0-50.769531 14.375-55.300781 33.257812-.84375 3.503907 2.0625 6.824219 5.667969 6.824219h99.269531c3.605469 0 6.507813-3.320312 5.667969-6.824219-4.535156-18.882812-27.570313-33.257812-55.304688-33.257812zm0 0" fill="#dcebff"/><path d="m112.207031 464.417969h-16.03125c-8.851562 0-16.03125-7.175781-16.03125-16.03125 0-8.851563 7.179688-16.03125 16.03125-16.03125h16.03125c8.855469 0 16.035157 7.179687 16.035157 16.03125 0 8.855469-7.179688 16.03125-16.035157 16.03125zm0 0" fill="#dcebff"/><path d="m184.351562 151.792969c-16.03125 88.175781 16.035157 120.238281 16.035157 184.367187 0 53.128906-43.066407 96.195313-96.195313 96.195313-53.125 0-96.195312-43.066407-96.195312-96.195313 0-64.128906 32.066406-96.191406 16.035156-184.367187zm0 0" fill="#fff"/><path d="m56.09375 336.160156c0-48.492187 9.152344-78.6875 10.152344-128.648437.261718-13.109375 10.914062-23.65625 24.027344-23.65625h90.105468c.625-9.867188 1.863282-20.457031 3.972656-32.066407h-160.320312c16.902344 92.972657-19.660156 123.5625-15.734375 195.128907 2.730469 49.789062 46.078125 87.601562 95.894531 85.4375h.011719l-.011719-.003907c-26.5625.003907-48.097656-43.066406-48.097656-96.191406zm0 0" fill="#dcebff"/><path d="m80.144531 448.386719c0 8.855469 7.175781 16.03125 16.03125 16.03125h8.015625v-32.0625h-8.015625c-8.855469 0-16.03125 7.175781-16.03125 16.03125zm0 0" fill="#c4deff"/><path d="m104.191406 464.417969c-27.734375 0-50.769531 14.375-55.300781 33.257812-.84375 3.503907 2.0625 6.824219 5.667969 6.824219h49.632812zm0 0" fill="#c4deff"/><path d="m183.496094 119.726562h-103.507813c-12.039062 0-19.375-13.007812-13.4375-23.480468 11.234375-19.8125 30.648438-34.363282 53.671875-39.039063-5.179687-1.050781-10.539062-1.609375-16.03125-1.609375-38.78125 0-71.121094 27.539063-78.550781 64.128906h-.75c-7.988281 0-15.390625 5.457032-16.671875 13.339844-1.632812 10.042969 6.074219 18.726563 15.8125 18.726563h160.324219c9.734375 0 17.445312-8.683594 15.8125-18.726563-1.285157-7.882812-8.6875-13.339844-16.671875-13.339844zm0 0" fill="#b4e6a0"/><path d="m180.910156 219.929688c-1.851562-19.109376-1.5-40.945313 3.441406-68.140626h-160.320312c4.945312 27.195313 5.296875 49.03125 3.441406 68.140626 6.386719 2.003906 12.773438 4.007812 25.542969 4.007812 25.570313 0 25.570313-8.015625 51.140625-8.015625 25.585938 0 25.585938 8.015625 51.171875 8.015625 12.792969 0 19.1875-2.003906 25.582031-4.007812zm0 0" fill="#cdf5a0"/><path d="m184.351562 151.792969h-160.320312c4.878906 26.828125 5.226562 48.375 3.460938 67.296875-.023438.265625.007812.582031-.019532.839844 6.386719 2.003906 12.773438 4.007812 25.542969 4.007812 5.097656 0 9.152344-.328125 12.625-.835938.277344-5.007812.496094-10.164062.605469-15.589843.261718-13.105469 10.914062-23.65625 24.027344-23.65625h90.105468c.625-9.867188 1.863282-20.457031 3.972656-32.0625zm0 0" fill="#b4e6a0"/><path d="m187.84375 259.390625c-2.980469-12.667969-5.664062-25.839844-7.019531-40.65625-6.214844 2.648437-12.652344 5.199219-25.0625 5.199219-25.804688 0-25.804688-11.019532-51.601563-11.019532-25.785156 0-25.785156 11.019532-51.570312 11.019532-12.394532 0-18.824219-2.550782-25.027344-5.199219-1.359375 14.808594-4.039062 27.980469-7.019531 40.644531 7.585937 2.191406 14.304687 4.636719 29.308593 4.636719 27.160157 0 27.160157-8.015625 54.320313-8.015625 27.183594 0 27.183594 8.015625 54.359375 8.015625 15 0 21.734375-2.4375 29.3125-4.625zm0 0" fill="#ffe17d"/><path d="m61.886719 263.355469c1.53125-12.761719 2.96875-25.921875 3.773437-40.644531-3.574218.742187-7.753906 1.226562-13.066406 1.226562-12.398438 0-18.824219-2.554688-25.03125-5.203125-1.359375 14.8125-4.039062 27.980469-7.019531 40.644531 7.585937 2.191406 14.308593 4.636719 29.308593 4.636719 4.761719 0 8.652344-.253906 12.035157-.660156zm0 0" fill="#ffd164"/><path d="m104.191406 432.355469c41.566406 0 76.871094-26.414063 90.3125-63.332031-14.214844 2.023437-18.261718 7.21875-38.953125 7.21875-25.679687 0-25.679687-8.015626-51.359375-8.015626-25.660156 0-25.660156 8.015626-51.324218 8.015626-20.703126 0-24.71875-5.21875-38.988282-7.230469 13.4375 36.925781 48.742188 63.34375 90.3125 63.34375zm0 0" fill="#ff9ba0"/><path d="m104.191406 432.355469c-19.457031 0-36.175781-23.15625-43.75-56.398438-2.273437.171875-4.746094.285157-7.574218.285157-20.703126 0-24.722657-5.21875-38.988282-7.230469 13.4375 36.925781 48.742188 63.34375 90.3125 63.34375h.011719zm0 0" fill="#ff8087"/><path d="m255.859375 6.160156c-.738281-4.074218-4.644531-6.78125-8.71875-6.039062l-79.453125 14.449218c-8.019531 1.457032-14.613281 6.84375-17.640625 14.410157l-10.621094 26.558593c-10.859375-4.792968-22.804687-7.441406-35.234375-7.441406-39.589844 0-74.277344 26.820313-84.570312 64.542969-10.875 2.070313-19.121094 11.648437-19.121094 23.117187 0 10.730469 7.222656 19.800782 17.058594 22.621094 8.011718 48.957032.449218 79.980469-6.878906 110.011719-5.003907 20.507813-10.179688 41.710937-10.179688 67.769531 0 47.472656 32.066406 87.59375 75.675781 99.84375-2.234375 3.601563-3.53125 7.84375-3.53125 12.382813 0 4.871093 1.488281 9.402343 4.035157 13.160156-6.019532 2.144531-11.601563 4.992187-16.523438 8.507813-12.625 9.019531-19.574219 21.25-19.574219 34.445312 0 4.140625 3.355469 7.5 7.5 7.5h112.222657c4.144531 0 7.5-3.359375 7.5-7.5 0-13.195312-6.949219-25.429688-19.574219-34.445312-4.921875-3.515626-10.503907-6.363282-16.523438-8.507813 2.546875-3.757813 4.035157-8.289063 4.035157-13.160156 0-4.539063-1.296876-8.78125-3.53125-12.382813 43.609374-12.25 75.675781-52.371094 75.675781-99.84375 0-26.058594-5.175781-47.265625-10.179688-67.769531-7.328125-30.03125-14.894531-61.058594-6.875-110.011719 9.835938-2.820312 17.054688-11.890625 17.054688-22.621094 0-11.46875-8.246094-21.046874-19.121094-23.117187-5.683594-20.832031-18.8125-38.324219-36.09375-49.824219l11.304687-28.265625c1.097657-2.742187 3.488282-4.695312 6.398438-5.222656l79.453125-14.449219c4.070313-.738281 6.773437-4.644531 6.03125-8.71875zm-83.050781 207.03125c-5.382813 1.78125-10.445313 3.246094-20.546875 3.246094-10.8125 0-15.855469-1.679688-21.691407-3.625-6.179687-2.058594-13.183593-4.394531-26.433593-4.394531-13.238281 0-20.238281 2.335937-26.417969 4.394531-5.832031 1.945312-10.867188 3.621094-21.671875 3.621094-10.058594 0-15.113281-1.457032-20.472656-3.230469 1.003906-15.675781.480469-33.238281-2.683594-53.914063h142.601563c-3.164063 20.671876-3.683594 38.230469-2.683594 53.902344zm-21.363282 283.808594h-94.507812c5.210938-14.1875 24.738281-25.082031 47.253906-25.082031s42.046875 10.894531 47.253906 25.082031zm-39.238281-57.144531c4.707031 0 8.535157 3.828125 8.535157 8.53125s-3.828126 8.53125-8.535157 8.53125h-16.03125c-4.703125 0-8.53125-3.828125-8.53125-8.53125s3.828125-8.53125 8.53125-8.53125zm-8.015625-15c-33.703125 0-63.074218-18.898438-78.078125-46.65625 1.175781.363281 2.335938.75 3.535157 1.148437 6.171874 2.058594 13.167968 4.394532 26.398437 4.394532 13.242187 0 20.242187-2.335938 26.417969-4.394532 5.832031-1.941406 10.867187-3.621094 21.671875-3.621094 10.816406 0 15.855469 1.679688 21.691406 3.625 6.179687 2.058594 13.183594 4.390626 26.433594 4.390626 13.246093 0 20.25-2.332032 26.433593-4.390626 1.21875-.40625 2.390626-.796874 3.582032-1.160156-15.003906 27.761719-44.375 46.664063-78.085938 46.664063zm85.035156-63.476563c-6.554687.839844-11.160156 2.371094-15.273437 3.738282-5.835937 1.945312-10.875 3.625-21.691406 3.625-10.8125 0-15.855469-1.679688-21.691407-3.625-6.179687-2.058594-13.183593-4.390626-26.433593-4.390626-13.238281 0-20.238281 2.332032-26.414063 4.390626-5.832031 1.945312-10.867187 3.625-21.675781 3.625-10.792969 0-15.824219-1.679688-21.648437-3.625-4.117188-1.371094-8.695313-2.894532-15.238282-3.738282-2.378906-7.996094-3.660156-16.460937-3.660156-25.21875 0-24.253906 4.734375-43.664062 9.75-64.214844.472656-1.925781.941406-3.855468 1.410156-5.792968.996094.3125 1.988282.636718 2.992188.96875 6.171875 2.0625 13.164062 4.394531 26.394531 4.394531 13.242187 0 20.242187-2.332031 26.417969-4.390625 5.832031-1.945312 10.867187-3.625 21.671875-3.625 5.710937 0 10.371093.480469 14.664062 1.515625 4.027344.964844 8.078125-1.511719 9.042969-5.542969.96875-4.027344-1.511719-8.074218-5.539062-9.042968-5.472657-1.316407-11.246094-1.929688-18.167969-1.929688-13.238281 0-20.238281 2.335938-26.414063 4.394531-5.832031 1.945313-10.867187 3.621094-21.675781 3.621094-10.792969 0-15.824219-1.675781-21.648437-3.621094-1.40625-.46875-2.839844-.945312-4.359376-1.402343 1.578126-7.355469 2.988282-14.964844 4.042969-23.027344 5.273438 1.582031 11.761719 2.972656 21.96875 2.972656 13.238281 0 20.238281-2.335938 26.414063-4.394531 5.832031-1.945313 10.871094-3.621094 21.675781-3.621094 10.8125 0 15.855469 1.675781 21.691406 3.621094 6.179688 2.058593 13.183594 4.394531 26.429688 4.394531 10.25 0 16.753906-1.398438 22.039062-2.984375 1.058594 8.0625 2.46875 15.671875 4.046875 23.027344-1.535156.460937-2.976562.941406-4.394531 1.414062-5.835937 1.945313-10.875 3.625-21.691406 3.625-4.140625 0-7.5 3.355469-7.5 7.5 0 4.140625 3.359375 7.5 7.5 7.5 13.25 0 20.253906-2.335937 26.433593-4.394531 1.019532-.339844 2.019532-.667969 3.027344-.984375.472656 1.945313.941406 3.875 1.414063 5.804687 5.015625 20.550782 9.75 39.960938 9.75 64.21875 0 8.753907-1.285157 17.21875-3.660157 25.214844zm-13.832031-240.160156c.707031 3.496094 3.78125 6.007812 7.347657 6.007812h1.609374c4.707032 0 8.535157 3.828126 8.535157 8.53125 0 4.707032-3.828125 8.535157-8.535157 8.535157h-160.320312c-4.703125 0-8.53125-3.828125-8.53125-8.535157 0-4.703124 3.828125-8.53125 8.53125-8.53125h24.046875c4.144531 0 7.5-3.359374 7.5-7.5 0-4.140624-3.355469-7.5-7.5-7.5h-12.640625c9.910156-28.949218 37.484375-49.128906 68.753906-49.128906 34.421875 0 64.363282 24.441406 71.203125 58.121094zm0 0"/></svg>