<svg height="511pt" viewBox="-116 1 511 511.999" width="511pt" xmlns="http://www.w3.org/2000/svg"><path d="m176.371094 95.675781h-64.195313c-8.835937 0-16-7.160156-16-16v-.0625c0-8.839843 7.164063-16 16-16h64.195313c8.835937 0 16 7.160157 16 16v.0625c0 8.839844-7.164063 16-16 16zm0 0" fill="#ff9a9f"/><path d="m120.226562 63.613281h-8.015624c-8.855469 0-16.035157 7.175781-16.035157 16.03125s7.179688 16.03125 16.035157 16.03125h64.128906c8.851562 0 16.03125-7.175781 16.03125-16.03125h-56.113282c-8.855468 0-16.03125-7.175781-16.03125-16.03125zm0 0" fill="#ff8086"/><path d="m224.484375 183.855469h-160.421875c-13.253906 0-24-10.746094-24-24v-.097657c0-13.253906 10.746094-24 24-24h160.421875c13.253906 0 24 10.746094 24 24v.097657c0 13.253906-10.746094 24-24 24zm0 0" fill="#ff9a9f"/><path d="m96.175781 135.757812h-32.0625c-13.285156 0-24.050781 10.765626-24.050781 24.046876 0 13.285156 10.769531 24.050781 24.050781 24.050781h160.320313c13.28125 0 24.050781-10.769531 24.050781-24.050781h-128.257813c-13.28125 0-24.050781-10.765626-24.050781-24.046876zm0 0" fill="#ff8086"/><path d="m168.320312 440.371094c0 13.28125-10.765624 24.046875-24.046874 24.046875s-24.046876-10.765625-24.046876-24.046875 10.765626-24.046875 24.046876-24.046875 24.046874 10.765625 24.046874 24.046875zm0 0" fill="#dbeaff"/><path d="m168.320312 39.566406c0 13.28125-10.765624 24.046875-24.046874 24.046875s-24.046876-10.765625-24.046876-24.046875 10.765626-24.050781 24.046876-24.050781 24.046874 10.769531 24.046874 24.050781zm0 0" fill="#6f6571"/><path d="m156.296875 452.394531c-13.28125 0-24.046875-10.765625-24.046875-24.046875 0-3.523437.800781-6.847656 2.160156-9.863281-8.347656 3.773437-14.183594 12.128906-14.183594 21.886719 0 13.28125 10.765626 24.046875 24.046876 24.046875 9.757812 0 18.117187-5.835938 21.886718-14.183594-3.015625 1.359375-6.339844 2.160156-9.863281 2.160156zm0 0" fill="#c3ddff"/><path d="m160.304688 464.417969h-32.0625c-18.671876 0-34.363282 12.769531-38.816407 30.050781-1.308593 5.070312 2.574219 10.03125 7.808594 10.03125h94.074219c5.238281 0 9.117187-4.960938 7.8125-10.03125-4.453125-17.28125-20.144532-30.050781-38.816406-30.050781zm0 0" fill="#dbeaff"/><path d="m197.027344 488.46875h-57.269532c-12.214843 0-19.863281-13.964844-12.582031-23.769531l.148438-.203125c-18.167969.417968-33.371094 12.859375-37.832031 29.726562-1.367188 5.164063 2.398437 10.277344 7.746093 10.277344h94.074219c5.097656 0 9.117188-4.726562 7.898438-9.675781-.542969-2.203125-1.292969-4.316407-2.183594-6.355469zm0 0" fill="#c3ddff"/><path d="m196.417969 135.757812h-104.289063c-11.046875 0-20-8.953124-20-20v-.082031c0-11.042969 8.953125-20 20-20h104.289063c11.046875 0 20 8.957031 20 20v.082031c0 11.046876-8.953125 20-20 20zm0 0" fill="#ff9a9f"/><path d="m132.25 119.726562c-11.070312 0-20.039062-8.972656-20.039062-20.039062 0-1.375.140624-2.714844.402343-4.007812h-20.445312c-11.066407 0-20.039063 8.96875-20.039063 20.039062 0 11.066406 8.972656 20.039062 20.039063 20.039062h104.210937c9.695313 0 17.78125-6.886718 19.636719-16.03125zm0 0" fill="#ff8086"/><path d="m156.296875 51.589844c-13.28125 0-24.046875-10.769532-24.046875-24.050782 0-3.523437.800781-6.84375 2.160156-9.859374-8.347656 3.769531-14.183594 12.128906-14.183594 21.886718 0 13.28125 10.765626 24.046875 24.046876 24.046875 9.757812 0 18.117187-5.835937 21.886718-14.1875-3.015625 1.363281-6.339844 2.164063-9.863281 2.164063zm0 0" fill="#5d5360"/><path d="m16.015625 183.855469c9.40625 0 17.585937 6.441406 19.792969 15.582031l39.1875 162.34375c7.722656 31.996094 36.355468 54.539062 69.273437 54.539062h.003907v-232.464843zm0 0" fill="#e5646e"/><path d="m272.53125 183.855469c-9.402344 0-17.585938 6.441406-19.792969 15.582031l-39.183593 162.34375c-7.726563 31.996094-36.355469 54.539062-69.273438 54.539062h-.003906v-232.464843zm0 0" fill="#ff9a9f"/><path d="m96.820312 199.4375 17.144532 162.34375c3.378906 31.996094 15.90625 54.539062 30.308594 54.539062h.003906c14.398437 0 26.925781-22.542968 30.304687-54.539062l17.144531-162.34375c.964844-9.140625 4.546876-15.582031 8.660157-15.582031h-112.226563c4.117188 0 7.695313 6.441406 8.660156 15.582031zm0 0" fill="#ff8086"/><path d="m272.53125 176.355469h-21.246094c2.976563-4.824219 4.699219-10.503907 4.699219-16.597657 0-17.367187-14.132813-31.5-31.5-31.5h-3.597656c1.933593-3.765624 3.03125-8.023437 3.03125-12.539062 0-14.5625-11.359375-26.511719-25.683594-27.472656 1.050781-2.667969 1.636719-5.566406 1.636719-8.601563 0-12.976562-10.558594-23.53125-23.53125-23.53125h-5.21875c2.976562-4.8125 4.703125-10.484375 4.703125-16.546875 0-17.398437-14.152344-31.550781-31.550781-31.550781-17.394532 0-31.546876 14.152344-31.546876 31.546875 0 6.066406 1.722657 11.734375 4.703126 16.550781h-5.21875c-6.707032 0-12.757813 2.820313-17.050782 7.335938l-12.574218-46.109375c-2.785157-10.207032-12.121094-17.339844-22.703126-17.339844h-51.882812c-4.140625 0-7.5 3.359375-7.5 7.5s3.359375 7.5 7.5 7.5h51.882812c3.835938 0 7.222657 2.585938 8.230469 6.289062l18.402344 67.472657c-12.480469 2.617187-21.886719 13.707031-21.886719 26.957031 0 4.515625 1.097656 8.773438 3.035156 12.539062h-3.597656c-17.371094 0-31.5 14.132813-31.5 31.597657 0 6.046875 1.714844 11.699219 4.679688 16.5h-21.230469c-4.140625 0-7.5 3.359375-7.5 7.5s3.359375 7.5 7.5 7.5c5.964844 0 11.105469 4.046875 12.503906 9.84375l39.1875 162.339843c6.597657 27.351563 26.8125 48.328126 52.449219 56.523438-4.632812 5.492188-7.429688 12.578125-7.429688 20.308594 0 6.523437 1.988282 12.589844 5.394532 17.625-21.382813 4.625-37.460938 23.6875-37.460938 46.503906 0 4.140625 3.359375 7.5 7.5 7.5h112.226563c4.144531 0 7.5-3.4375 7.5-7.582031 0-22.746094-16.074219-41.800781-37.457031-46.421875 3.402343-5.035156 5.394531-11.101563 5.394531-17.625 0-7.730469-2.800781-14.816406-7.429688-20.308594 25.632813-8.191406 45.847657-29.171875 52.449219-56.523438l39.1875-162.34375c1.398438-5.792968 6.539062-9.839843 12.5-9.839843 4.144531 0 7.5-3.359375 7.5-7.5 0-4.144531-3.359375-7.5-7.5-7.5zm-128.257812-153.339844c9.125 0 16.550781 7.421875 16.550781 16.546875s-7.425781 16.550781-16.550781 16.550781-16.546876-7.425781-16.546876-16.550781 7.421876-16.546875 16.546876-16.546875zm-52.105469 80.160156h52.105469c4.144531 0 7.5-3.355469 7.5-7.5 0-4.140625-3.355469-7.5-7.5-7.5h-32.0625c-4.707032 0-8.53125-3.828125-8.53125-8.53125s3.828124-8.53125 8.53125-8.53125h64.128906c4.703125 0 8.53125 3.828125 8.53125 8.53125s-3.828125 8.53125-8.53125 8.53125c-4.140625 0-7.5 3.359375-7.5 7.5 0 4.144531 3.359375 7.5 7.5 7.5h20.039062c6.917969 0 12.542969 5.625 12.542969 12.542969 0 6.910156-5.621094 12.535156-12.53125 12.539062h-104.230469c-6.910156-.003906-12.53125-5.628906-12.53125-12.539062 0-6.914062 5.625-12.542969 12.539063-12.542969zm-28.101563 40.082031h160.417969c9.097656 0 16.5 7.402344 16.5 16.597657 0 9.097656-7.402344 16.5-16.5 16.5h-160.417969c-9.101562 0-16.5-7.402344-16.5-16.597657 0-9.097656 7.398438-16.5 16.5-16.5zm127.964844 353.742188h-95.515625c3.363281-14.355469 16.277344-25.082031 31.644531-25.082031h32.226563c15.367187 0 28.28125 10.726562 31.644531 25.082031zm-64.304688-56.628906c0-9.125 7.421876-16.546875 16.546876-16.546875s16.546874 7.421875 16.546874 16.546875-7.421874 16.546875-16.546874 16.546875-16.546876-7.421875-16.546876-16.546875zm39.398438-79.378906c-3.121094 29.542968-14.289062 47.828124-22.851562 47.832031-8.5625-.003907-19.730469-18.289063-22.851563-47.832031l-13.710937-129.824219c-.433594-4.121094-4.128907-7.109375-8.246094-6.671875-4.117188.433594-7.105469 4.125-6.667969 8.246094l13.707031 129.824218c1.710938 16.195313 5.632813 30.035156 11.09375 40.445313-17.308594-7.945313-30.597656-23.460938-35.3125-42.992188l-39.1875-162.339843c-.539062-2.238282-1.335937-4.355469-2.355468-6.324219h46.066406c.726562 1.097656 2.023437 3.871093 2.554687 8.871093.40625 3.851563 3.660157 6.714844 7.445313 6.714844.265625 0 .53125-.015625.800781-.042968 4.117187-.433594 7.105469-4.128907 6.667969-8.246094-.277344-2.625-.742188-5.0625-1.363282-7.296875h82.71875c-.621093 2.238281-1.085937 4.671875-1.363281 7.296875zm78.324219-163.3125-39.1875 162.339843c-4.714844 19.527344-18 35.042969-35.308594 42.988281 5.457031-10.410156 9.378906-24.246093 11.089844-40.441406l17.140625-162.339844c.53125-5 1.828125-7.773437 2.554687-8.871093h46.066407c-1.019532 1.96875-1.816407 4.085937-2.355469 6.324219zm0 0"/></svg>