<svg id="Layer_1" enable-background="new 0 0 512 512" height="512" viewBox="0 0 512 512" width="512" xmlns="http://www.w3.org/2000/svg"><g><path d="m418 151v176c0 38.66-31.34 70-70 70h-43.041c-18.319 0-33.169 14.85-33.169 33.169v44.331h-30v-44.331c0-18.319-14.85-33.169-33.169-33.169h-44.621c-38.66 0-70-31.34-70-70v-176z" fill="#bdf9ff"/><g fill="#8cf2ff"><path d="m241.79 430.169v44.331h30v-44.331c0-18.319 14.85-33.169 33.169-33.169h-30c-18.319 0-33.169 14.85-33.169 33.169z"/><path d="m388 151v176c0 38.66-31.34 70-70 70h30c38.66 0 70-31.34 70-70v-176z"/></g><path d="m348 397h-184c-38.66 0-70-31.34-70-70v-133.5h324v133.5c0 38.66-31.34 70-70 70z" fill="#bf6724"/><path d="m388 193.5v133.5c0 38.66-31.34 70-70 70h30c38.66 0 70-31.34 70-70v-133.5z" fill="#a35418"/><path d="m93 193.5h325v75h-325z" fill="#ffca28"/><path d="m388 193.5h30v75h-30z" fill="#ffb300"/><path d="m161 496.5c0-12.15 9.85-22 22-22h146c12.15 0 22 9.85 22 22 0 4.418-3.582 8-8 8h-174c-4.418 0-8-3.582-8-8z" fill="#8cf2ff"/><path d="m329 474.5h-30c12.15 0 22 9.85 22 22 0 4.418-3.582 8-8 8h30c4.418 0 8-3.582 8-8 0-12.15-9.85-22-22-22z" fill="#63e9ff"/><path d="m357.562 125.578c24.622-46.964-23.853-59.975-23.853-59.975s.59-1.968.82-2.951c10.235-43.042-38.296-53.992-50.122-55.133-1.543-.149-3.041.611-3.811 1.955-35.22 61.441-118.686 43.544-128.387 97.974-1.166 6.516.32 12.291 3.613 17.159-10.216 6.751-16.82 18.34-16.82 31.303 0 20.75 16.872 37.59 37.676 37.59h158.646c36.465 0 51.474-46.621 22.238-67.922z" fill="#cf323d"/><path d="m357.562 125.578c24.622-46.964-23.853-59.975-23.853-59.975s.59-1.968.82-2.951c10.235-43.042-38.296-53.992-50.122-55.133-1.543-.149-3.041.61-3.811 1.955-.89 1.553-1.819 3.042-2.768 4.495 16.311 7.221 33.143 21.596 26.702 48.683-.231.984-.82 2.951-.82 2.951s48.475 13.011 23.853 59.975c29.237 21.301 14.228 67.922-22.239 67.922h30c36.465 0 51.474-46.621 22.238-67.922z" fill="#c22e39"/><g><path d="m176.141 122.678c.51 3.763 3.728 6.493 7.423 6.493.335 0 .675-.022 1.017-.069 71.768-9.731 114.845-33.863 130.035-43.788 3.468-2.266 4.442-6.913 2.177-10.381-2.266-3.468-6.915-4.442-10.381-2.176-14.337 9.367-55.106 32.16-123.846 41.481-4.105.558-6.982 4.336-6.425 8.44z"/><path d="m418 215.578c4.142 0 7.5-3.357 7.5-7.5v-57.077c0-4.143-3.358-7.5-7.5-7.5h-39.13c-2.106-7.456-6.187-14.316-12.03-19.917 6.225-14.232 6.883-27.132 1.943-38.409-5.906-13.484-18.375-20.831-26.228-24.282 2.381-13.24.002-24.962-7.091-34.886-16.008-22.397-48.943-25.817-50.335-25.951-4.478-.445-8.812 1.8-11.041 5.69-8.712 15.197-21.496 26.632-40.23 35.983-3.706 1.851-5.211 6.354-3.361 10.061 1.85 3.706 6.354 5.211 10.06 3.36 20.67-10.317 35.137-23.032 45.333-39.887 9.004 1.356 28.185 6.613 37.371 19.466 6.154 8.61 6.288 18.626 3.263 28.721-1.191 3.976 1.109 8.258 5.215 9.392.174.048 17.498 4.966 23.338 18.428 3.607 8.313 2.208 18.685-4.158 30.828-1.727 3.293-.779 7.354 2.226 9.544 4.76 3.468 7.922 7.566 9.855 11.86h-213.83c2.294-5.068 5.989-9.467 10.785-12.637 3.469-2.29 4.423-6.991 2.078-10.459-2.407-3.559-3.206-7.365-2.441-11.641 3.966-22.252 21.869-30.07 50.752-40.983 3.875-1.464 5.829-5.792 4.365-9.666-1.464-3.875-5.792-5.832-9.667-4.365-26.821 10.134-54.556 20.612-60.217 52.377-1.016 5.676-.5 11.236 1.483 16.388-6.271 5.662-10.78 12.936-13.077 20.986h-39.231c-4.142 0-7.5 3.357-7.5 7.5v175.999c0 14.886 4.233 29.347 12.242 41.819 2.244 3.495 6.884 4.492 10.363 2.26 3.485-2.238 4.497-6.878 2.259-10.363-6.453-10.051-9.864-21.709-9.864-33.716v-51h309v51c0 34.463-28.038 62.5-62.5 62.5h-184c-11.414 0-22.579-3.104-32.289-8.975-3.544-2.141-8.156-1.007-10.299 2.537-2.143 3.545-1.007 8.155 2.537 10.299 12.052 7.287 25.901 11.139 40.05 11.139h44.621c14.154 0 25.669 11.515 25.669 25.669v36.83h-51.289c-16.267 0-29.5 13.233-29.5 29.5 0 8.547 6.953 15.5 15.5 15.5h174c8.547 0 15.5-6.953 15.5-15.5 0-16.267-13.233-29.5-29.5-29.5h-49.71v-36.831c0-14.154 11.515-25.669 25.669-25.669h43.041c42.734 0 77.5-34.766 77.5-77.5v-87.23c0-4.143-3.358-7.5-7.5-7.5s-7.5 3.357-7.5 7.5v21.23h-309v-60h309v7.077c0 4.144 3.358 7.501 7.5 7.501zm-74.5 280.922c0 .275-.224.5-.5.5h-174c-.276 0-.5-.225-.5-.5 0-7.995 6.505-14.5 14.5-14.5h146c7.995 0 14.5 6.505 14.5 14.5zm-79.21-66.331v36.831h-15v-36.831c0-9.725-3.432-18.663-9.147-25.669h33.295c-5.716 7.006-9.148 15.944-9.148 25.669zm-162.79-271.668h30.075c.601 10.535 4.842 20.114 11.485 27.5h-41.56zm75.176 27.5c-15.764 0-28.744-12.116-30.065-27.5h218.738c-.234 2.363-.724 4.629-1.405 6.72-3.271 10.046-12.508 20.78-28.622 20.78zm192.4 0c3.997-4.544 7.128-9.986 9.131-16.135 1.23-3.778 1.961-7.591 2.214-11.365h30.079v27.5z"/></g></g></svg>