<?xml version="1.0" encoding="iso-8859-1"?>
<!-- Generator: Adobe Illustrator 19.0.0, SVG Export Plug-In . SVG Version: 6.00 Build 0)  -->
<svg version="1.1" id="Layer_1" xmlns="http://www.w3.org/2000/svg" xmlns:xlink="http://www.w3.org/1999/xlink" x="0px" y="0px"
	 viewBox="0 0 512 512" style="enable-background:new 0 0 512 512;" xml:space="preserve">
<path style="fill:#9AD14B;" d="M373.595,318.25h-5.852c-53.804,0-91.298,53.418-73.021,104.019l16.618,45.996
	c4.965,13.711,15.165,24.452,27.873,30.278c5.197,2.392,10.779,3.627,16.4,3.782H180.49c19.255,0,34.87-15.602,34.87-34.87v-30.407
	h-28.876c7.975,0,15.191-3.229,20.413-8.451c5.235-5.235,8.464-12.451,8.464-20.426c0-15.937-12.927-28.864-28.876-28.864h28.876
	v-13.866c0-28.4-23.024-51.424-51.412-51.424h-32.452l-10.689-148.125H357.71l-7.126,98.579c-1.955-0.283-3.962-0.424-6.007-0.424
	h-12.592v12.605C331.985,299.625,350.61,318.25,373.595,318.25z"/>
<path style="fill:#90BC42;" d="M369.475,318.25c53.817,0,91.298,53.418,73.021,104.019l-16.618,45.996
	c-1.376,3.794-3.151,7.383-5.274,10.689c-2.907,4.515-6.457,8.528-10.509,11.924c-3.666,3.087-7.73,5.66-12.091,7.666
	c-10.174,4.669-21.802,4.952-32.349,1.222c-2.482-0.875-5.042-1.518-7.615-1.942c-2.315-0.373-4.669-0.566-7.01-0.566
	c-4.939,0-9.891,0.836-14.625,2.508c-3.511,1.235-7.126,2.032-10.792,2.38c-1.171,0.116-2.354,0.18-3.537,0.18h-1.621
	c-5.621-0.154-11.203-1.389-16.4-3.782c-12.708-5.827-22.908-16.567-27.873-30.278l-16.618-45.996
	c-18.278-50.601,19.217-104.019,73.021-104.019h5.852h12.592L369.475,318.25L369.475,318.25z"/>
<path style="fill:#FFFFFF;" d="M316.657,367.176c-0.234,0-0.468-0.009-0.706-0.026c-5.314-0.385-9.31-5.004-8.925-10.317
	l11.665-161.384c0.385-5.314,4.987-9.305,10.317-8.927c5.314,0.385,9.31,5.004,8.925,10.317l-11.665,161.384
	C325.901,363.301,321.668,367.176,316.657,367.176z"/>
<path style="fill:#F95428;" d="M404.633,318.25c53.817,0,91.298,53.418,73.021,104.019l-16.618,45.996
	c-1.376,3.794-3.151,7.383-5.274,10.689c-2.907,4.515-6.457,8.528-10.509,11.924c-3.666,3.087-7.73,5.66-12.091,7.666
	c-10.174,4.669-21.802,4.952-32.349,1.222c-2.482-0.875-5.042-1.518-7.615-1.942c-2.315-0.373-4.669-0.566-7.01-0.566
	c-4.939,0-9.891,0.836-14.625,2.508c-3.511,1.235-7.126,2.032-10.792,2.38c-1.171,0.116-2.354,0.18-3.537,0.18h-1.621
	c-5.621-0.154-11.203-1.389-16.4-3.782c-12.708-5.827-22.908-16.567-27.873-30.278l-16.618-45.996
	c-18.278-50.601,19.217-104.019,73.021-104.019h5.852h12.592L404.633,318.25L404.633,318.25z"/>
<path style="fill:#E54728;" d="M359.913,468.266l-16.618-45.996c-17.609-48.748,16.548-100.103,67.18-103.798
	c-1.926-0.14-3.872-0.221-5.842-0.221h-18.445h-12.592h-5.852c-53.804,0-91.298,53.418-73.021,104.019l16.618,45.996
	c4.965,13.711,15.165,24.452,27.873,30.278c5.197,2.392,10.779,3.627,16.4,3.782h1.621c1.183,0,2.367-0.064,3.537-0.18
	c3.666-0.347,7.28-1.145,10.792-2.38c4.425-1.563,9.041-2.386,13.66-2.488C373.712,491.234,364.539,481.043,359.913,468.266z"/>
<path style="fill:#90BC42;" d="M350.584,264.472c20.143,2.92,35.604,20.246,35.604,41.186v12.592h-12.592
	c-22.985,0-41.61-18.625-41.61-41.597v-12.605h12.592C346.622,264.048,348.629,264.189,350.584,264.472z"/>
<polygon style="fill:#E6E6E6;" points="366.367,103.124 378.2,165.894 357.71,165.894 357.71,165.881 120.808,165.881 
	120.808,165.894 100.318,165.894 112.164,103.124 "/>
<polygon style="fill:#CCCCCC;" points="183.501,103.124 177.64,165.894 106.724,165.881 106.724,165.894 100.318,165.894 
	104.022,103.124 "/>
<polygon style="fill:#90BC42;" points="196.932,165.894 120.808,165.894 144.841,502.326 202.719,502.326 "/>
<g>
	<path style="fill:#F7B239;" d="M215.36,437.049v30.407c0,19.268-15.615,34.87-34.87,34.87h-0.013H64.483
		c-19.255,0-34.87-15.602-34.87-34.87v-30.407h28.876h127.995H215.36z"/>
	<path style="fill:#F7B239;" d="M131.496,314.019h32.452c28.388,0,51.412,23.024,51.412,51.424v13.866h-28.876H58.489H29.612
		v-13.866c0-28.4,23.024-51.424,51.412-51.424L131.496,314.019L131.496,314.019z"/>
</g>
<path style="fill:#B27214;" d="M186.484,379.309c15.95,0,28.876,12.927,28.876,28.864c0,7.975-3.228,15.191-8.464,20.426
	c-5.222,5.222-12.438,8.451-20.413,8.451H58.489c-15.95,0-28.876-12.927-28.876-28.876c0-7.975,3.228-15.178,8.451-20.413
	c5.235-5.222,12.451-8.451,20.426-8.451H186.484z"/>
<g>
	<path style="fill:#E09B2D;" d="M117.476,502.326H64.483c-19.255,0-34.87-15.602-34.87-34.87v-30.407h52.994v30.407
		C82.606,486.724,98.221,502.326,117.476,502.326z"/>
	<path style="fill:#E09B2D;" d="M134.018,314.019c-28.388,0-51.412,23.024-51.412,51.424v13.866H29.612v-13.866
		c0-28.4,23.024-51.424,51.412-51.424L134.018,314.019L134.018,314.019z"/>
</g>
<path style="fill:#995C0D;" d="M111.482,437.049H58.489c-15.95,0-28.876-12.927-28.876-28.876c0-7.975,3.228-15.178,8.451-20.413
	c5.235-5.222,12.451-8.451,20.426-8.451h52.994c-7.975,0-15.191,3.229-20.426,8.451c-5.222,5.235-8.451,12.438-8.451,20.413
	C82.606,424.122,95.533,437.049,111.482,437.049z"/>
<g>
	<path style="fill:#FFFFFF;" d="M430.795,466.983c-1.089,0-2.196-0.185-3.279-0.576c-5.011-1.811-7.604-7.341-5.795-12.352
		l16.618-45.984c3.015-8.344,2.933-17.016-0.235-25.081c-1.949-4.959,0.493-10.558,5.45-12.506
		c4.965-1.949,10.559,0.493,12.508,5.451c4.839,12.313,4.989,26.054,0.423,38.693l-16.618,45.985
		C438.448,464.54,434.742,466.983,430.795,466.983z"/>
	<path style="fill:#FFFFFF;" d="M181.693,363.741c-3.758,0-7.33-2.21-8.888-5.888c-1.514-3.577-4.991-5.89-8.856-5.89h-9.154
		c-5.328,0-9.647-4.319-9.647-9.647s4.319-9.647,9.647-9.647h9.154c11.63,0,22.08,6.933,26.623,17.662
		c2.077,4.906-0.216,10.567-5.123,12.645C184.221,363.494,182.947,363.741,181.693,363.741z"/>
	<path style="fill:#FFFFFF;" d="M169.737,485.296h-9.154c-5.328,0-9.647-4.319-9.647-9.647s4.319-9.647,9.647-9.647h9.154
		c3.865,0,7.342-2.311,8.856-5.89c2.077-4.906,7.738-7.197,12.645-5.123c4.906,2.077,7.2,7.738,5.123,12.645
		C191.818,478.365,181.367,485.296,169.737,485.296z"/>
	<circle style="fill:#FFFFFF;" cx="189.092" cy="408.116" r="9.647"/>
	<circle style="fill:#FFFFFF;" cx="431.5" cy="358.827" r="9.647"/>
</g>
<path style="fill:#333333;" d="M476.075,345.745c-16.567-23.6-42.607-37.135-71.442-37.135h-6.897
	c3.82-9.363,13.012-15.986,23.733-15.986c5.329,0,9.647-4.319,9.647-9.647s-4.318-9.647-9.647-9.647
	c-11.543,0-22.08,4.378-30.046,11.558c-5.818-13.068-16.943-23.263-30.627-27.841l5.895-81.511h11.512
	c2.871,0,5.594-1.28,7.427-3.49c1.833-2.211,2.585-5.123,2.053-7.945l-11.84-62.769c-0.861-4.557-4.841-7.859-9.48-7.859h-43.108
	l11.722-66.841c0.486-2.777,2.21-5.096,4.727-6.364c2.516-1.267,5.405-1.273,7.926-0.013l52.54,26.269
	c4.768,2.383,10.561,0.451,12.944-4.314c2.383-4.766,0.452-10.56-4.314-12.942L356.258,3c-8.026-4.013-17.224-3.999-25.238,0.039
	c-8.013,4.038-13.499,11.423-15.049,20.262l-12.306,70.174H112.158c-4.638,0-8.62,3.301-9.48,7.859l-11.84,62.769
	c-0.533,2.822,0.22,5.734,2.053,7.945c1.833,2.211,4.556,3.49,7.427,3.49h11.512l9.303,128.84H81.025
	c-33.669,0-61.06,27.391-61.06,61.06v13.866c0,3.909,2.328,7.266,5.67,8.783c-3.594,5.854-5.67,12.734-5.67,20.091
	c0,7.357,2.076,14.238,5.67,20.091c-3.342,1.516-5.67,4.874-5.67,8.783v30.408c0,24.547,19.97,44.519,44.519,44.519h116.003
	c0.05,0,0.099-0.004,0.148-0.004h180.141l-0.22-0.158c0.369-0.027,0.74-0.032,1.109-0.067c4.441-0.412,8.851-1.381,13.107-2.884
	c3.679-1.299,7.519-1.958,11.415-1.958c1.839,0,3.676,0.147,5.451,0.435c2.048,0.334,4.053,0.846,5.955,1.519
	c5.919,2.095,12.015,3.138,18.055,3.138c7.409,0,14.734-1.571,21.543-4.692c5.07-2.332,9.794-5.31,14.042-8.857
	c0.076-0.059,0.149-0.121,0.224-0.183c4.834-4.063,9.01-8.808,12.412-14.102c2.54-3.953,4.637-8.201,6.236-12.626l16.617-45.987
	C496.524,398.433,492.641,369.346,476.075,345.745z M376.542,305.661v2.949h-2.951c-17.623,0-31.961-14.337-31.961-31.96V273.7
	h2.951C362.205,273.7,376.542,288.036,376.542,305.661z M120.156,112.769h238.208l8.201,43.475h-8.776
	c-0.024,0-0.048-0.004-0.073-0.004H120.806c-0.024,0-0.049,0.004-0.073,0.004h-8.777L120.156,112.769z M131.175,175.538h216.172
	l-5.703,78.868h-9.658c-5.329,0-9.647,4.319-9.647,9.647v12.598c0,14.536,6.093,27.667,15.847,37.004
	c-16.688,5.934-31.241,16.931-41.88,32.09c-16.567,23.6-20.449,52.689-10.651,79.807l0,0l16.62,45.987
	c2.84,7.86,7.253,15.045,12.854,21.141h-97.98c4.952-7.175,7.86-15.863,7.86-25.221V437.05c0-3.909-2.328-7.266-5.67-8.783
	c3.594-5.854,5.67-12.734,5.67-20.091c0-7.357-2.076-14.238-5.67-20.091c3.342-1.516,5.67-4.874,5.67-8.783v-13.866
	c0-33.669-27.391-61.06-61.06-61.06h-23.468L131.175,175.538z M39.259,408.178c0-10.601,8.626-19.227,19.227-19.227h127.999
	c10.601,0,19.227,8.626,19.227,19.227s-8.626,19.227-19.227,19.227H58.486C47.885,427.405,39.259,418.779,39.259,408.178z
	 M39.259,365.438c0-23.03,18.736-41.766,41.766-41.766h82.92c23.03,0,41.766,18.736,41.766,41.766v4.219h-19.227H58.486H39.259
	V365.438z M39.259,467.46v-20.761h19.227h127.999h19.227v20.761c0,13.908-11.315,25.225-25.225,25.225H64.484
	C50.576,492.683,39.259,481.368,39.259,467.46z M468.58,418.995l-16.618,45.99c-1.107,3.069-2.561,6.012-4.319,8.749
	c-2.31,3.594-5.137,6.825-8.407,9.606c-0.071,0.055-0.138,0.112-0.207,0.169c-2.978,2.512-6.305,4.62-9.885,6.265
	c-7.766,3.563-16.684,3.884-25.109,0.899c-2.982-1.055-6.105-1.852-9.291-2.374c-2.805-0.455-5.683-0.686-8.554-0.686
	c-6.089,0-12.091,1.029-17.838,3.057c-2.758,0.974-5.604,1.601-8.47,1.866c-5.777,0.542-11.533-0.417-16.648-2.763
	c-10.711-4.912-18.814-13.717-22.816-24.791l-16.62-45.986c-7.633-21.124-4.607-43.783,8.296-62.166
	c12.905-18.383,33.187-28.927,55.646-28.927h36.894c22.462,0,42.745,10.543,55.651,28.927
	C473.187,375.213,476.213,397.872,468.58,418.995z"/>
<g>
</g>
<g>
</g>
<g>
</g>
<g>
</g>
<g>
</g>
<g>
</g>
<g>
</g>
<g>
</g>
<g>
</g>
<g>
</g>
<g>
</g>
<g>
</g>
<g>
</g>
<g>
</g>
<g>
</g>
</svg>
