<?xml version="1.0" encoding="iso-8859-1"?>
<!-- Generator: Adobe Illustrator 19.0.0, SVG Export Plug-In . SVG Version: 6.00 Build 0)  -->
<svg version="1.1" id="Layer_1" xmlns="http://www.w3.org/2000/svg" xmlns:xlink="http://www.w3.org/1999/xlink" x="0px" y="0px"
	 viewBox="0 0 512 512" style="enable-background:new 0 0 512 512;" xml:space="preserve">
<path style="fill:#F95428;" d="M148.261,176.049v278.875c0,9.573,7.795,17.368,17.38,17.368h180.708
	c9.584,0,17.38-7.795,17.38-17.368V176.049H148.261z M204.663,220.672c11.292,0,20.447,9.154,20.447,20.458
	c0,11.292-9.154,20.447-20.447,20.447s-20.458-9.154-20.458-20.447C184.205,229.826,193.371,220.672,204.663,220.672z
	 M282.453,437.068c-25.152,0-45.552-20.4-45.552-45.552c0-1.917,0.116-3.81,0.36-5.658c-2.138,0.349-4.333,0.523-6.564,0.523
	c-23.107,0-41.834-18.739-41.834-41.834s18.727-41.834,41.834-41.834s41.834,18.739,41.834,41.834c0,0.848-0.023,1.696-0.081,2.521
	c3.218-0.72,6.564-1.104,10.003-1.104c25.163,0,45.552,20.388,45.552,45.552C328.004,416.668,307.616,437.068,282.453,437.068z
	 M294.209,286.135c-23.095,0-41.834-18.727-41.834-41.834c0-23.095,18.739-41.834,41.834-41.834
	c23.107,0,41.834,18.739,41.834,41.834C336.044,267.408,317.316,286.135,294.209,286.135z"/>
<path style="fill:#2BA5F7;" d="M394.723,152.559v305.397c0,25.035-20.296,45.331-45.331,45.331H162.608
	c-25.035,0-45.331-20.296-45.331-45.331V152.559c0-25.035,20.296-45.331,45.331-45.331h6.97h172.843h6.97
	C374.427,107.228,394.723,127.524,394.723,152.559z M363.728,454.924V176.049H148.261v278.875c0,9.573,7.795,17.368,17.38,17.368
	h180.708C355.932,472.292,363.728,464.497,363.728,454.924z"/>
<path style="fill:#2197D8;" d="M177.687,457.956V152.559c0-25.035,20.296-45.331,45.331-45.331h-53.44h-6.97
	c-25.035,0-45.331,20.296-45.331,45.331v305.397c0,25.035,20.296,45.331,45.331,45.331h60.41
	C197.983,503.287,177.687,482.991,177.687,457.956z"/>
<polygon style="fill:#F95428;" points="367.84,8.713 367.84,73.05 342.421,73.05 169.579,73.05 144.16,73.05 144.16,8.713 "/>
<polygon style="fill:#E54728;" points="201.398,8.713 201.398,73.05 194.894,73.05 150.664,73.05 144.16,73.05 144.16,8.713 "/>
<rect x="169.579" y="73.05" style="fill:#2197D8;" width="172.843" height="34.178"/>
<g>
	<path style="fill:#CC2105;" d="M294.209,202.467c23.107,0,41.834,18.739,41.834,41.834c0,23.107-18.727,41.834-41.834,41.834
		c-23.095,0-41.834-18.727-41.834-41.834C252.375,221.206,271.114,202.467,294.209,202.467z"/>
	<path style="fill:#CC2105;" d="M282.453,345.965c25.163,0,45.552,20.388,45.552,45.552c0,25.152-20.388,45.552-45.552,45.552
		c-25.152,0-45.552-20.4-45.552-45.552c0-1.917,0.116-3.81,0.36-5.658c2.37-19.169,16.648-34.643,35.189-38.79
		C275.668,346.348,279.014,345.965,282.453,345.965z"/>
	<path style="fill:#CC2105;" d="M272.531,344.547c0,0.848-0.023,1.696-0.081,2.521c-18.541,4.147-32.819,19.622-35.189,38.79
		c-2.138,0.349-4.333,0.523-6.564,0.523c-23.107,0-41.834-18.739-41.834-41.834s18.727-41.834,41.834-41.834
		S272.531,321.452,272.531,344.547z"/>
	<path style="fill:#CC2105;" d="M204.663,220.672c11.292,0,20.447,9.154,20.447,20.458c0,11.292-9.154,20.447-20.447,20.447
		s-20.458-9.154-20.458-20.447C184.205,229.826,193.371,220.672,204.663,220.672z"/>
</g>
<path style="fill:#333333;" d="M351.134,98.559V81.763h16.706c4.812,0,8.713-3.901,8.713-8.713V8.713
	c0-4.812-3.901-8.713-8.713-8.713H144.16c-4.812,0-8.713,3.901-8.713,8.713V73.05c0,4.812,3.901,8.713,8.713,8.713h16.706v16.796
	c-28.995,0.925-52.301,24.783-52.301,54v305.397c0,29.8,24.244,54.044,54.044,54.044h186.784c29.8,0,54.044-24.244,54.044-54.044
	V152.559C403.436,123.343,380.129,99.484,351.134,98.559z M152.873,17.426h206.255v46.911H152.873V17.426z M333.708,81.763v16.752
	H178.292V81.763H333.708z M386.01,457.956c0,20.191-16.427,36.618-36.618,36.618H162.608c-20.191,0-36.618-16.427-36.618-36.618
	V152.559c0-20.191,16.427-36.618,36.618-36.618h6.97h172.843h6.97c20.191,0,36.618,16.427,36.618,36.618V457.956z"/>
<path style="fill:#E54728;" d="M179.999,472.292H165.64c-9.584,0-17.38-7.795-17.38-17.368V176.049h29.427v281.907
	C177.687,462.963,178.501,467.784,179.999,472.292z"/>
<path style="fill:#075672;" d="M346.348,481.005H165.64c-14.388,0-26.093-11.7-26.093-26.081V176.049
	c0-4.812,3.901-8.713,8.713-8.713h215.467c4.812,0,8.713,3.901,8.713,8.713v278.875
	C372.441,469.305,360.735,481.005,346.348,481.005z M156.974,184.762v270.162c0,4.772,3.888,8.655,8.667,8.655h180.708
	c4.778,0,8.667-3.883,8.667-8.655V184.762H156.974z"/>
<g>
	<path style="fill:#841904;" d="M230.697,395.095c-27.872,0-50.547-22.676-50.547-50.547c0-27.872,22.676-50.547,50.547-50.547
		s50.547,22.676,50.547,50.547c0,1.123-0.034,2.148-0.102,3.131l-17.383-1.22c0.04-0.565,0.059-1.208,0.059-1.911
		c0-18.264-14.859-33.121-33.121-33.121c-18.264,0-33.121,14.859-33.121,33.121s14.859,33.121,33.121,33.121
		c1.76,0,3.496-0.138,5.16-0.409l2.807,17.198C236.075,394.88,233.395,395.095,230.697,395.095z"/>
	<path style="fill:#841904;" d="M294.209,294.848c-27.872,0-50.547-22.676-50.547-50.547c0-27.872,22.676-50.547,50.547-50.547
		s50.547,22.676,50.547,50.547S322.081,294.848,294.209,294.848z M294.209,211.18c-18.264,0-33.121,14.859-33.121,33.121
		s14.859,33.121,33.121,33.121s33.121-14.859,33.121-33.121C327.331,226.038,312.472,211.18,294.209,211.18z"/>
	<path style="fill:#841904;" d="M282.453,445.781c-29.922,0-54.265-24.343-54.265-54.265c0-2.312,0.145-4.588,0.431-6.765
		c2.816-22.648,19.662-41.206,41.929-46.186c3.894-0.871,7.9-1.314,11.904-1.314c29.922,0,54.265,24.343,54.265,54.265
		S312.374,445.781,282.453,445.781z M282.453,354.678c-2.725,0-5.451,0.301-8.098,0.893c-15.114,3.381-26.544,15.982-28.445,31.356
		c-0.002,0.024-0.006,0.048-0.009,0.071c-0.189,1.434-0.286,2.953-0.286,4.518c0,20.313,16.526,36.839,36.839,36.839
		s36.839-16.526,36.839-36.839S302.766,354.678,282.453,354.678z"/>
	<path style="fill:#841904;" d="M204.663,270.289c-16.085,0-29.171-13.081-29.171-29.16c0-16.085,13.086-29.171,29.171-29.171
		c16.078,0,29.16,13.087,29.16,29.171C233.822,257.208,220.741,270.289,204.663,270.289z M204.663,229.385
		c-6.477,0-11.745,5.27-11.745,11.745c0,6.47,5.268,11.734,11.745,11.734c6.47,0,11.734-5.264,11.734-11.734
		C216.396,234.653,211.133,229.385,204.663,229.385z"/>
</g>
<g>
	<path style="fill:#FFFFFF;" d="M363.937,399.788c-4.812,0-8.713-3.901-8.713-8.713V155.463c0-4.176-3.398-7.575-7.574-7.575
		c-4.812,0-8.713-3.901-8.713-8.713s3.901-8.713,8.713-8.713c13.785,0,25.001,11.215,25.001,25.001v235.612
		C372.65,395.887,368.749,399.788,363.937,399.788z"/>
	<path style="fill:#FFFFFF;" d="M340.807,54.753c-4.812,0-8.713-3.901-8.713-8.713V32.099c0-4.812,3.901-8.713,8.713-8.713
		c4.812,0,8.713,3.901,8.713,8.713V46.04C349.52,50.851,345.619,54.753,340.807,54.753z"/>
	<circle style="fill:#FFFFFF;" cx="363.937" cy="421.106" r="8.713"/>
</g>
<g>
	<circle style="fill:#841904;" cx="322.219" cy="319.047" r="8.713"/>
	<circle style="fill:#841904;" cx="198.854" cy="420.118" r="8.713"/>
</g>
<g>
</g>
<g>
</g>
<g>
</g>
<g>
</g>
<g>
</g>
<g>
</g>
<g>
</g>
<g>
</g>
<g>
</g>
<g>
</g>
<g>
</g>
<g>
</g>
<g>
</g>
<g>
</g>
<g>
</g>
</svg>
