<svg height="511pt" viewBox="-66 1 511 511.999" width="511pt" xmlns="http://www.w3.org/2000/svg"><path d="m331.882812 68.300781h-283.320312c-11.175781 0-20.238281-9.0625-20.238281-20.238281v-20.238281c0-11.175781 9.0625-20.234375 20.238281-20.234375h283.320312c11.175782 0 20.238282 9.058594 20.238282 20.234375v20.238281c0 11.175781-9.0625 20.238281-20.238282 20.238281zm0 0" fill="#ef9aa0"/><path d="m331.882812 7.589844h-27.320312c11.175781 0 20.238281 9.058594 20.238281 20.234375v20.238281c0 11.175781-9.0625 20.238281-20.238281 20.238281h27.320312c11.175782 0 20.238282-9.0625 20.238282-20.238281v-20.238281c0-11.175781-9.0625-20.234375-20.238282-20.234375zm0 0" fill="#ea7f87"/><path d="m331.882812 109.785156v-40.472656h-283.320312v40.472656c-22.351562 0-40.472656 18.121094-40.472656 40.476563v313.675781c0 22.351562 18.121094 40.472656 40.472656 40.472656h283.320312c22.351563 0 40.472657-18.121094 40.472657-40.472656v-313.675781c0-22.355469-18.121094-40.476563-40.472657-40.476563zm0 0" fill="#d9edff"/><path d="m331.882812 109.785156v-40.472656h-283.320312v20.238281h257.011719c5.589843 0 10.121093 4.527344 10.121093 10.117188v11.046875c0 7.003906 5.109376 13.023437 12.042969 14.003906 24.386719 3.441406 28.429688 18.183594 28.429688 37.683594v321.773437c0 4.851563-.855469 9.503907-2.421875 13.816407 11.191406-7.203126 18.613281-19.757813 18.613281-34.054688v-313.675781c-.003906-22.355469-18.125-40.476563-40.476563-40.476563zm0 0" fill="#b4dbff"/><path d="m48.5625 474.054688c-5.578125 0-10.117188-4.539063-10.117188-10.117188v-313.675781c0-5.578125 4.539063-10.121094 10.117188-10.121094h283.320312c5.578126 0 10.117188 4.542969 10.117188 10.121094v313.675781c0 5.578125-4.539062 10.117188-10.117188 10.117188zm0 0" fill="#ef9aa0"/><path d="m331.882812 140.140625h-20.238281c5.578125 0 10.121094 4.542969 10.121094 10.121094v313.675781c0 5.578125-4.542969 10.117188-10.121094 10.117188h20.238281c5.578126 0 10.117188-4.539063 10.117188-10.117188v-313.675781c0-5.578125-4.539062-10.121094-10.117188-10.121094zm0 0" fill="#ea7f87"/><path d="m8.089844 215.527344h364.269531v182.132812h-364.269531zm0 0" fill="#ffea84"/><path d="m356.167969 215.527344h16.191406v182.132812h-16.191406zm0 0" fill="#ffe046"/><path d="m185.9375 268.773438s4.589844-34.09375-28.429688-24.710938c0 0-7.347656 35.777344 28.429688 24.710938zm0 0" fill="#dcf3a3"/><path d="m185.9375 268.773438s-5.101562-34.019532 28.054688-25.132813c0 0 7.878906 35.660156-28.054688 25.132813zm0 0" fill="#dcf3a3"/><path d="m186.707031 371.769531c-17.53125.128907-46.199219-23.761719-46.46875-59.917969-.335937-44.558593 45.699219-43.078124 45.699219-43.078124s46.003906-2.171876 46.339844 42.386718c.269531 36.15625-28.039063 60.476563-45.570313 60.609375zm0 0" fill="#ef9aa0"/><path d="m214.347656 276.042969c3.613282 5.835937 5.972656 13.453125 6.046875 23.414062.269531 36.15625-28.035156 60.476563-45.566406 60.609375-6.113281.042969-13.578125-2.839844-20.726563-8.136718 9.820313 12.628906 22.914063 19.910156 32.605469 19.839843 17.53125-.132812 45.839844-24.449219 45.566407-60.609375-.140626-18.800781-8.410157-29.28125-17.925782-35.117187zm0 0" fill="#ea7f87"/><path d="m339.472656 102.796875v-27.96875c11.664063-3.3125 20.234375-14.050781 20.234375-26.765625v-20.238281c0-15.339844-12.480469-27.824219-27.824219-27.824219h-283.320312c-15.34375 0-27.824219 12.484375-27.824219 27.824219v20.238281c0 12.710938 8.570313 23.453125 20.234375 26.765625v27.96875c-22.90625 3.648437-40.472656 23.542969-40.472656 47.464844v95.597656c0 4.191406 3.398438 7.589844 7.589844 7.589844s7.585937-3.398438 7.585937-7.589844v-22.746094h349.09375v93.582031c0 4.191407 3.394531 7.585938 7.589844 7.585938 4.191406 0 7.585937-3.394531 7.585937-7.585938v-166.433593c0-23.921875-17.566406-43.816407-40.472656-47.464844zm-303.558594-54.734375v-20.238281c0-6.972657 5.675782-12.644531 12.648438-12.644531h283.320312c6.972657 0 12.648438 5.671874 12.648438 12.644531v20.238281c0 6.972656-5.675781 12.648438-12.648438 12.648438h-283.320312c-6.972656 0-12.648438-5.671876-12.648438-12.648438zm313.675782 159.875v-57.675781c0-9.765625-7.941406-17.707031-17.707032-17.707031h-50.003906c-4.191406 0-7.589844 3.394531-7.589844 7.585937 0 4.195313 3.398438 7.589844 7.589844 7.589844h50.003906c1.394532 0 2.53125 1.132812 2.53125 2.53125v57.675781h-288.382812v-57.675781c0-1.394531 1.136719-2.53125 2.53125-2.53125h197.734375c4.191406 0 7.589844-3.394531 7.589844-7.589844 0-4.191406-3.398438-7.585937-7.589844-7.585937h-197.734375c-9.765625 0-17.707031 7.941406-17.707031 17.707031v57.675781h-15.179688v-57.675781c0-18.132813 14.753907-32.886719 32.886719-32.886719 4.191406 0 7.589844-3.394531 7.589844-7.589844v-33.894531h268.140625v33.894531c0 4.191406 3.398437 7.589844 7.589843 7.589844 18.132813 0 32.882813 14.753906 32.882813 32.886719v57.675781zm0 0"/><path d="m372.355469 344.539062c-4.191407 0-7.589844 3.394532-7.589844 7.589844v37.941406h-349.089844v-108.773437c0-4.191406-3.394531-7.589844-7.585937-7.589844s-7.589844 3.398438-7.589844 7.589844v182.640625c0 26.5 21.558594 48.0625 48.0625 48.0625h283.320312c26.5 0 48.0625-21.5625 48.0625-48.0625v-111.8125c0-4.191406-3.398437-7.585938-7.589843-7.585938zm-326.324219 60.710938h288.382812v58.6875c0 1.394531-1.136718 2.53125-2.53125 2.53125h-283.320312c-1.394531 0-2.53125-1.136719-2.53125-2.53125zm285.851562 91.570312h-283.320312c-18.132812 0-32.886719-14.75-32.886719-32.882812v-58.6875h15.179688v58.6875c0 9.761719 7.945312 17.707031 17.707031 17.707031h283.320312c9.765626 0 17.707032-7.945312 17.707032-17.707031v-58.6875h15.179687v58.6875c-.003906 18.132812-14.753906 32.882812-32.886719 32.882812zm0 0"/><path d="m132.648438 311.90625c.304687 40.550781 32.652343 67.453125 53.917968 67.453125h.199219c21.34375-.160156 53.40625-27.464844 53.101563-68.257813-.179688-23.742187-11.929688-35.921874-22.484376-42.078124.144532-.203126.304688-.390626.441407-.597657 6.859375-10.386719 3.933593-24.808593 3.578125-26.417969-.613282-2.765624-2.710938-4.957031-5.445313-5.691406-11.050781-2.964844-20.058593-2.136718-26.777343 2.460938-1.25.855468-2.394532 1.835937-3.445313 2.925781-1.066406-1.074219-2.230469-2.042969-3.492187-2.878906-6.789063-4.5-15.804688-5.191407-26.808594-2.0625-2.722656.773437-4.789063 2.996093-5.359375 5.769531-1.445313 7.035156-1.5 18.824219 4.390625 26.988281-3.058594 1.84375-6.035156 4.09375-8.761719 6.839844-8.773437 8.839844-13.164063 20.796875-13.054687 35.546875zm65.105468-60.605469c2.398438-1.640625 5.925782-1.78125 9.355469-1.328125.128906 3.28125-.179687 7.40625-1.949219 10.085938-.644531.972656-1.707031 2.132812-4.132812 2.703125-2.820313-.625-5.445313-1.019531-7.71875-1.253907 0-.011718.003906-.019531.003906-.03125.03125-.164062.054688-.328124.074219-.492187.011719-.082031.027343-.160156.035156-.242187.003906-.003907.003906-.011719.003906-.015626.359375-3.210937 1.402344-7.421874 4.328125-9.425781zm-27.058594 11.699219c-5.574218-1.257812-6.375-7.996094-6.226562-12.714844 3.417969-.5 6.957031-.417968 9.386719 1.191406 2.941406 1.949219 4.054687 6.109376 4.46875 9.308594.023437.242188.0625.484375.109375.722656.007812.042969.019531.085938.03125.128907-2.25.269531-4.878906.699219-7.714844 1.378906-.019531-.003906-.035156-.011719-.054688-.015625zm-14.21875 24.050781c10.316407-10.394531 24.554688-10.695312 29.789063-10.695312 10.953125 0 38.179687 2.503906 38.421875 34.863281.238281 32.160156-24.839844 52.863281-38.035156 52.960938h-.089844c-13.164062 0-38.496094-20.402344-38.738281-52.386719-.078125-10.554688 2.832031-18.878907 8.652343-24.742188zm0 0"/><path d="m42.492188 265.613281h52.617187c4.191406 0 7.589844-3.398437 7.589844-7.589843 0-4.191407-3.398438-7.589844-7.589844-7.589844h-52.617187c-4.191407 0-7.589844 3.398437-7.589844 7.589844 0 4.191406 3.398437 7.589843 7.589844 7.589843zm0 0"/><path d="m42.492188 314.183594h52.617187c4.191406 0 7.589844-3.398438 7.589844-7.589844s-3.398438-7.589844-7.589844-7.589844h-52.617187c-4.191407 0-7.589844 3.398438-7.589844 7.589844s3.398437 7.589844 7.589844 7.589844zm0 0"/><path d="m42.492188 362.75h52.617187c4.191406 0 7.589844-3.394531 7.589844-7.589844 0-4.191406-3.398438-7.585937-7.589844-7.585937h-52.617187c-4.191407 0-7.589844 3.394531-7.589844 7.585937 0 4.195313 3.398437 7.589844 7.589844 7.589844zm0 0"/><path d="m285.335938 265.613281h52.617187c4.195313 0 7.589844-3.398437 7.589844-7.589843 0-4.191407-3.394531-7.589844-7.589844-7.589844h-52.617187c-4.191407 0-7.585938 3.398437-7.585938 7.589844 0 4.191406 3.394531 7.589843 7.585938 7.589843zm0 0"/><path d="m285.335938 314.183594h52.617187c4.195313 0 7.589844-3.398438 7.589844-7.589844s-3.394531-7.589844-7.589844-7.589844h-52.617187c-4.191407 0-7.585938 3.398438-7.585938 7.589844s3.394531 7.589844 7.585938 7.589844zm0 0"/><path d="m285.335938 362.75h52.617187c4.195313 0 7.589844-3.394531 7.589844-7.589844 0-4.191406-3.394531-7.585937-7.589844-7.585937h-52.617187c-4.191407 0-7.585938 3.394531-7.585938 7.585937 0 4.195313 3.394531 7.589844 7.585938 7.589844zm0 0"/><path d="m67.28125 51.605469c4.191406 0 7.589844-3.398438 7.589844-7.589844v-12.140625c0-4.191406-3.398438-7.589844-7.589844-7.589844s-7.589844 3.398438-7.589844 7.589844v12.140625c0 4.191406 3.398438 7.589844 7.589844 7.589844zm0 0"/><path d="m94.601562 51.605469c4.191407 0 7.589844-3.398438 7.589844-7.589844v-12.140625c0-4.191406-3.398437-7.589844-7.589844-7.589844-4.191406 0-7.589843 3.398438-7.589843 7.589844v12.140625c0 4.191406 3.398437 7.589844 7.589843 7.589844zm0 0"/><path d="m121.921875 51.605469c4.191406 0 7.589844-3.398438 7.589844-7.589844v-12.140625c0-4.191406-3.398438-7.589844-7.589844-7.589844s-7.589844 3.398438-7.589844 7.589844v12.140625c0 4.191406 3.398438 7.589844 7.589844 7.589844zm0 0"/><path d="m149.242188 51.605469c4.191406 0 7.589843-3.398438 7.589843-7.589844v-12.140625c0-4.191406-3.398437-7.589844-7.589843-7.589844-4.191407 0-7.589844 3.398438-7.589844 7.589844v12.140625c0 4.191406 3.398437 7.589844 7.589844 7.589844zm0 0"/><path d="m176.5625 51.605469c4.191406 0 7.589844-3.398438 7.589844-7.589844v-12.140625c0-4.191406-3.398438-7.589844-7.589844-7.589844s-7.589844 3.398438-7.589844 7.589844v12.140625c0 4.191406 3.398438 7.589844 7.589844 7.589844zm0 0"/><path d="m203.882812 51.605469c4.191407 0 7.589844-3.398438 7.589844-7.589844v-12.140625c0-4.191406-3.398437-7.589844-7.589844-7.589844-4.191406 0-7.589843 3.398438-7.589843 7.589844v12.140625c0 4.191406 3.398437 7.589844 7.589843 7.589844zm0 0"/><path d="m231.203125 51.605469c4.191406 0 7.589844-3.398438 7.589844-7.589844v-12.140625c0-4.191406-3.398438-7.589844-7.589844-7.589844s-7.589844 3.398438-7.589844 7.589844v12.140625c0 4.191406 3.398438 7.589844 7.589844 7.589844zm0 0"/><path d="m258.523438 51.605469c4.191406 0 7.589843-3.398438 7.589843-7.589844v-12.140625c0-4.191406-3.398437-7.589844-7.589843-7.589844-4.191407 0-7.589844 3.398438-7.589844 7.589844v12.140625c0 4.191406 3.398437 7.589844 7.589844 7.589844zm0 0"/><path d="m285.84375 51.605469c4.191406 0 7.589844-3.398438 7.589844-7.589844v-12.140625c0-4.191406-3.398438-7.589844-7.589844-7.589844s-7.589844 3.398438-7.589844 7.589844v12.140625c0 4.191406 3.398438 7.589844 7.589844 7.589844zm0 0"/><path d="m313.164062 51.605469c4.191407 0 7.589844-3.398438 7.589844-7.589844v-12.140625c0-4.191406-3.398437-7.589844-7.589844-7.589844-4.191406 0-7.589843 3.398438-7.589843 7.589844v12.140625c0 4.191406 3.398437 7.589844 7.589843 7.589844zm0 0"/></svg>