<?xml version="1.0" encoding="iso-8859-1"?>
<!-- Generator: Adobe Illustrator 19.0.0, SVG Export Plug-In . SVG Version: 6.00 Build 0)  -->
<svg version="1.1" id="Layer_1" xmlns="http://www.w3.org/2000/svg" xmlns:xlink="http://www.w3.org/1999/xlink" x="0px" y="0px"
	 viewBox="0 0 512 512" style="enable-background:new 0 0 512 512;" xml:space="preserve">
<path style="fill:#CCCCCC;" d="M406.243,68.851H220.318c-4.604,0-8.335-3.732-8.335-8.335V15.832c0-4.604,3.732-8.335,8.335-8.335
	h185.926c4.604,0,8.335,3.732,8.335,8.335v44.683C414.579,65.12,410.847,68.851,406.243,68.851z"/>
<path style="fill:#FFFFFF;" d="M414.579,13.889v48.572c0,3.53-2.861,6.391-6.391,6.391H218.373c-3.53,0-6.391-2.861-6.391-6.391
	V38.174h157.718V7.498h38.487C411.717,7.498,414.579,10.359,414.579,13.889z"/>
<path style="fill:#CCCCCC;" d="M212.621,68.851l-60.549,80.095c-0.839,1.11-1.293,2.463-1.293,3.854v330.048
	c0,11.956,9.693,21.649,21.649,21.649h184.63V150.657l57.519-81.806H212.621z"/>
<path style="fill:#FFFFFF;" d="M470.934,149.002l-56.357-80.151h-42.603l-57.519,81.806v353.847h42.603h76.692h16.697
	c11.956,0,21.649-9.693,21.649-21.649V152.679C472.098,151.362,471.691,150.079,470.934,149.002z"/>
<path style="fill:#CCCCCC;" d="M414.579,68.851l-57.519,81.806v353.841h57.519h35.87c11.956,0,21.649-9.693,21.649-21.649V152.679
	c0-1.316-0.406-2.599-1.163-3.676L414.579,68.851z"/>
<path style="fill:#FFFFFF;" d="M39.955,240.448l37.083,259.526c0.371,2.598,2.597,4.529,5.221,4.529h112.293
	c2.625,0,4.851-1.93,5.221-4.529l37.083-259.526c0.454-3.178-2.011-6.021-5.221-6.021H45.178
	C41.967,234.428,39.502,237.271,39.955,240.448z"/>
<path style="fill:#CCCCCC;" d="M77.038,499.974c0.371,2.598,2.597,4.529,5.221,4.529h112.293c2.625,0,4.851-1.93,5.221-4.529
	l22.39-156.7H54.648L77.038,499.974z"/>
<circle cx="282.683" cy="192.331" r="8.582"/>
<circle cx="269.377" cy="411.673" r="8.582"/>
<circle cx="236.807" cy="450.231" r="8.582"/>
<circle cx="260.799" cy="474.224" r="8.582"/>
<path d="M477.579,145.479c-0.256-0.49-0.564-0.949-0.919-1.368l-55.022-78.255c0.275-1.089,0.438-2.223,0.438-3.396V13.889
	c0-7.658-6.23-13.889-13.889-13.889H218.373c-7.659,0-13.889,6.23-13.889,13.889v48.572c0,1.374,0.208,2.699,0.581,3.953
	l-58.974,78.012c-0.044,0.058-0.081,0.12-0.124,0.179c-0.058,0.081-0.116,0.162-0.171,0.246c-1.619,2.32-2.515,5.119-2.515,7.951
	v74.129H45.178c-3.705,0-7.222,1.605-9.649,4.404c-2.427,2.799-3.519,6.508-2.995,10.175l6.635,46.436
	c0.586,4.1,4.38,6.943,8.483,6.362c4.1-0.586,6.948-4.384,6.362-8.482l-6.274-43.898h181.333L192.626,497h-12.171
	c0,0.002,0.001,0.003,0.002,0.005H84.188L60.022,327.88c-0.586-4.101-4.38-6.944-8.483-6.362c-4.099,0.586-6.947,4.384-6.362,8.482
	l24.438,171.034C70.509,507.285,75.944,512,82.259,512h112.293c0.035,0,0.07-0.005,0.105-0.005h255.791
	c16.071,0,29.146-13.075,29.146-29.147V152.679C479.596,150.118,478.898,147.648,477.579,145.479z M414.578,81.886l41.879,59.563
	h-83.759L414.578,81.886z M219.48,14.995h187.6v46.358h-187.6V14.995z M216.353,76.349H400.14l-45.773,65.099H167.14L216.353,76.349
	z M464.6,482.848c0,7.804-6.348,14.152-14.151,14.152h-85.892V233.492c0-4.142-3.357-7.498-7.498-7.498s-7.498,3.356-7.498,7.498
	V497H207.775l36.506-255.491c0.524-3.667-0.568-7.376-2.995-10.175c-2.427-2.799-5.945-4.404-9.65-4.404h-73.358v-70.486h191.284
	v35.884c0,4.142,3.357,7.498,7.498,7.498s7.498-3.356,7.498-7.498v-35.884h100.043L464.6,482.848L464.6,482.848z"/>
<g>
</g>
<g>
</g>
<g>
</g>
<g>
</g>
<g>
</g>
<g>
</g>
<g>
</g>
<g>
</g>
<g>
</g>
<g>
</g>
<g>
</g>
<g>
</g>
<g>
</g>
<g>
</g>
<g>
</g>
</svg>
