<svg id="Capa_1" enable-background="new 0 0 512.009 512.009" height="512" viewBox="0 0 512.009 512.009" width="512" xmlns="http://www.w3.org/2000/svg"><g><g><path d="m323.526 135.399h-24.904v31.943h24.904c27.576 0 50.01 22.434 50.01 50.01s-22.435 50.01-50.01 50.01h-24.904v28.027c0 1.312-.034 2.616-.086 3.916h24.99c45.189 0 81.953-36.764 81.953-81.953s-36.764-81.953-81.953-81.953z" fill="#b5dcff"/><g fill="#8bcaff"><path d="m330.622 266.849c-2.319.331-4.687.512-7.096.512h-24.904v28.027c0 1.312-.034 2.616-.085 3.916h24.99c2.393 0 4.755-.125 7.096-.327v-32.128z"/><path d="m298.622 135.399v31.943h24.904c2.41 0 4.777.181 7.096.512v-32.128c-2.341-.202-4.704-.327-7.096-.327z"/></g><path d="m294.218 82.077h-180.448c-3.537 0-6.404 2.867-6.404 6.404v63.809c1.34.384 2.613 1.066 3.708 2.054 4.893 4.413 11.372 7.101 18.481 7.101 7.108 0 13.588-2.687 18.48-7.101 3.582-3.231 9.055-3.231 12.637 0 4.893 4.413 11.372 7.101 18.481 7.101 7.108 0 13.588-2.687 18.481-7.101 3.582-3.231 9.055-3.231 12.637 0 4.893 4.413 11.372 7.101 18.481 7.101 7.108 0 13.588-2.687 18.48-7.101 3.582-3.231 9.055-3.231 12.637 0 4.893 4.413 11.372 7.101 18.481 7.101 7.108 0 13.588-2.687 18.481-7.101 1.118-1.008 2.42-1.702 3.791-2.081v-63.782c0-3.537-2.867-6.404-6.404-6.404z" fill="#dbedff"/><path d="m147.256 82.077h-33.486c-3.537 0-6.404 2.867-6.404 6.404v63.809c1.34.384 2.613 1.066 3.708 2.054 4.893 4.413 11.372 7.101 18.481 7.101 6.738 0 12.909-2.417 17.701-6.428z" fill="#b5dcff"/><path d="m187.971 388.686v52.278h32.046v-52.278c-10.521 1.753-21.248 1.798-32.046 0z" fill="#b5dcff"/><path d="m203.994 390.015c-5.312 0-10.659-.436-16.023-1.329v52.278h16.023z" fill="#8bcaff"/><path d="m296.831 152.344c-4.893 4.413-11.372 7.101-18.481 7.101s-13.588-2.687-18.481-7.101c-3.582-3.231-9.055-3.231-12.637 0-4.893 4.413-11.372 7.101-18.48 7.101-7.109 0-13.588-2.687-18.481-7.101-3.582-3.231-9.055-3.231-12.637 0-4.893 4.413-11.372 7.101-18.481 7.101s-13.588-2.687-18.481-7.101c-3.582-3.231-9.055-3.231-12.637 0-4.893 4.413-11.372 7.101-18.48 7.101-7.109 0-13.588-2.687-18.481-7.101-1.095-.988-2.367-1.67-3.708-2.054v145.098c0 .147.005.293.006.441 1.338.384 2.609 1.066 3.702 2.052 4.893 4.413 11.372 7.1 18.481 7.1 7.108 0 13.588-2.687 18.48-7.1 3.582-3.232 9.055-3.232 12.637 0 4.893 4.413 11.372 7.1 18.481 7.1 7.108 0 13.588-2.687 18.481-7.1 3.582-3.232 9.055-3.232 12.637 0 4.893 4.413 11.372 7.1 18.481 7.1 7.108 0 13.588-2.687 18.48-7.1 3.582-3.232 9.055-3.232 12.637 0 4.893 4.413 11.372 7.1 18.481 7.1 7.108 0 13.588-2.687 18.481-7.1 1.116-1.007 2.417-1.7 3.786-2.079 0-.138.005-.275.005-.414v-145.125c-1.371.379-2.673 1.073-3.791 2.081z" fill="#b06c6c"/><path d="m147.256 278.504v-125.488c-4.792 4.011-10.963 6.428-17.701 6.428-7.109 0-13.588-2.687-18.481-7.101-1.095-.988-2.367-1.67-3.708-2.054v145.098c0 .147.005.293.006.441 1.338.384 2.609 1.066 3.702 2.052 4.893 4.413 11.372 7.1 18.481 7.1 7.108 0 13.588-2.687 18.48-7.1.22-.199.448-.385.682-.56-.959-6.131-1.461-12.415-1.461-18.816z" fill="#9d5e5e"/><path d="m296.831 295.881c-4.893 4.413-11.372 7.101-18.481 7.101s-13.588-2.687-18.481-7.101c-3.582-3.232-9.055-3.232-12.637 0-4.893 4.413-11.372 7.101-18.481 7.101-7.108 0-13.588-2.687-18.481-7.101-3.582-3.232-9.055-3.232-12.637 0-4.893 4.413-11.372 7.101-18.481 7.101s-13.588-2.687-18.481-7.101c-3.582-3.232-9.055-3.232-12.637 0-4.893 4.413-11.372 7.101-18.481 7.101-7.108 0-13.588-2.687-18.481-7.101-1.095-.988-2.368-1.67-3.708-2.054v1.561c0 53.366 43.262 96.628 96.628 96.628s96.628-43.262 96.628-96.628v-1.588c-1.369.379-2.671 1.072-3.789 2.081z" fill="#9d5e5e"/><path d="m148.457 295.535c-.141.114-.285.223-.422.346-4.893 4.413-11.372 7.1-18.48 7.1-7.109 0-13.588-2.687-18.481-7.1-1.095-.988-2.367-1.67-3.708-2.054v1.561c0 53.366 43.262 96.628 96.628 96.628 6.241 0 12.342-.599 18.254-1.729-38.96-15.973-67.716-51.715-73.791-94.752z" fill="#865151"/><path d="m210.215 152.525c4.418 3.985 9.813 6.479 16.488 6.837l35.441-102.134 33.148-25.314c5.95-4.544 7.09-13.051 2.547-19.001-4.544-5.951-13.051-7.09-19.001-2.547l-33.29 25.422c-3.886 2.968-6.87 6.947-8.631 11.508l-35.766 103.056c3.093-.957 6.525-.118 9.064 2.173z" fill="#b5dcff"/><path d="m248.226 56.296c1.761-4.561 4.746-8.541 8.631-11.508l33.29-25.422c2.885-2.203 6.37-3.059 9.714-2.689-.461-1.32-1.127-2.593-2.022-3.764-4.544-5.951-13.052-7.09-19.001-2.547l-33.29 25.422c-3.886 2.968-6.87 6.947-8.631 11.508l-35.766 103.056c3.093-.958 6.525-.118 9.065 2.173 1.147 1.034 2.363 1.963 3.647 2.785z" fill="#8bcaff"/><path d="m240.084 174.924-18.467-15.496c-5.033-4.223-12.537-3.567-16.76 1.466l-15.496 18.467c-2.439 2.907-3.241 6.637-2.521 10.084l17.931 18.376 4.523 3.795c5.033 4.223 12.537 3.567 16.76-1.466l15.495-18.467c4.224-5.032 3.568-12.536-1.465-16.759z" fill="#b5dcff"/><path d="m225.949 195.632-23.453-19.597c-2.232-1.865-3.772-4.244-4.625-6.815l-8.51 10.142c-2.439 2.907-3.241 6.637-2.521 10.084l17.931 18.376 4.523 3.795c5.033 4.223 12.537 3.567 16.76-1.466l9.248-11.021c-3.308-.068-6.617-1.211-9.353-3.498z" fill="#8bcaff"/><path d="m132.416 143.023 13.318 11.175c.799-.579 1.57-1.013 2.301-1.673 3.582-3.231 9.055-3.231 12.637 0 2.084 1.88 4.458 3.26 7.044 4.439l15.422-18.379c4.223-5.033 3.567-12.537-1.466-16.76l-18.467-15.496c-5.033-4.223-12.537-3.567-16.76 1.466l-15.496 18.467c-4.222 5.034-3.566 12.538 1.467 16.761z" fill="#b5dcff"/><path d="m146.771 139.516 17.109-20.389c2.36-2.812 5.647-4.382 9.039-4.647l-9.712-8.15c-5.033-4.223-12.537-3.567-16.76 1.466l-15.496 18.467c-4.223 5.033-3.567 12.537 1.466 16.76l12.541 10.524c-2.109-4.489-1.585-9.982 1.813-14.031z" fill="#8bcaff"/><path d="m158.094 228.309-1.673-25.907c-.39-6.046 4.194-11.263 10.24-11.654l25.907-1.673c6.046-.39 11.263 4.194 11.654 10.24l1.673 25.907c.39 6.046-4.194 11.263-10.24 11.654l-25.907 1.673c-6.046.39-11.264-4.194-11.654-10.24z" fill="#b5dcff"/><path d="m182.148 227.963-1.795-27.797c-.304-4.711 2.419-8.908 6.494-10.721l-20.187 1.304c-6.046.391-10.63 5.608-10.24 11.654l1.673 25.906c.391 6.046 5.608 10.63 11.654 10.24l19.005-1.227c-3.66-1.584-6.329-5.105-6.604-9.359z" fill="#8bcaff"/><g><path d="m260.733 474.541v-10.606c0-13.734-11.237-24.97-24.97-24.97h-63.536c-13.734 0-24.97 11.237-24.97 24.97v10.606z" fill="#dbedff"/></g><path d="m206.476 438.964h-34.25c-13.734 0-24.97 11.237-24.97 24.97v10.606h34.25v-10.606c0-13.733 11.236-24.97 24.97-24.97z" fill="#b5dcff"/><path d="m277.199 472.541h-146.41c-8.849 0-16.023 7.174-16.023 16.023s7.174 16.023 16.023 16.023h146.41c8.849 0 16.023-7.174 16.023-16.023s-7.174-16.023-16.023-16.023z" fill="#b5dcff"/><path d="m149.016 488.564c0-8.849 7.174-16.023 16.023-16.023h-34.25c-8.849 0-16.023 7.174-16.023 16.023s7.174 16.023 16.023 16.023h34.25c-8.849 0-16.023-7.174-16.023-16.023z" fill="#8bcaff"/></g><path d="m299.426 37.796c9.249-7.063 11.02-20.264 3.956-29.513-7.063-9.251-20.263-11.019-29.515-3.956l-33.289 25.422c-4.987 3.809-8.817 8.915-11.077 14.768-.03.08-.061.161-.088.242l-10.321 29.74h-105.74c-7.667 0-13.904 6.237-13.904 13.904v61.809 143.537c0 52.928 35.998 92.669 80.604 103.009v34.628h-8.245c-17.904 0-32.47 14.566-32.47 32.471v1.106h-8.967c-12.971 0-23.523 10.552-23.523 23.523s10.553 23.523 23.523 23.523h55.705c4.143 0 7.5-3.358 7.5-7.5s-3.357-7.5-7.5-7.5h-55.705c-4.7 0-8.523-3.823-8.523-8.523s3.823-8.523 8.523-8.523h146.41c4.699 0 8.522 3.823 8.522 8.523s-3.823 8.523-8.522 8.523h-55.705c-4.143 0-7.5 3.358-7.5 7.5s3.357 7.5 7.5 7.5h55.705c12.971 0 23.522-10.552 23.522-23.523s-10.552-23.523-23.522-23.523h-8.967v-1.106c0-17.904-14.565-32.471-32.47-32.471h-8.246v-34.628c42.518-9.855 75.134-45.829 79.977-90.032h16.033c49.324 0 89.453-40.128 89.453-89.453 0-49.324-40.129-89.452-89.453-89.452h-15.404v-39.418c0-7.667-6.237-13.904-13.904-13.904h-30.154l4.427-12.758zm8.278 236.987h15.404c23.839 0 45.486-15.021 53.866-37.378 1.454-3.878-.512-8.201-4.39-9.655-3.88-1.454-8.202.512-9.655 4.391-6.198 16.534-22.2 27.643-39.821 27.643h-15.404v-85.02h15.404c17.62 0 33.623 11.108 39.821 27.642 1.454 3.879 5.78 5.842 9.655 4.391 3.878-1.454 5.844-5.777 4.39-9.655-8.38-22.356-30.027-37.377-53.866-37.377h-15.404v-9.578-7.364h15.404c41.054 0 74.453 33.399 74.453 74.452 0 41.054-33.399 74.453-74.453 74.453h-15.404zm-77.941-185.285h12.8l-21.206 61.111c-5.58-2.064-6.257-4.575-10.507-6.616zm-33.194 92.363 13.614-16.224c1.571-1.873 4.344-2.093 6.194-.542l18.467 15.495c1.856 1.559 2.1 4.338.542 6.195l-15.496 18.466c-1.559 1.859-4.338 2.1-6.194.542l-2.065-1.733-.283-4.382c0-.007-.002-.013-.002-.02-.651-10.043-7.111-16.235-14.777-17.797zm1.423 43.765c.123 1.91-1.33 3.563-3.239 3.687l-25.906 1.673c-1.937.116-3.563-1.342-3.687-3.239l-1.673-25.907c-.123-1.909 1.329-3.563 3.238-3.686 2.471-.16 21.949-1.417 24.984-1.613 2.398-.161 4.508 1.682 4.668 4.095zm-83.544-136.128h99.438l-19.205 55.335c-.87.536-1.705 1.155-2.49 1.863-3.011 2.715-6.743 4.417-10.715 4.962l6.988-8.328c6.891-8.214 5.824-20.435-2.39-27.327l-18.467-15.496c-8.211-6.891-20.436-5.824-27.327 2.39l-15.495 18.466c-6.892 8.214-5.823 20.435 2.39 27.327l3.689 3.096c-9.513.818-14.823-4.892-16.418-6.078v-56.21zm62.527 44.189-11.235 13.389c-6.7-5.691-14.173-5.96-20.172-2.534l-8.749-7.342h-.001c-1.861-1.561-2.103-4.332-.541-6.194l15.495-18.466c1.558-1.858 4.328-2.108 6.194-.542l18.468 15.496c1.861 1.56 2.103 4.331.541 6.193zm58.369 312.699c9.633 0 17.47 7.837 17.47 17.471v1.106h-98.477v-1.106c0-9.633 7.837-17.471 17.47-17.471zm-40.292-15v-32.292c5.474.436 11.31.463 17.046 0v32.292zm8.717-46.952c-.129 0-.258 0-.387 0-45.309-.099-82.263-34.053-88.088-76.87 12.299 5.278 26.947 3.189 37.346-6.192.727-.656 1.864-.654 2.591 0 13.338 12.032 33.649 12.051 47.008 0 .728-.656 1.865-.654 2.591 0 13.338 12.032 33.649 12.051 47.008 0 .728-.656 1.865-.654 2.591 0 10.256 9.252 24.908 11.571 37.435 6.154-5.962 43.165-42.906 76.8-88.095 76.908zm88.935-95.253c-.453.332-.897.676-1.313 1.052-.001 0-.001 0-.001 0-7.635 6.888-19.268 6.898-26.914 0-6.466-5.833-16.219-5.834-22.685 0-7.649 6.9-19.283 6.885-26.914 0-6.467-5.833-16.22-5.833-22.685 0-7.649 6.9-19.283 6.885-26.914 0-6.467-5.833-16.22-5.833-22.685 0-7.634 6.887-19.267 6.898-26.914 0-.391-.353-.809-.674-1.231-.988v-125.595c12.696 5.852 27.758 3.601 38.192-5.815.729-.658 1.867-.652 2.591 0 9.819 8.853 23.904 11.512 36.402 6.574l-8.436 10.053c-1.948 2.322-3.291 5.007-3.985 7.855l-13.453.869c-10.163.657-17.896 9.459-17.24 19.622l1.673 25.907c.658 10.183 9.429 17.901 19.622 17.241l25.906-1.673c10.162-.657 17.896-9.458 17.241-19.622l-.208-3.227c7.077 1.391 14.136-1.188 18.628-6.541l15.496-18.467c6.874-8.192 5.802-20.451-2.39-27.326 0 0 0 0-.001-.001l-4.878-4.093c4.482-1.52 8.647-3.941 12.229-7.172.728-.656 1.865-.655 2.591 0 10.544 9.51 25.644 11.639 38.275 5.777.001 4.473.001 121.178.001 125.57zm0-199.683v56.146c-.453.332-.897.676-1.313 1.052h-.001c-7.651 6.901-19.28 6.885-26.914 0-6.466-5.833-16.219-5.834-22.685 0-1.281 1.156-2.699 2.118-4.204 2.9l20.854-60.098zm-35.529-38.309c-1.17.893-2.051 2.111-2.534 3.502l-6.873 19.808h-12.799l8.569-24.689c1.268-3.223 3.39-6.035 6.145-8.139l33.289-25.422c2.652-2.026 6.454-1.53 8.489 1.138 2.033 2.659 1.522 6.456-1.138 8.488z"/></g></svg>