<svg height="511pt" viewBox="-128 0 511 511.9999" width="511pt" xmlns="http://www.w3.org/2000/svg"><path d="m48.078125 464.421875v32.0625c0 4.425781 3.589844 8.015625 8.019531 8.015625h144.289063c4.425781 0 8.015625-3.589844 8.015625-8.015625v-32.0625zm0 0" fill="#dbd9dc"/><path d="m48.078125 496.484375c0 4.425781 3.589844 8.015625 8.019531 8.015625h48.09375v-40.082031h-56.113281zm0 0" fill="#c9c6ca"/><path d="m16.015625 119.726562 23.539063 345.238282c.285156 4.207031 3.78125 7.472656 7.996093 7.472656h161.378907c4.214843 0 7.710937-3.265625 7.996093-7.472656l23.539063-345.238282zm0 0" fill="#edebed"/><path d="m16.015625 119.726562 23.539063 345.238282c.285156 4.207031 3.78125 7.472656 7.996093 7.472656h42.898438l-10.304688-352.710938zm0 0" fill="#dbd9dc"/><path d="m228.863281 96.527344c-2.714843-5.433594-8.265625-8.863282-14.339843-8.863282h-172.566407c-6.074219 0-11.625 3.429688-14.339843 8.863282l-11.601563 23.199218h224.449219zm0 0" fill="#ff9ba0"/><path d="m122.117188 87.664062h-80.160157c-6.074219 0-11.625 3.429688-14.339843 8.863282l-11.601563 23.199218h80.160156l11.601563-23.199218c2.714844-5.433594 8.265625-8.863282 14.339844-8.863282zm0 0" fill="#ff8087"/><path d="m234.445312 208.003906c-.667968-.011718-1.320312-.101562-1.996093-.101562-53.125 0-96.191407 43.070312-96.191407 96.195312 0 49.378906 37.21875 90.011719 85.125 95.507813zm0 0" fill="#ff8087"/><path d="m223.023438 375.558594 9.789062-143.585938c-.121094 0-.238281-.019531-.363281-.019531-39.84375 0-72.144531 32.300781-72.144531 72.144531 0 36.640625 27.339843 66.832032 62.71875 71.460938zm0 0" fill="#ff9ba0"/><path d="m81.082031 151.792969-.9375-32.066407h-64.128906l2.183594 32.066407zm0 0" fill="#c9c6ca"/><path d="m248.480469 112.226562h-3.378907l-9.527343-19.054687c-4.011719-8.023437-12.078125-13.007813-21.050781-13.007813h-78.78125v-28.503906c0-3.789062 2.542968-7.164062 6.1875-8.203125l100.597656-28.742187c3.980468-1.140625 6.289062-5.289063 5.148437-9.273438-1.136719-3.984375-5.289062-6.289062-9.269531-5.152344l-100.597656 28.742188c-10.050782 2.875-17.066406 12.175781-17.066406 22.628906v28.503906h-78.785157c-8.972656 0-17.039062 4.984376-21.046875 13.007813l-9.527344 19.054687h-3.382812c-4.140625 0-7.5 3.359376-7.5 7.5 0 4.144532 3.359375 7.5 7.5 7.5h1.011719l23.058593 338.25c.382813 5.617188 3.765626 10.382813 8.507813 12.789063v18.21875c0 8.554687 6.960937 15.515625 15.519531 15.515625h144.289063c8.554687 0 15.515625-6.960938 15.515625-15.515625v-18.21875c4.742187-2.40625 8.125-7.171875 8.507812-12.789063l23.0625-338.25h1.007813c4.140625 0 7.5-3.359374 7.5-7.5 0-4.140624-3.355469-7.5-7.5-7.5zm-214.15625-12.347656c1.453125-2.910156 4.378906-4.714844 7.632812-4.714844h172.566407c3.253906 0 6.179687 1.804688 7.632812 4.714844l6.171875 12.347656h-200.175781zm166.0625 397.121094h-144.289063c-.285156 0-.519531-.230469-.519531-.515625v-16.546875h8.53125c4.144531 0 7.5-3.359375 7.5-7.5 0-4.144531-3.355469-7.5-7.5-7.5h-16.558594c-.269531 0-.496093-.210938-.515625-.480469l-20.804687-305.164062h158.121093c4.140626 0 7.5-3.359375 7.5-7.5 0-4.144531-3.359374-7.5-7.5-7.5h-159.144531l-1.164062-17.066407h208.394531l-1.164062 17.066407h-14.855469c-4.144531 0-7.5 3.355469-7.5 7.5 0 4.140625 3.355469 7.5 7.5 7.5h13.832031l-2.863281 41.976562c-54.832031 2.648438-98.632813 48.089844-98.632813 103.570313 0 50.128906 35.964844 92.894531 84.621094 101.933594l-3.933594 57.683593c-.015625.269531-.242187.480469-.511718.480469h-112.753907c-4.140625 0-7.5 3.355469-7.5 7.5 0 4.140625 3.359375 7.5 7.5 7.5h104.726563v16.546875c0 .285156-.230469.515625-.515625.515625zm14.019531-105.324219c-40.734375-8.40625-70.648438-44.550781-70.648438-86.835937 0-46.859375 36.527344-85.34375 82.601563-88.480469zm0 0"/></svg>