<svg height="512pt" viewBox="-48 0 512 512.001" width="512pt" xmlns="http://www.w3.org/2000/svg"><path d="m159.410156 33.277344 31.90625-3.546875 31.921875 287.144531-31.902343 3.546875zm0 0" fill="#f7d291"/><path d="m62.546875 18.359375 30.480469-10.066406 90.632812 274.316406-30.480468 10.070313zm0 0" fill="#d29b6e"/><path d="m312.460938 255.71875c0 57.617188-46.710938 104.328125-104.328126 104.328125-57.621093 0-104.332031-46.710937-104.332031-104.328125 0-57.621094 46.710938-104.332031 104.332031-104.332031 57.617188 0 104.328126 46.710937 104.328126 104.332031zm0 0" fill="#faebc8"/><path d="m263.230469 344.191406c-7.082031-57.390625-51.972657-102.992187-109.007813-111.148437-5.464844-.785157-9.714844-5.324219-10.074218-10.832031-.144532-2.191407-.21875-4.394532-.21875-6.621094 0-18.496094 4.859374-35.835938 13.300781-50.898438-26.175781 14.667969-45.371094 40.277344-51.402344 70.636719h-.003906c-.007813.042969-.007813.085937-.019531.125-.574219 2.929687-1.003907 5.910156-1.328126 8.921875-.070312.621094-.136718 1.242188-.195312 1.867188-.28125 3.125-.476562 6.277343-.476562 9.472656 0 3.441406.1875 6.832031.511718 10.183594.113282 1.148437.324219 2.265624.46875 3.402343.285156 2.175781.574219 4.347657.992188 6.476563.261718 1.367187.617187 2.699218.9375 4.042968.4375 1.839844.875 3.679688 1.40625 5.480469.429687 1.453125.929687 2.875 1.417968 4.300781.558594 1.613282 1.125 3.222657 1.757813 4.800782.601563 1.507812 1.253906 2.984375 1.925781 4.457031.640625 1.402344 1.300782 2.789063 2 4.15625.796875 1.554687 1.617188 3.085937 2.488282 4.597656.671874 1.167969 1.378906 2.3125 2.097656 3.453125 1.015625 1.617188 2.050781 3.214844 3.148437 4.769532.625.882812 1.289063 1.734374 1.941407 2.59375 1.296874 1.722656 2.609374 3.425781 4.011718 5.058593.40625.476563.84375.921875 1.261719 1.390625 15.71875 17.707032 37.332031 29.972656 61.800781 33.789063 5.28125.824219 10.648438 1.375 16.15625 1.375 20.253906.003906 39.097656-5.863281 55.101563-15.851563zm0 0" fill="#f5dcb4"/><path d="m384.6875 360.046875c0 57.617187-46.710938 104.328125-104.328125 104.328125-57.621094 0-104.328125-46.710938-104.328125-104.328125 0-57.621094 46.707031-104.328125 104.328125-104.328125 57.617187 0 104.328125 46.707031 104.328125 104.328125zm0 0" fill="#d29b6e"/><path d="m176.03125 360.046875c0 38.320313 20.722656 71.722656 51.515625 89.863281 22.714844-23.164062 36.761719-54.859375 36.761719-89.863281 0-35.007813-14.046875-66.703125-36.761719-89.863281-30.792969 18.136718-51.515625 51.539062-51.515625 89.863281zm0 0" fill="#c48d66"/><path d="m240.230469 360.046875c0 57.617187-46.707031 104.328125-104.328125 104.328125-57.617188 0-104.328125-46.710938-104.328125-104.328125 0-57.621094 46.710937-104.328125 104.328125-104.328125 57.621094 0 104.328125 46.707031 104.328125 104.328125zm0 0" fill="#785353"/><path d="m176.03125 424.246094c-57.621094 0-104.328125-46.707032-104.328125-104.328125 0-18.496094 4.859375-35.835938 13.300781-50.898438-31.863281 17.855469-53.429687 51.902344-53.429687 91.023438 0 57.621093 46.710937 104.332031 104.332031 104.332031 39.121094 0 73.167969-21.566406 91.023438-53.429688-15.0625 8.441407-32.402344 13.300782-50.898438 13.300782zm0 0" fill="#6e4848"/><path d="m408.761719 360.046875c-50.171875 0-50.171875 24.074219-100.339844 24.074219-50.171875 0-50.171875-24.074219-100.34375-24.074219-50.136719 0-50.136719 24.074219-100.273437 24.074219-50.152344 0-50.152344-24.074219-100.304688-24.074219l59.964844 134.921875c2.578125 5.796875 8.324218 9.53125 14.667968 9.53125h251.996094c6.34375 0 12.089844-3.734375 14.667969-9.53125zm0 0" fill="#edebed"/><path d="m107.804688 384.121094c-50.152344 0-50.152344-24.074219-100.304688-24.074219l59.964844 134.921875c2.578125 5.796875 8.324218 9.53125 14.667968 9.53125h60.511719l-25.742187-120.675781c-2.847656.1875-5.859375.296875-9.097656.296875zm0 0" fill="#dbd9dc"/><path d="m415.050781 355.957031c-1.382812-2.128906-3.75-3.410156-6.289062-3.410156-6.261719 0-11.792969.355469-16.769531.980469-2.59375-44.898438-31.796876-82.773438-72.035157-98.0625-.136719-60.542969-48.628906-109.941406-108.824219-111.535156l-13.488281-114.996094c-.480469-4.117188-4.207031-7.0625-8.320312-6.578125l-31.882813 3.742187c-1.976562.230469-3.777344 1.234375-5.011718 2.796875-1.234376 1.5625-1.796876 3.546875-1.5625 5.523438l13.863281 118.238281c-4.921875 2.078125-9.667969 4.507812-14.203125 7.242188l-50.25-154.714844c-1.277344-3.9375-5.503906-6.09375-9.449219-4.816406l-30.53125 9.917968c-1.890625.613282-3.460937 1.957032-4.363281 3.726563-.902344 1.773437-1.066406 3.832031-.453125 5.722656l57.554687 177.207031c-10.558594 17.023438-16.679687 37.074219-16.726562 58.527344-40.242188 15.285156-69.445313 53.160156-72.035156 98.0625-4.976563-.625-10.507813-.984375-16.773438-.984375-2.539062 0-4.902344 1.285156-6.289062 3.414063-1.382813 2.128906-1.59375 4.8125-.5625 7.132812l59.964843 134.921875c3.777344 8.496094 12.222657 13.984375 21.519531 13.984375h251.996094c9.296875 0 17.746094-5.488281 21.523438-13.984375l59.964844-134.921875c1.03125-2.320312.816406-5.007812-.566407-7.136719zm-37.933593.566407c-8.464844 2.414062-15.175782 5.632812-21.769532 8.796874-12.109375 5.8125-23.546875 11.300782-46.929687 11.300782-23.378907 0-34.816407-5.488282-46.925781-11.300782-4.378907-2.101562-8.8125-4.226562-13.773438-6.125-.210938-28.414062-11.074219-54.34375-28.789062-73.980468 17.292968-14.214844 38.890624-22 61.425781-22 52.214843.003906 94.898437 41.542968 96.761719 93.308594zm-204.449219-264.972657 14.992187-18.976562 3.140625 26.753906-14.996093 18.976563zm10.953125-53.421875 1.570312 13.375-14.992187 18.976563-3.5625-30.363281zm-5.34375 101.246094 14.992187-18.976562 2.832031 24.140624c-5.757812.617188-11.386718 1.675782-16.851562 3.136719zm-75.34375-22.09375 10.984375-21.546875 8.320312 25.621094-10.984375 21.546875zm-14.875-45.796875 10.984375-21.546875 8.320312 25.621094-10.984375 21.546875zm.269531-54.53125 4.160156 12.808594-10.980469 21.546875-9.441406-29.074219zm29.480469 146.125 10.980468-21.546875 8.902344 27.398438c-4.929687 4.007812-9.511718 8.425781-13.695312 13.203124zm90.324218-4.191406c51.78125 0 94.199219 40.863281 96.707032 92.035156-7.882813-1.765625-16.074219-2.707031-24.480469-2.707031-26.605469 0-52.085937 9.378906-72.269531 26.492187-19.496094-16.515625-44.695313-26.492187-72.1875-26.492187-8.40625 0-16.597656.941406-24.480469 2.707031 2.507813-51.171875 44.925781-92.035156 96.710937-92.035156zm-129.992187 123.496093 1.84375 2.210938c1.480469 1.78125 3.617187 2.699219 5.765625 2.699219 1.691406 0 3.394531-.570313 4.796875-1.738281 3.183594-2.652344 3.613281-7.378907.960937-10.5625l-.566406-.679688c13.441406-7.082031 28.742188-11.09375 44.960938-11.09375 9.203125 0 18.109375 1.289062 26.550781 3.699219l-2.546875 2.347656c-3.042969 2.808594-3.234375 7.554687-.421875 10.597656 1.476563 1.601563 3.492187 2.414063 5.511719 2.414063 1.820312 0 3.644531-.660156 5.085937-1.988282l6.519531-6.019531c.488282-.453125.898438-.957031 1.238282-1.492187 30.957031 14.9375 52.804687 45.875 54.746094 82.011718-6.1875-1.253906-13.296876-2.074218-21.792969-2.21875l-4.296875-10.027343c-1.632813-3.804688-6.039063-5.566407-9.847656-3.9375-3.804688 1.632812-5.570313 6.042969-3.9375 9.847656l2.011718 4.699219c-18.316406 1.75-29.324218 7.027344-40.027344 12.167968-12.101562 5.8125-23.53125 11.300782-46.890624 11.300782-6.359376 0-11.828126-.410156-16.671876-1.117188 1.367188-2.230468 1.527344-5.113281.167969-7.566406-2.011719-3.621094-6.578125-4.925781-10.199219-2.914062l-9.03125 5.015624c-.109374.0625-.210937.136719-.320312.203126-3.773438-1.527344-7.285156-3.210938-10.851562-4.921876-6.589844-3.164062-13.296876-6.378906-21.75-8.796874 1.085937-30.316407 16.179687-57.128907 38.992187-74.140626zm263.804687 209.539063c-1.371093 3.085937-4.441406 5.078125-7.816406 5.078125h-251.996094c-3.375 0-6.441406-1.992188-7.8125-5.078125l-38.355468-86.296875c1.449218.671875 2.949218 1.386719 4.554687 2.160156 14.792969 7.097656 33.203125 15.9375 67.28125 15.9375 34.085938 0 52.488281-8.839844 67.285157-15.941406 10.921874-5.246094 16.9375-8.136719 32.992187-8.136719 16.082031 0 22.105469 2.894531 33.039063 8.140625 14.792968 7.101563 33.203124 15.9375 67.300781 15.9375 7.328125 0 14.378906-.425781 20.964843-1.261718 4.109376-.519532 7.019532-4.277344 6.496094-8.382813-.519531-4.109375-4.273437-7.015625-8.382812-6.496094-5.964844.753907-12.382813 1.140625-19.078125 1.140625-30.683594 0-46.691407-7.683594-60.8125-14.460937-11.628907-5.582031-20.03125-9.617188-39.53125-9.617188-19.464844 0-27.863281 4.035157-39.488281 9.617188-14.117188 6.777343-30.113282 14.457031-60.785157 14.457031-30.667969 0-46.667969-7.679688-60.800781-14.464844-6.460938-3.097656-12.160156-5.832031-19.457031-7.574218l-8.269531-18.609376c15.828124 1.503907 25.257812 6.03125 35.132812 10.773438 13.085938 6.28125 26.613281 12.773438 53.398438 12.773438 26.773437 0 40.300781-6.496094 53.382812-12.777344 12.097656-5.808594 23.527344-11.296875 46.890625-11.296875 23.378906 0 34.816406 5.488281 46.925781 11.300781 13.089844 6.28125 26.621094 12.773438 53.414063 12.773438s40.328125-6.492188 53.417969-12.773438c9.878906-4.742188 19.3125-9.269531 35.152343-10.773438l-8.28125 18.625c-7.289062 1.738282-12.984375 4.449219-19.488281 7.570313-3.628906 1.742187-7.378906 3.542969-11.523438 5.269531-3.824218 1.59375-5.632812 5.984375-4.039062 9.808594 1.203125 2.878906 3.988281 4.617188 6.925781 4.617188.960938 0 1.941407-.1875 2.882813-.582032 4.507812-1.875 8.617187-3.847656 12.257812-5.59375 1.621094-.777344 3.125-1.5 4.574219-2.171875zm0 0"/><path d="m73.347656 336.285156c.648438 3.632813 3.808594 6.183594 7.375 6.183594.4375 0 .882813-.039062 1.328125-.117188 4.074219-.730468 6.789063-4.625 6.0625-8.703124l-2.507812-14.042969c-.730469-4.078125-4.625-6.792969-8.703125-6.066407-4.074219.730469-6.789063 4.625-6.0625 8.703126zm0 0"/><path d="m117.847656 309.863281c1.753906 0 3.515625-.609375 4.9375-1.855469l4.011719-3.511718c3.121094-2.726563 3.4375-7.464844.707031-10.582032-2.726562-3.117187-7.464844-3.433593-10.582031-.707031l-4.011719 3.511719c-3.121094 2.730469-3.4375 7.46875-.707031 10.585938 1.484375 1.691406 3.558594 2.558593 5.644531 2.558593zm0 0"/><path d="m169.980469 319.449219c1.4375 1.308593 3.242187 1.953125 5.042969 1.953125 2.039062 0 4.074218-.828125 5.554687-2.457032 2.785156-3.066406 2.558594-7.808593-.503906-10.59375l-5.519531-5.015624c-3.0625-2.789063-7.808594-2.5625-10.59375.503906-2.785157 3.066406-2.558594 7.808594.503906 10.59375zm0 0"/><path d="m127.910156 349.835938c.175782 4.027343 3.496094 7.175781 7.488282 7.175781.109374 0 .21875-.003907.328124-.007813 4.140626-.179687 7.347657-3.679687 7.167969-7.816406l-.5-11.539062c-.179687-4.136719-3.675781-7.328126-7.820312-7.167969-4.136719.179687-7.347657 3.683593-7.167969 7.820312zm0 0"/></svg>