<?xml version="1.0" encoding="iso-8859-1"?>
<!-- Generator: Adobe Illustrator 19.0.0, SVG Export Plug-In . SVG Version: 6.00 Build 0)  -->
<svg version="1.1" id="Capa_1" xmlns="http://www.w3.org/2000/svg" xmlns:xlink="http://www.w3.org/1999/xlink" x="0px" y="0px"
	 viewBox="0 0 512.001 512.001" style="enable-background:new 0 0 512.001 512.001;" xml:space="preserve">
<path style="fill:#F3B562;" d="M336,363H176c-27.614,0-50-22.386-50-50v-20h260v20C386,340.615,363.614,363,336,363z"/>
<path style="fill:#EFA143;" d="M356,293v20c0,27.614-22.386,50-50,50h30c27.614,0,50-22.386,50-50v-20H356z"/>
<path style="fill:#F3B562;" d="M386,198.17V263H126v-64.83C126,132.35,179.35,79,245.17,79h21.66C332.65,79,386,132.35,386,198.17z"
	/>
<path style="fill:#EFA143;" d="M266.83,79h-21.66c-1.396,0-2.785,0.033-4.17,0.081c63.888,2.198,115,54.666,115,119.089V263h30
	v-64.83C386,132.35,332.65,79,266.83,79z"/>
<path style="fill:#FFCCC4;" d="M139.833,293c-2.117,0-3.833-1.716-3.833-3.833v-22.333c0-2.117,1.716-3.833,3.833-3.833h232.333
	c2.117,0,3.833,1.716,3.833,3.833v22.333c0,2.117-1.716,3.833-3.833,3.833H139.833z"/>
<path style="fill:#F7A097;" d="M372.167,263h-30c2.117,0,3.833,1.716,3.833,3.833v22.333c0,2.117-1.716,3.833-3.833,3.833h30
	c2.117,0,3.833-1.716,3.833-3.833v-22.333C376,264.716,374.284,263,372.167,263z"/>
<path style="fill:#D9D9D9;" d="M489.5,393h-467c-8.284,0-15-6.716-15-15l0,0c0-8.284,6.716-15,15-15h467c8.284,0,15,6.716,15,15l0,0
	C504.5,386.284,497.784,393,489.5,393z"/>
<g>
	<path style="fill:#C1C8C0;" d="M489.5,363h-30c8.284,0,15,6.716,15,15s-6.716,15-15,15h30c8.284,0,15-6.716,15-15
		S497.784,363,489.5,363z"/>
	<path style="fill:#C1C8C0;" d="M423.668,433H88.332C70.475,433,56,418.525,56,400.668V393h400v7.668
		C456,418.525,441.525,433,423.668,433z"/>
</g>
<path style="fill:#ADB3AC;" d="M426,393v7.668C426,418.525,411.525,433,393.668,433h30C441.525,433,456,418.525,456,400.668V393H426
	z"/>
<path style="fill:#BC7458;" d="M386,198.17v3.23c-2.83-1.39-6.17-2.26-10.39-2.26c-9.7,0-14.75,4.6-19.61,9.39
	c-5.27,5.2-10.32,10.61-20.84,10.61c-20.22,0-20.22-20-40.44-20c-20.23,0-20.23,20-40.45,20s-20.22-20-40.44-20s-20.22,20-40.44,20
	s-20.22-20-40.44-20c-2.63,0-4.92,0.34-6.95,0.93v-1.9c0-64.43,51.13-116.92,115.03-119.09c0.08-0.01,0.16-0.01,0.24-0.01
	c0.45-0.01,0.9-0.03,1.36-0.04c0.85-0.02,1.69-0.03,2.54-0.03h21.66C332.65,79,386,132.35,386,198.17z"/>
<path style="fill:#9B6656;" d="M386,198.17v3.23c-2.83-1.39-6.17-2.26-10.39-2.26c-9.7,0-14.75,4.6-19.61,9.39v-10.36
	c0-64.41-51.09-116.87-114.97-119.09c0.08-0.01,0.16-0.01,0.24-0.01c0.45-0.01,0.9-0.03,1.36-0.04c0.85-0.02,1.69-0.03,2.54-0.03
	h21.66C332.65,79,386,132.35,386,198.17z"/>
<path d="M489.5,355.5H374.689C386.24,344.977,393.5,329.82,393.5,313v-20c0-4.143-3.358-7.5-7.5-7.5h-2.5v-15h2.5
	c4.142,0,7.5-3.357,7.5-7.5v-64.83c0-33.205-12.754-64.588-35.914-88.369c-2.891-2.969-7.64-3.031-10.605-0.141
	c-2.968,2.89-3.031,7.638-0.141,10.605c18.917,19.425,29.952,44.606,31.471,71.485c-0.884-0.066-1.78-0.11-2.702-0.11
	c-13.19,0-20.012,6.745-25.493,12.165c-4.771,4.718-7.923,7.835-14.957,7.835c-7.027,0-10.178-3.116-14.946-7.832
	c-5.481-5.421-12.302-12.168-25.495-12.168c-13.198,0-20.021,6.747-25.503,12.169c-4.769,4.716-7.919,7.831-14.946,7.831
	s-10.178-3.116-14.946-7.832c-5.481-5.421-12.302-12.168-25.494-12.168c-13.193,0-20.014,6.747-25.495,12.168
	c-4.768,4.716-7.918,7.832-14.945,7.832s-10.178-3.116-14.946-7.832c-5.375-5.316-12.054-11.891-24.75-12.144
	C137.075,133.106,185.779,86.5,245.17,86.5h21.66c19.638,0,38.946,5.166,55.839,14.938c3.585,2.072,8.174,0.849,10.248-2.736
	c2.074-3.586,0.849-8.174-2.736-10.248C311.008,77.362,289.102,71.5,266.83,71.5h-21.66c-69.846,0-126.67,56.824-126.67,126.67
	v1.748c0,0.01,0,0.021,0,0.031v23.878c0,4.143,3.358,7.5,7.5,7.5s7.5-3.357,7.5-7.5v-17.171c6.638,0.163,9.756,3.228,14.396,7.816
	c5.481,5.421,12.302,12.168,25.495,12.168c13.192,0,20.013-6.747,25.494-12.168c4.768-4.716,7.918-7.832,14.946-7.832
	s10.177,3.116,14.945,7.832c5.481,5.421,12.302,12.168,25.495,12.168c13.191,0,20.012-6.745,25.493-12.165
	c4.771-4.718,7.923-7.835,14.957-7.835c7.027,0,10.178,3.116,14.946,7.832c5.481,5.421,12.302,12.168,25.495,12.168
	c13.198,0,20.021-6.747,25.504-12.169c4.769-4.716,7.919-7.831,14.945-7.831c1.035,0,1.981,0.09,2.89,0.227V255.5l0,0H133.498l0,0
	c-0.088-4.065-3.411-7.334-7.498-7.334c-4.142,0-7.5,3.357-7.5,7.5V263c0,4.143,3.358,7.5,7.5,7.5h2.5v15H126
	c-4.142,0-7.5,3.357-7.5,7.5v20c0,16.82,7.261,31.976,18.811,42.5H22.5C10.093,355.5,0,365.594,0,378s10.093,22.5,22.5,22.5h26
	v0.168c0,21.964,17.868,39.832,39.832,39.832h335.337c21.963,0,39.832-17.868,39.832-39.832V400.5h26
	c12.407,0,22.5-10.094,22.5-22.5S501.907,355.5,489.5,355.5z M133.5,313v-12.5h186.25c4.142,0,7.5-3.357,7.5-7.5s-3.358-7.5-7.5-7.5
	H143.5v-15h225v15h-16.25c-4.142,0-7.5,3.357-7.5,7.5s3.358,7.5,7.5,7.5h26.25V313c0,23.435-19.065,42.5-42.5,42.5H176
	C152.565,355.5,133.5,336.435,133.5,313z M448.5,400.668c0,13.692-11.139,24.832-24.832,24.832H88.332
	c-13.692,0-24.832-11.14-24.832-24.832V400.5h385V400.668z M489.5,385.5L489.5,385.5h-467l0,0c-4.136,0-7.5-3.364-7.5-7.5
	s3.364-7.5,7.5-7.5l0,0h467l0,0c4.136,0,7.5,3.364,7.5,7.5S493.636,385.5,489.5,385.5z"/>
<g>
</g>
<g>
</g>
<g>
</g>
<g>
</g>
<g>
</g>
<g>
</g>
<g>
</g>
<g>
</g>
<g>
</g>
<g>
</g>
<g>
</g>
<g>
</g>
<g>
</g>
<g>
</g>
<g>
</g>
</svg>
