<svg height="512pt" viewBox="0 -61 512 512" width="512pt" xmlns="http://www.w3.org/2000/svg"><path d="m472.628906 286.621094h-433.25c-7.101562 0-12.859375-5.757813-12.859375-12.859375v-42.375c0-7.101563 5.757813-12.859375 12.859375-12.859375h433.25c7.101563 0 12.855469 5.753906 12.855469 12.859375v42.375c0 7.101562-5.753906 12.859375-12.855469 12.859375zm0 0" fill="#945b44"/><path d="m408.332031 7.492188h-304.664062c-53.117188 0-96.175781 43.058593-96.175781 96.171874v.839844c0 19.582032 15.871093 35.453125 35.453124 35.453125h426.109376c19.582031 0 35.453124-15.871093 35.453124-35.453125v-.839844c0-53.113281-43.058593-96.171874-96.175781-96.171874zm0 0" fill="#ffc265"/><path d="m504.507812 103.671875v.839844c0 19.578125-15.875 35.449219-35.453124 35.449219h-426.109376c-15.582031 0-28.808593-10.050782-33.574218-24.023438.621094.03125 1.238281.050781 1.859375.050781h426.109375c19.578125 0 35.453125-15.875 35.453125-35.453125v-.839844c0-24.140624-8.890625-46.21875-23.597657-63.109374 32.6875 15.355468 55.3125 48.578124 55.3125 87.085937zm0 0" fill="#ffb541"/><path d="m429.246094 381.984375h-346.484375c-39.714844 0-71.914063-23.308594-71.914063-63.027344v-22.113281c0-5.648438 4.578125-10.222656 10.222656-10.222656h469.863282c5.648437 0 10.222656 4.578125 10.222656 10.222656v22.113281c.003906 39.71875-32.195312 63.027344-71.910156 63.027344zm0 0" fill="#ffc265"/><path d="m501.160156 296.847656v22.117188c0 29.375-17.609375 49.773437-42.851562 58.394531 7.769531-9.917969 12.304687-22.515625 12.304687-37.417969v-22.117187c0-5.652344-4.574219-10.226563-10.21875-10.226563h-449.542969v-10.75c0-5.652344 4.574219-10.226562 10.21875-10.226562h469.859376c5.65625 0 10.230468 4.574218 10.230468 10.226562zm0 0" fill="#ffb541"/><path d="m209.824219 218.523438 99.5 40.394531c9.699219 3.941406 20.09375 3.992187 29.816406.148437l102.589844-40.542968zm0 0" fill="#e9b900"/><path d="m267.804688 218.523438 49.746093 20.199218c4.851563 1.96875 10.050781 1.996094 14.910157.074219l51.296874-20.269531h-115.953124zm0 0" fill="#fbc700"/><g fill="#ffe9c8"><path d="m163.195312 7.492188v49.21875c0 12.527343-10.167968 22.683593-22.695312 22.683593s-22.695312-10.15625-22.695312-22.683593v-49.21875zm0 0"/><path d="m278.699219 7.492188v49.21875c0 12.527343-10.167969 22.683593-22.695313 22.683593s-22.695312-10.15625-22.695312-22.683593v-49.21875zm0 0"/><path d="m394.203125 7.492188v49.21875c0 12.527343-10.167969 22.683593-22.695313 22.683593-12.527343 0-22.695312-10.15625-22.695312-22.683593v-49.21875zm0 0"/></g><path d="m163.195312 7.492188v49.21875c0 12.527343-10.167968 22.683593-22.695312 22.683593-3.320312 0-6.460938-.707031-9.304688-1.996093 7.886719-3.546876 13.382813-11.476563 13.382813-20.6875v-49.21875zm0 0" fill="#fde6bf"/><path d="m278.699219 7.492188v49.21875c0 12.527343-10.167969 22.683593-22.695313 22.683593-3.320312 0-6.460937-.707031-9.300781-1.996093 7.886719-3.546876 13.378906-11.476563 13.378906-20.6875v-49.21875zm0 0" fill="#fde6bf"/><path d="m394.203125 7.492188v49.21875c0 12.527343-10.167969 22.683593-22.695313 22.683593-3.320312 0-6.460937-.707031-9.304687-1.996093 7.890625-3.550782 13.382813-11.480469 13.382813-20.6875v-49.21875zm0 0" fill="#fde6bf"/><path d="m461.828125 218.523438h-411.644531c-9.519532 0-17.234375-7.714844-17.234375-17.230469v-17.914063c0-9.515625 7.714843-17.230468 17.234375-17.230468h411.644531c9.515625 0 17.230469 7.714843 17.230469 17.230468v17.914063c0 9.515625-7.71875 17.230469-17.230469 17.230469zm0 0" fill="#ea4444"/><path d="m470.183594 193.050781c-15.332032 4.707031-19.976563 16.203125-42.710938 16.203125-28.589844 0-28.589844-18.179687-57.167968-18.179687-28.578126 0-28.578126 18.179687-57.15625 18.179687-28.578126 0-28.578126-18.179687-57.167969-18.179687-28.578125 0-28.578125 18.179687-57.15625 18.179687s-28.578125-18.179687-57.148438-18.179687c-28.578125 0-28.578125 18.179687-57.15625 18.179687-22.726562 0-27.378906-11.496094-42.714843-16.203125-6.910157-2.125-10.097657-10.105469-6.703126-16.492187l2.820313-5.273438c3.113281-3.164062 7.460937-5.132812 12.253906-5.132812h411.648438c4.773437 0 9.097656 1.949218 12.226562 5.085937l2.835938 5.320313c3.40625 6.386718.21875 14.367187-6.703125 16.492187zm0 0" fill="#d93131"/><path d="m35.109375 158.117188c-3.40625 6.382812-.214844 14.367187 6.699219 16.492187 15.332031 4.703125 19.984375 16.203125 42.714844 16.203125 28.574218 0 28.574218-18.175781 57.148437-18.175781 28.578125 0 28.578125 18.175781 57.15625 18.175781s28.578125-18.175781 57.15625-18.175781 28.578125 18.175781 57.160156 18.175781c28.578125 0 28.578125-18.175781 57.15625-18.175781 28.582031 0 28.582031 18.175781 57.164063 18.175781 22.734375 0 27.386718-11.5 42.722656-16.207031 6.914062-2.121094 10.105469-10.105469 6.703125-16.488281l-8.871094-16.632813h-424.039062zm0 0" fill="#43cd8e"/><path d="m35.109375 158.117188c-3.40625 6.382812-.214844 14.367187 6.699219 16.492187 15.332031 4.703125 19.984375 16.203125 42.714844 16.203125 28.574218 0 28.574218-18.175781 57.148437-18.175781 28.578125 0 28.578125 18.175781 57.15625 18.175781s28.578125-18.175781 57.15625-18.175781 28.578125 18.175781 57.160156 18.175781c28.578125 0 28.578125-18.175781 57.15625-18.175781 28.582031 0 28.582031 18.175781 57.164063 18.175781 22.734375 0 27.386718-11.5 42.722656-16.207031 6.914062-2.121094 10.105469-10.105469 6.703125-16.488281l-8.871094-16.632813h-424.039062zm0 0" fill="#43cd8e"/><path d="m512 104.507812v-.839843c0-57.164063-46.503906-103.667969-103.667969-103.667969h-304.664062c-57.164063 0-103.667969 46.503906-103.667969 103.667969v.839843c0 20.234376 14.070312 37.230469 32.941406 41.753907l-4.445312 8.332031c-2.695313 5.058594-2.988282 11.003906-.796875 16.308594.15625.382812.351562.746094.535156 1.117187-1.773437 3.402344-2.777344 7.265625-2.777344 11.359375v17.914063c0 4.621093 1.28125 8.945312 3.492188 12.648437-5.929688 3.5625-9.921875 10.035156-9.921875 17.445313v42.375c0 1.882812.28125 3.699219.761718 5.433593-9.171874.664063-16.433593 8.316407-16.433593 17.648438v22.117188c0 41.519531 32.652343 70.515624 79.40625 70.515624h31.894531c4.136719 0 7.492188-3.351562 7.492188-7.492187 0-4.136719-3.355469-7.488281-7.492188-7.488281h-31.894531c-44.5 0-64.421875-27.894532-64.421875-55.535156v-22.117188c0-1.503906 1.226562-2.730469 2.730468-2.730469h469.863282c1.507812 0 2.734375 1.226563 2.734375 2.730469v22.117188c0 27.640624-19.921875 55.535156-64.425781 55.535156h-280.621094c-4.140625 0-7.492188 3.351562-7.492188 7.488281 0 4.140625 3.351563 7.492187 7.492188 7.492187h280.625c46.75 0 79.40625-28.996093 79.40625-70.515624v-22.117188c0-9.332031-7.261719-16.988281-16.433594-17.648438.484375-1.734374.757812-3.550781.757812-5.433593v-42.375c0-7.410157-3.988281-13.882813-9.921874-17.445313 2.214843-3.703125 3.492187-8.027344 3.492187-12.648437v-17.914063c0-4.097656-1.007813-7.957031-2.78125-11.363281.179687-.367187.375-.730469.535156-1.113281 2.1875-5.304688 1.898438-11.25-.800781-16.308594l-4.441406-8.332031c18.871094-4.519531 32.941406-21.519531 32.941406-41.753907zm-155.695312-89.523437h30.40625v41.726563c0 8.375-6.820313 15.191406-15.203126 15.191406-8.382812 0-15.203124-6.816406-15.203124-15.191406zm-231.007813 0h30.40625v41.726563c0 8.375-6.820313 15.191406-15.203125 15.191406s-15.203125-6.816406-15.203125-15.191406zm-73.375 173.0625c7.5625 4.808594 16.128906 10.257813 32.601563 10.257813 16.464843 0 25.035156-5.449219 32.59375-10.261719 6.679687-4.246094 12.449218-7.914063 24.554687-7.914063 12.109375 0 17.878906 3.667969 24.558594 7.917969 7.558593 4.808594 16.125 10.257813 32.597656 10.257813 16.46875 0 25.039063-5.449219 32.597656-10.257813 6.679688-4.25 12.449219-7.917969 24.558594-7.917969s17.878906 3.667969 24.558594 7.917969c7.5625 4.808594 16.128906 10.257813 32.601562 10.257813 16.46875 0 25.039063-5.449219 32.597657-10.257813 6.679687-4.25 12.449218-7.917969 24.558593-7.917969s17.878907 3.667969 24.5625 7.917969c7.558594 4.808594 16.132813 10.257813 32.601563 10.257813 16.472656 0 25.042968-5.449219 32.605468-10.257813 3.800782-2.417969 7.132813-4.519531 11.402344-5.96875.058594.425781.09375.859375.09375 1.300781v17.914063c0 5.367187-4.371094 9.738281-9.742187 9.738281h-411.640625c-5.371094 0-9.742188-4.371094-9.742188-9.738281v-17.914063c0-.441406.039063-.871094.097656-1.296875 4.261719 1.449219 7.589844 3.550781 11.382813 5.964844zm-10.203125-26.402344 6.753906-12.667969h415.054688l6.753906 12.664063c.582031 1.097656.644531 2.390625.167969 3.542969-.265625.644531-.9375 1.792968-2.457031 2.261718-6.664063 2.042969-11.605469 5.183594-15.964844 7.957032-6.679688 4.25-12.449219 7.917968-24.5625 7.917968-12.109375 0-17.878906-3.667968-24.5625-7.917968-7.558594-4.808594-16.128906-10.257813-32.601563-10.257813-16.46875 0-25.039062 5.449219-32.601562 10.257813-6.679688 4.246094-12.449219 7.917968-24.554688 7.917968-12.109375 0-17.878906-3.667968-24.558593-7.917968-7.5625-4.808594-16.132813-10.257813-32.601563-10.257813s-25.039063 5.449219-32.597656 10.257813c-6.683594 4.246094-12.449219 7.917968-24.558594 7.917968s-17.878906-3.667968-24.558594-7.917968c-7.558593-4.808594-16.128906-10.257813-32.597656-10.257813s-25.035156 5.449219-32.59375 10.257813c-6.679687 4.246094-12.449219 7.917968-24.554687 7.917968-12.109376 0-17.875-3.667968-24.554688-7.917968-4.359375-2.773438-9.296875-5.914063-15.960938-7.957032-1.519531-.46875-2.191406-1.617187-2.457031-2.265624-.480469-1.148438-.417969-2.441407.167969-3.535157zm360.671875 64.371094-66.003906 26.082031c-7.9375 3.136719-16.324219 3.097656-24.246094-.121094l-63.941406-25.960937zm75.605469 47.746094c0 2.957031-2.410156 5.367187-5.367188 5.367187h-433.25c-2.957031 0-5.367187-2.40625-5.367187-5.367187v-42.378907c0-2.957031 2.40625-5.367187 5.367187-5.367187h168.984375l98.140625 39.84375c5.855469 2.378906 11.878906 3.566406 17.910156 3.566406 5.878907 0 11.757813-1.132812 17.480469-3.394531l101.265625-40.015625h29.46875c2.957032 0 5.367188 2.40625 5.367188 5.367187zm19.019531-169.253907c0 15.417969-12.542969 27.960938-27.960937 27.960938h-426.109376c-15.417968 0-27.960937-12.546875-27.960937-27.960938v-.839843c0-48.902344 39.78125-88.683594 88.683594-88.683594h6.644531v41.726563c0 16.640624 13.542969 30.175781 30.1875 30.175781s30.1875-13.535157 30.1875-30.175781v-41.726563h55.128906v41.726563c0 16.636718 13.542969 30.175781 30.1875 30.175781 15.566406 0 28.777344-12.136719 30.078125-27.628907.347657-4.121093-2.714843-7.746093-6.835937-8.089843-4.128906-.351563-7.75 2.714843-8.09375 6.835937-.65625 7.792969-7.308594 13.898438-15.148438 13.898438-8.386718 0-15.207031-6.816406-15.207031-15.191406v-41.726563h30.410156v8.609375c0 4.140625 3.351563 7.492188 7.488281 7.492188 4.140626 0 7.492188-3.351563 7.492188-7.492188v-8.609375h55.132812v41.726563c0 16.636718 13.539063 30.175781 30.183594 30.175781 16.648438 0 30.1875-13.539063 30.1875-30.175781v-41.726563h6.640625c48.898438 0 88.683594 39.78125 88.683594 88.679687zm0 0"/></svg>