<svg id="Capa_1" enable-background="new 0 0 512 512" height="512" viewBox="0 0 512 512" width="512" xmlns="http://www.w3.org/2000/svg"><path d="m411.705 415.788h-339.522c-27.836 0-53.031-16.815-64.183-42.836h467.888c-11.152 26.02-36.346 42.836-64.183 42.836z" fill="#e0e0e0"/><path d="m439.798 372.951c-11.152 26.021-36.346 42.836-64.183 42.836h36.09c27.836 0 53.031-16.815 64.182-42.836z" fill="#ccc"/><path d="m492.31 146.674c-17.017-23.529-46.603-23.016-72.869-16.066-.815 12.331-2.057 24.101-3.669 35.324 34.579-12.486 46.23-5.473 50.093-.133 17.554 24.273-8.738 90.82-64.449 133.883-11.964 9.247-23.212 12.309-34.386 9.361-1.011-.267-2.015-.588-3.014-.943-6.842 10.225-13.748 19.08-20.37 26.661 4.923 2.53 9.919 4.476 14.983 5.819 4.734 1.255 10.31 2.162 16.541 2.162 13.103 0 29.095-4.012 46.205-17.237 30.001-23.191 55.538-55.145 70.062-87.67 16.445-36.827 16.754-69.201.873-91.161z" fill="#c6c6c6"/><path d="m218.592 372.951h81.13s120.853-65.63 120.853-276.739h-201.986-201.985c0 211.108 120.853 276.739 120.853 276.739h81.13" fill="#e0e0e0"/><path d="m392.995 305.221c-8.887 4.813-17.448 6.069-25.964 3.822-1.011-.267-2.015-.588-3.014-.943-6.842 10.225-13.748 19.08-20.37 26.661 4.923 2.53 9.919 4.476 14.983 5.819 1.775.471 3.669.892 5.671 1.236 9.092-9.615 18.991-21.694 28.694-36.595z" fill="#bababa"/><path d="m415.773 165.933c11.806-4.263 20.936-6.25 27.999-6.81 1.333-10.431 2.348-21.319 3.003-32.676-9.078.181-18.398 1.797-27.333 4.162-.816 12.331-2.057 24.1-3.669 35.324z" fill="#bababa"/><path d="m396.99 96.212c0 211.108-120.853 276.739-120.853 276.739h23.585s120.853-65.63 120.853-276.739z" fill="#ccc"/><path d="m21.379 165.741c22.384 156.298 116.078 207.21 116.078 207.21h81.13.006 81.13s93.693-50.912 116.078-207.21z" fill="#ffaa5c"/><path d="m392.214 165.741c-22.384 156.295-116.073 207.208-116.077 207.21h23.585s93.693-50.912 116.078-207.21z" fill="#ff9838"/><path d="m188.569 318.233h-36.028c-11.073 0-20.05-8.977-20.05-20.05v-53.823l38.064-36.09 38.064 36.09v53.823c0 11.073-8.977 20.05-20.05 20.05z" fill="#ffe55a"/><path d="m170.555 208.27-13.781 13.066 32.236 30.564c.998.946 1.564 2.262 1.564 3.637v51.668c0 4.076-1.224 7.863-3.313 11.027h1.308c11.073 0 20.05-8.977 20.05-20.05v-53.823z" fill="#ffd91d"/><path d="m498.893 142.043c-14.567-20.142-39.001-27.401-71.034-21.257.381-8.188.586-16.481.586-24.89 0-4.161-3.373-7.534-7.534-7.534h-404.771c-4.161 0-7.534 3.373-7.534 7.534 0 49.019 6.484 94.384 19.271 134.834 10.278 32.513 24.629 61.944 42.655 87.476 15.726 22.275 31.428 37.627 43.245 47.443h-106.258c-5.31 0-9.02 5.612-6.924 10.501 12.363 28.847 40.324 47.487 71.234 47.487h250.224c4.161 0 7.534-3.373 7.534-7.534s-3.373-7.534-7.534-7.534h-250.224c-20.903 0-40.147-10.632-51.686-27.854h443.567c-11.538 17.221-30.783 27.854-51.686 27.854h-59.837c-4.161 0-7.534 3.373-7.534 7.534s3.373 7.534 7.534 7.534h59.837c30.91 0 58.871-18.64 71.234-47.487 2.096-4.889-1.615-10.501-6.924-10.501h-153.06c6.514-5.411 14.208-12.511 22.439-21.523 9.385 4.048 19.466 6.321 29.705 6.321 17.6-.001 34.726-6.341 50.903-18.844 23.645-18.277 45.131-42.391 60.502-67.899 2.147-3.564.999-8.194-2.564-10.341-3.564-2.148-8.194-.998-10.341 2.564-14.431 23.95-34.607 46.591-56.811 63.755-13.476 10.416-27.502 15.698-41.688 15.698-6.599 0-13.094-1.197-19.314-3.377 3.946-4.898 7.711-9.934 11.31-15.092 14.138 2.948 27.821-2.612 38.908-11.181 26.609-20.568 49.234-48.63 62.073-76.988 12.929-28.558 14.387-53.174 4-67.537-9.259-12.802-29.09-11.308-47.308-6.241.716-6.123 1.316-12.321 1.802-18.59 28.134-6.346 48.238-1.482 59.795 14.498 13.548 18.735 13.682 46.841.375 79.141-1.481 3.596.105 7.859 3.584 9.602 3.869 1.939 8.701.133 10.347-3.863 15.369-37.306 14.625-70.586-2.098-93.709zm-89.353 15.985h-231.61v-54.598h235.395c-.265 18.819-1.537 37.04-3.785 54.598zm-111.732 207.621h-158.526c-6.342-3.884-31.33-20.563-56.441-56.132-17.129-24.262-30.787-52.298-40.597-83.328-5.318-16.823-9.491-34.559-12.532-53.093h51.074c4.161 0 7.534-3.373 7.534-7.534s-3.373-7.534-7.534-7.534h-53.273c-2.247-17.559-3.521-35.778-3.786-54.599h139.136v54.599h-51.943c-4.161 0-7.534 3.373-7.534 7.534s3.373 7.534 7.534 7.534h51.943v31.842l-35.789 33.933c-1.5 1.422-2.35 3.399-2.35 5.467v53.93c0 15.231 12.392 27.623 27.623 27.623h36.1c15.232 0 27.623-12.392 27.623-27.623v-53.93c0-2.068-.85-4.044-2.35-5.467l-35.789-33.933v-31.842h229.412c-3.002 18.294-7.108 35.81-12.328 52.437-9.719 30.955-23.262 58.949-40.255 83.204-22.018 31.427-45.949 50.357-56.952 56.912zm-127.412-147.092 30.606 29.018v50.691c0 6.923-5.632 12.556-12.556 12.556h-36.1c-6.923 0-12.556-5.633-12.556-12.556v-50.691zm289.791-48.522c6.922 9.572 4.807 29.685-5.518 52.493-11.856 26.189-32.837 52.169-57.561 71.281-7.286 5.631-13.915 8.525-20.368 8.849 13.297-21.709 24.181-45.822 32.434-71.927 5.931-18.762 10.488-38.593 13.689-59.344 22.703-7.519 34.281-5.558 37.324-1.352z"/></svg>