<?xml version="1.0" encoding="iso-8859-1"?>
<!-- Generator: Adobe Illustrator 19.0.0, SVG Export Plug-In . SVG Version: 6.00 Build 0)  -->
<svg version="1.1" id="Layer_1" xmlns="http://www.w3.org/2000/svg" xmlns:xlink="http://www.w3.org/1999/xlink" x="0px" y="0px"
	 viewBox="0 0 512 512" style="enable-background:new 0 0 512 512;" xml:space="preserve">
<g>
	<path style="fill:#963737;" d="M477.882,221.185c0,0-52.223,34.815-121.853,43.519l8.704,147.965
		c95.742-52.223,78.334-130.557,139.261-165.372L477.882,221.185z"/>
	<path style="fill:#963737;" d="M295.102,168.962h-87.038v-43.519h-34.815v43.519H86.211c-9.614,0-17.408,7.793-17.408,17.408
		v17.408H312.51V186.37C312.51,176.757,304.717,168.962,295.102,168.962z"/>
</g>
<rect x="173.249" y="125.444" style="fill:#803030;" width="34.815" height="43.519"/>
<path style="fill:#AA4141;" d="M208.064,134.147h-34.815c-9.614,0-17.408-7.793-17.408-17.408l0,0
	c0-9.614,7.793-17.408,17.408-17.408h34.815c9.614,0,17.408,7.793,17.408,17.408l0,0
	C225.472,126.354,217.679,134.147,208.064,134.147z"/>
<path style="fill:#963737;" d="M286.399,499.707H94.915c-4.807,0-8.704-3.897-8.704-8.704v-26.111h208.891v26.111
	C295.102,495.811,291.205,499.707,286.399,499.707z"/>
<path style="fill:#803030;" d="M155.842,491.003v-26.111h-69.63v26.111c0,4.807,3.897,8.704,8.704,8.704h69.63
	C159.739,499.707,155.842,495.81,155.842,491.003z"/>
<path style="fill:#AA4141;" d="M286.274,473.595H95.041c-51.383,0-91.582-44.278-86.633-95.422l15.355-158.665
	c0.864-8.923,8.362-15.731,17.327-15.731h299.135c8.965,0,16.463,6.809,17.327,15.731l15.355,158.665
	C377.856,429.318,337.655,473.595,286.274,473.595z"/>
<g>
	<path style="fill:#963737;" d="M130.193,378.173l12.799-158.665c0.72-8.922,6.971-15.73,14.443-15.73H41.09
		c-8.965,0-16.463,6.807-17.327,15.73L8.408,378.173c-4.949,51.144,35.25,95.422,86.633,95.422h107.365
		C159.576,473.595,126.067,429.318,130.193,378.173z"/>
	<path style="fill:#963737;" d="M181.953,116.739c0-9.614,7.794-17.408,17.408-17.408h-26.111c-9.613,0-17.408,7.793-17.408,17.408
		c0,9.613,7.794,17.408,17.408,17.408h26.111C189.747,134.147,181.953,126.354,181.953,116.739z"/>
</g>
<path d="M509.61,241.527l-26.111-26.111c-2.94-2.94-7.62-3.2-10.867-0.602c-0.406,0.324-40.095,31.576-103.351,41.006l-3.718-37.178
	c-1.065-10.644-8.459-19.164-18.252-22.004l12.377-136.145c1.311-14.425-3.538-28.832-13.306-39.528
	c-9.768-10.696-23.678-16.83-38.162-16.83H72.786c-14.484,0-28.394,6.134-38.161,16.83S20.008,46.067,21.319,60.492l12.377,136.144
	c-9.793,2.842-17.188,11.361-18.252,22.004L0.47,368.382c-2.671,26.711,6.127,53.447,24.141,73.35
	c14.093,15.572,32.909,25.948,53.287,29.727v19.544c0,9.299,7.565,16.864,16.864,16.864h191.484c9.299,0,16.864-7.565,16.864-16.864
	v-19.544c20.378-3.779,39.194-14.155,53.287-29.727c7.944-8.779,14.094-18.887,18.261-29.734c0.772-0.132,1.54-0.366,2.276-0.733
	c50.4-25.201,67.705-61.855,82.973-94.194c12.235-25.917,22.803-48.3,47.984-62.689c2.207-1.262,3.701-3.48,4.039-6.001
	C512.266,245.859,511.408,243.325,509.61,241.527z M46.675,31.969c6.781-7.425,16.054-11.515,26.11-11.515H308.22
	c10.056,0,19.329,4.09,26.11,11.515c6.781,7.425,10.015,17.03,9.104,27.045l-12.418,136.604h-10.5v-9.248
	c0-14.098-11.469-25.567-25.567-25.567h-78.878v-19.838c10.107-3.414,17.408-12.98,17.408-24.225
	c0-14.098-11.469-25.567-25.567-25.567h-34.815c-14.098,0-25.567,11.469-25.567,25.567c0,11.245,7.3,20.811,17.408,24.225v19.838
	H86.058c-14.098,0-25.567,11.469-25.567,25.567v9.248h-10.5L37.572,59.015C36.662,49,39.894,39.395,46.675,31.969z M76.81,195.618
	v-9.248c0-5.099,4.148-9.248,9.248-9.248h208.891c5.099,0,9.248,4.148,9.248,9.248v9.248H76.81z M207.911,125.987h-34.815
	c-5.099,0-9.248-4.148-9.248-9.248s4.148-9.248,9.248-9.248h34.815c5.099,0,9.248,4.148,9.248,9.248S213.01,125.987,207.911,125.987
	z M181.256,142.307h18.496v18.496h-18.496V142.307z M286.789,473.051v17.952c0,0.3-0.244,0.544-0.544,0.544H94.762
	c-0.299,0-0.544-0.244-0.544-0.544v-17.952h0.978h190.615H286.789z M344.295,430.781c-14.925,16.492-36.242,25.95-58.484,25.95
	H95.196c-22.243,0-43.559-9.459-58.484-25.95c-14.925-16.493-22.215-38.645-20.002-60.776l14.974-149.74
	c0.474-4.747,4.43-8.327,9.202-8.327h299.238c4.771,0,8.727,3.581,9.202,8.327l14.974,149.74
	C366.511,392.138,359.22,414.29,344.295,430.781z M445.147,310.103c-13.624,28.856-27.692,58.61-65.054,80.841
	c1.035-7.419,1.201-14.991,0.444-22.562l-9.63-96.3c54.215-7.897,91.988-30.595,105.98-40.199l14.021,14.022
	C467.556,262.638,456.636,285.768,445.147,310.103z"/>
<g>
</g>
<g>
</g>
<g>
</g>
<g>
</g>
<g>
</g>
<g>
</g>
<g>
</g>
<g>
</g>
<g>
</g>
<g>
</g>
<g>
</g>
<g>
</g>
<g>
</g>
<g>
</g>
<g>
</g>
</svg>
