<?xml version="1.0" encoding="iso-8859-1"?>
<!-- Generator: Adobe Illustrator 19.0.0, SVG Export Plug-In . SVG Version: 6.00 Build 0)  -->
<svg version="1.1" id="Capa_1" xmlns="http://www.w3.org/2000/svg" xmlns:xlink="http://www.w3.org/1999/xlink" x="0px" y="0px"
	 viewBox="0 0 511.999 511.999" style="enable-background:new 0 0 511.999 511.999;" xml:space="preserve">
<path style="fill:#6EF4D4;" d="M392.608,188.7c0,20.05-4.32,39.09-12.09,56.24c-3.52,7.78-7.75,15.17-12.61,22.09
	c-3.93,5.62-8.29,10.93-13.01,15.89c-12.94,13.6-28.65,24.51-46.23,31.86c-7.67,3.21-15.68,5.74-23.97,7.51
	c-9.25,1.99-18.85,3.03-28.7,3.03c-55.4,0-103.1-32.98-124.53-80.38c-7.76-17.15-12.08-36.19-12.08-56.24c0-0.46,0-0.92,0.01-1.38
	c0.04-4.39,0.29-8.73,0.74-13c7.18-68.69,65.26-122.23,135.86-122.23c62.37,0,114.98,41.79,131.34,98.9c1.22,4.25,2.24,8.59,3.03,13
	C391.838,172,392.608,180.26,392.608,188.7z"/>
<path style="fill:#00DDC0;" d="M390.368,163.99h-17.29c-2.85,0-5.17,2.33-5.17,5.19v97.85c-3.93,5.62-8.29,10.93-13.01,15.89
	c-12.94,13.6-28.65,24.51-46.23,31.86c-7.67,3.21-15.68,5.74-23.97,7.51V168.37c0-2.85-2.32-5.17-5.18-5.17h-0.65
	c-2.86,0-5.18,2.32-5.18,5.17v47.52c0,8.32-3.25,16.15-9.13,22.04c-5.89,5.89-13.72,9.13-22.05,9.13
	c-17.19,0-31.17-13.98-31.17-31.17v-64.22c0-2.85-2.33-5.17-5.18-5.17h-6.62c-2.85,0-5.18,2.32-5.18,5.17v4.47
	c0,17.19-13.98,31.18-31.17,31.18h-43.79c0.04-4.39,0.29-8.73,0.74-13c7.18-68.69,65.26-122.23,135.86-122.23
	c62.37,0,114.98,41.79,131.34,98.9C388.558,155.24,389.578,159.58,390.368,163.99z"/>
<polygon style="fill:#CE9E89;" points="377.808,314.5 374.258,331.35 337.768,504.5 174.228,504.5 137.738,331.35 134.188,314.5 "/>
<g>
	<polygon style="fill:#B57959;" points="377.808,314.5 374.258,331.35 137.738,331.35 134.188,314.5 	"/>
	<path style="fill:#B57959;" d="M367.908,314.5v32.08c0,11.12-4.34,21.57-12.2,29.42c-7.86,7.86-18.3,12.18-29.41,12.18
		c-9.42,0-18.3-3.07-25.68-8.9c-10.09-7.87-15.92-19.8-15.92-32.7V314.5L367.908,314.5L367.908,314.5z"/>
</g>
<path style="fill:#00DDC0;" d="M380.518,244.94c-3.52,7.78-7.75,15.17-12.61,22.09c-3.93,5.62-8.29,10.93-13.01,15.89
	c-12.94,13.6-28.65,24.51-46.23,31.86c-7.67,3.21-15.68,5.74-23.97,7.51c-9.25,1.99-18.85,3.03-28.7,3.03
	c-55.4,0-103.1-32.98-124.53-80.38L380.518,244.94L380.518,244.94z"/>
<path style="fill:#FFE4D2;" d="M392.608,265.95v44.39c0,4.43-3.59,8.01-8.01,8.01h-257.2c-4.42,0-8.01-3.58-8.01-8.01v-44.39
	c0-4.42,3.59-8.01,8.01-8.01h257.2C389.018,257.94,392.608,261.53,392.608,265.95z"/>
<rect x="284.697" y="257.939" style="fill:#CE9E89;" width="83.21" height="60.41"/>
<path style="fill:#FF3C63;" d="M387.338,150.99h-14.26c-10.03,0-18.18,8.14-18.18,18.19v177.4c0,7.89-3.2,15.06-8.38,20.22
	c-5.17,5.18-12.31,8.38-20.22,8.38c-6.66,0-12.77-2.27-17.63-6.1c-6.68-5.21-10.97-13.35-10.97-22.5V168.37
	c0-10.03-8.14-18.17-18.18-18.17h-0.65c-10.04,0-18.18,8.14-18.18,18.17v47.52c0,5.02-2.04,9.56-5.33,12.85
	c-3.28,3.29-7.83,5.32-12.85,5.32c-10.04,0-18.17-8.13-18.17-18.17v-64.22c0-10.03-8.14-18.17-18.18-18.17h-6.62
	c-10.04,0-18.18,8.14-18.18,18.17v4.47c0,10.04-8.14,18.18-18.17,18.18h-43.05c7.18-68.69,65.26-122.23,135.86-122.23
	c4.87,0,9.68,0.25,14.41,0.75h0.01c30.28,3.18,57.6,16.24,78.7,35.9C367.008,105.41,380.418,126.83,387.338,150.99z"/>
<path style="fill:#FF0435;" d="M349.118,88.74c-8.37,8-19.72,12.93-32.18,12.93c-25.68,0-46.58-20.9-46.58-46.59
	c0-0.75,0.02-1.5,0.05-2.24h0.01C300.698,56.02,328.018,69.08,349.118,88.74z"/>
<circle style="fill:#C1001A;" cx="316.937" cy="55.079" r="33.584"/>
<path d="M386.178,250.522c9.128-19.221,13.928-40.368,13.928-61.825c0-13.524-1.871-26.906-5.562-39.769
	c-0.009-0.031-0.019-0.061-0.028-0.092c-0.014-0.046-0.028-0.092-0.042-0.138c-7.803-27.079-23.128-50.878-44.491-69.235
	c5.049-6.825,8.041-15.259,8.041-24.38c0-11.509-4.763-21.92-12.413-29.386c3.989-3.967,9.021-8.202,15.01-11.738
	c3.567-2.105,4.752-6.704,2.646-10.271c-2.105-3.567-6.706-4.751-10.271-2.646c-8.334,4.92-15.057,10.875-20.094,16.185
	c-4.91-2.078-10.304-3.228-15.962-3.228c-19.566,0-35.971,13.753-40.082,32.098c-6.881-0.997-13.874-1.509-20.86-1.509
	c-17.098,0-33.834,2.966-49.742,8.816c-3.887,1.43-5.88,5.74-4.45,9.628c1.116,3.034,3.985,4.913,7.04,4.913
	c0.859,0,1.734-0.149,2.588-0.463c14.244-5.238,29.238-7.895,44.564-7.895c6.811,0,13.63,0.535,20.313,1.589
	c2.954,19.773,20.047,34.989,40.629,34.989c8.087,0,15.629-2.358,21.993-6.409c17.27,14.468,30.267,32.834,38.046,53.735h-3.903
	c-14.156,0-25.673,11.522-25.673,25.684v102.157c0,4.142,3.357,7.5,7.5,7.5s7.5-3.358,7.5-7.5v-5.892h22.194
	c0.28,0,0.509,0.228,0.509,0.509v44.393c0,0.281-0.229,0.509-0.509,0.509h-22.194v-9.852c0-4.142-3.357-7.5-7.5-7.5
	s-7.5,3.358-7.5,7.5v45.583c0,5.638-2.195,10.933-6.186,14.916c-3.989,3.989-9.287,6.186-14.916,6.186
	c-4.77,0-9.26-1.554-13.02-4.522c-5.136-4.004-8.082-10.047-8.082-16.58v-178.21c0-14.156-11.522-25.673-25.685-25.673h-0.646
	c-14.162,0-25.685,11.517-25.685,25.673v47.516c0,2.851-1.11,5.531-3.126,7.547c-2.017,2.017-4.697,3.127-7.546,3.127
	c-5.886,0-10.674-4.788-10.674-10.674v-64.217c0-14.156-11.521-25.673-25.684-25.673h-6.618c-14.156,0-25.673,11.517-25.673,25.673
	v4.467c0,5.891-4.788,10.684-10.673,10.684h-34.438c5.751-33.644,24.715-63.814,52.918-83.708c3.385-2.388,4.193-7.067,1.806-10.452
	c-2.387-3.384-7.067-4.192-10.452-1.806c-34.035,24.007-56.028,61.435-60.339,102.673c0,0.003-0.001,0.006-0.001,0.009
	c-0.001,0.013-0.002,0.026-0.004,0.039c-0.523,4.946-0.789,10.032-0.789,15.118c0,21.441,4.797,42.606,13.921,61.826
	c-7.808,0.798-13.92,7.412-13.92,15.428v44.393c0,8.552,6.957,15.509,15.509,15.509h1.513l37.978,180.195
	c0.731,3.47,3.793,5.953,7.339,5.953h163.54c3.546,0,6.607-2.483,7.339-5.953l37.978-180.195h1.513
	c8.552,0,15.509-6.957,15.509-15.509v-44.393C400.106,257.932,393.99,251.316,386.178,250.522z M290.856,55.083
	c0-14.383,11.701-26.084,26.084-26.084c2.036,0,4.015,0.242,5.918,0.685c-0.529,0.796-0.834,1.295-0.901,1.407
	c-2.135,3.542-0.995,8.136,2.542,10.278c1.213,0.735,2.552,1.084,3.874,1.084c2.534,0,5.009-1.285,6.423-3.606
	c0.018-0.03,0.393-0.636,1.101-1.655c4.414,4.674,7.128,10.969,7.128,17.89c0,14.382-11.701,26.083-26.084,26.083
	S290.856,69.465,290.856,55.083z M332.437,493.423l-6.231-6.231l9.558-9.558L332.437,493.423z M276.413,497l-9.808-9.808
	l19.194-19.194l19.194,19.194L295.185,497H276.413z M216.811,497l-9.808-9.808l19.194-19.194l19.194,19.194L235.583,497H216.811z
	 M318.942,381.938l15.852,15.851l-19.195,19.195l-19.194-19.194l17.347-17.347C315.439,381.071,317.171,381.573,318.942,381.938z
	 M285.799,446.784l-19.194-19.194l19.194-19.194l19.194,19.194L285.799,446.784z M315.599,438.198l19.194,19.194l-19.194,19.194
	l-19.194-19.194L315.599,438.198z M207.003,427.591l19.194-19.194l19.194,19.194l-19.194,19.194L207.003,427.591z M215.59,457.391
	l-19.194,19.194l-19.194-19.194l19.194-19.194L215.59,457.391z M155.094,375.682c-0.139-0.139-0.286-0.266-0.434-0.392
	l-2.535-12.026l14.47-14.47l19.194,19.194l-19.194,19.195L155.094,375.682z M196.396,378.595l19.194,19.194l-19.194,19.194
	l-19.194-19.194L196.396,378.595z M226.197,387.183l-19.194-19.194l19.194-19.194l19.194,19.194L226.197,387.183z M255.998,378.596
	l19.194,19.194l-19.194,19.194l-19.194-19.194L255.998,378.596z M255.998,438.197l19.194,19.194l-19.194,19.194l-19.194-19.194
	L255.998,438.197z M285.798,387.183l-19.194-19.194l19.194-19.194l5.164,5.164c1.424,6.906,4.825,13.215,9.865,18.195
	L285.798,387.183z M290.2,331.982l-6.13-6.13h6.13V331.982z M262.911,325.852c0.16,0.196,0.332,0.386,0.515,0.569l11.766,11.766
	l-19.194,19.194l-19.194-19.194l12.336-12.336h13.771V325.852z M226.197,327.582l-1.729-1.729h3.459L226.197,327.582z
	 M203.255,325.852l12.336,12.336l-19.194,19.194l-19.195-19.195l12.336-12.336h13.717V325.852z M166.595,327.581l-1.729-1.729h3.459
	L166.595,327.581z M144.398,326.597l11.591,11.591l-7.556,7.556L144.398,326.597z M166.595,408.396l19.194,19.194l-16.606,16.606
	l-6.682-31.706L166.595,408.396z M185.79,487.192l-6.232,6.232l-3.328-15.791L185.79,487.192z M342.812,444.197l-16.606-16.606
	l19.195-19.195l4.094,4.094L342.812,444.197z M351.818,372.111c2.926-2.919,5.283-6.255,7.027-9.871l1.024,1.024l-2.523,11.973
	L345.4,387.183l-6.688-6.688C343.579,378.716,348.044,375.885,351.818,372.111z M126.889,310.343V265.95
	c0-0.281,0.228-0.509,0.509-0.509h48.604c4.142,0,7.5-3.358,7.5-7.5c0-4.142-3.358-7.5-7.5-7.5h-33.404
	c-10.275-18.843-15.71-40.135-15.71-61.745c0-2.298,0.061-4.594,0.18-6.874h36.12c14.156,0,25.673-11.522,25.673-25.684v-4.467
	c0-5.885,4.788-10.673,10.673-10.673h6.618c5.891,0,10.684,4.788,10.684,10.673v64.217c0,14.157,11.517,25.674,25.674,25.674
	c6.856,0,13.303-2.671,18.153-7.521c4.849-4.849,7.52-11.296,7.52-18.153v-47.516c0-5.885,4.793-10.673,10.685-10.673h0.646
	c5.892,0,10.685,4.788,10.685,10.673v82.069h-80.02c-4.142,0-7.5,3.358-7.5,7.5c0,4.142,3.358,7.5,7.5,7.5h80.02v45.411H127.398
	C127.117,310.852,126.889,310.624,126.889,310.343z M363.562,345.743l-1.159-1.159v-18.732h5.352L363.562,345.743z M362.403,169.176
	c0-5.891,4.788-10.684,10.673-10.684h8.464c2.359,9.84,3.566,19.972,3.566,30.204c0,21.625-5.429,42.896-15.707,61.745h-6.996
	V169.176z"/>
<path d="M168.798,192.834h-0.75c-4.142,0-7.5,3.358-7.5,7.5s3.358,7.5,7.5,7.5h0.75c4.142,0,7.5-3.358,7.5-7.5
	S172.94,192.834,168.798,192.834z"/>
<path d="M185.542,209.5h-0.75c-4.142,0-7.5,3.358-7.5,7.5s3.358,7.5,7.5,7.5h0.75c4.142,0,7.5-3.358,7.5-7.5
	S189.684,209.5,185.542,209.5z"/>
<g>
</g>
<g>
</g>
<g>
</g>
<g>
</g>
<g>
</g>
<g>
</g>
<g>
</g>
<g>
</g>
<g>
</g>
<g>
</g>
<g>
</g>
<g>
</g>
<g>
</g>
<g>
</g>
<g>
</g>
</svg>
