<svg height="512pt" viewBox="-28 0 512 512" width="512pt" xmlns="http://www.w3.org/2000/svg"><path d="m249.9375 49.609375v-31.324219c0-5.746094-4.703125-10.449218-10.449219-10.449218h-23.609375c-5.746094 0-10.449218 4.703124-10.449218 10.449218v31.324219zm0 0" fill="#76ffd9"/><path d="m270.953125 84.636719v-24.582031c0-5.746094-4.703125-10.445313-10.449219-10.445313h-65.640625c-5.746093 0-10.449219 4.699219-10.449219 10.445313v24.582031zm0 0" fill="#aaa"/><path d="m227.683594 49.609375h-32.820313c-5.75 0-10.449219 4.699219-10.449219 10.445313v24.582031h32.820313v-24.582031c0-5.746094 4.703125-10.445313 10.449219-10.445313zm0 0" fill="#ddd"/><path d="m298.152344 119.011719c0 5.746093-4.703125 10.449219-10.449219 10.449219h-120.039063c-5.746093 0-10.449218-4.703126-10.449218-10.449219v-27.015625c0-5.746094 4.703125-10.445313 10.449218-10.445313h120.039063c5.746094 0 10.449219 4.699219 10.449219 10.445313zm0 0" fill="#bbb"/><path d="m283.316406 157.027344v-38.0625h-111.265625v38.0625c-48.621093 21.453125-82.574219 70.15625-82.574219 126.8125 0 76.492187 61.875 138.503906 138.207032 138.503906 76.328125 0 138.207031-62.011719 138.207031-138.503906-.003906-56.65625-33.953125-105.359375-82.574219-126.8125zm0 0" fill="#aaa"/><path d="m316.871094 281.449219c0 49.253906-39.929688 89.183593-89.1875 89.183593-49.257813 0-89.1875-39.929687-89.1875-89.183593 0-49.257813 39.929687-89.1875 89.1875-89.1875 49.257812 0 89.1875 39.929687 89.1875 89.1875zm0 0" fill="#ccc"/><path d="m298.152344 119.011719c0 5.746093-4.703125 10.449219-10.449219 10.449219h-120.039063c-5.746093 0-10.449218-4.703126-10.449218-10.449219v-27.015625c0-5.746094 4.703125-10.445313 10.449218-10.445313h120.039063c5.746094 0 10.449219 4.699219 10.449219 10.445313zm0 0" fill="#76ffd9"/><g fill="#ddd"><path d="m358.398438 160.679688c2.007812 0 4.015624-.765626 5.546874-2.300782l24.738282-24.792968c3.058594-3.0625 3.054687-8.027344-.011719-11.082032-3.0625-3.058594-8.023437-3.050781-11.082031.011719l-24.738282 24.792969c-3.058593 3.066406-3.050781 8.027344.011719 11.085937 1.53125 1.523438 3.53125 2.285157 5.535157 2.285157zm0 0"/><path d="m447.53125 276.003906h-34.988281c-4.328125 0-7.839844 3.507813-7.839844 7.835938 0 4.332031 3.511719 7.839844 7.839844 7.839844h34.988281c4.328125 0 7.835938-3.507813 7.835938-7.839844 0-4.328125-3.507813-7.835938-7.835938-7.835938zm0 0"/><path d="m363.945312 409.300781c-3.054687-3.0625-8.015624-3.070312-11.082031-.011719-3.0625 3.058594-3.070312 8.019532-.011719 11.082032l24.742188 24.796875c1.53125 1.535156 3.539062 2.300781 5.546875 2.300781 2.003906 0 4.007813-.761719 5.535156-2.289062 3.066407-3.058594 3.070313-8.019532.011719-11.082032zm0 0"/><path d="m227.683594 461.261719c-4.328125 0-7.835938 3.507812-7.835938 7.835937v35.066406c0 4.328126 3.507813 7.835938 7.835938 7.835938s7.835937-3.507812 7.835937-7.835938v-35.066406c0-4.328125-3.507812-7.835937-7.835937-7.835937zm0 0"/><path d="m91.421875 409.300781-24.742187 24.792969c-3.058594 3.066406-3.050782 8.027344.011718 11.082031 1.53125 1.527344 3.53125 2.292969 5.535156 2.292969 2.007813 0 4.015626-.769531 5.546876-2.300781l24.742187-24.796875c3.058594-3.0625 3.050781-8.023438-.011719-11.082032-3.0625-3.058593-8.023437-3.050781-11.082031.011719zm0 0"/><path d="m42.828125 276.007812-34.992187-.003906c-4.328126 0-7.835938 3.507813-7.835938 7.835938s3.507812 7.839844 7.835938 7.839844h34.992187c4.328125 0 7.835937-3.507813 7.835937-7.835938s-3.507812-7.835938-7.835937-7.835938zm0 0"/><path d="m91.421875 158.382812c1.527344 1.535157 3.539063 2.300782 5.546875 2.300782 2 0 4.003906-.761719 5.535156-2.289063 3.0625-3.058593 3.070313-8.019531.011719-11.082031l-24.738281-24.796875c-3.058594-3.066406-8.019532-3.070313-11.082032-.015625-3.066406 3.058594-3.070312 8.019531-.015624 11.082031zm0 0"/></g><path d="m196.695312 256.175781v-118.878906c0-4.328125 3.507813-7.835937 7.835938-7.835937s7.835938 3.507812 7.835938 7.835937v118.875c0 4.328125-3.507813 7.839844-7.835938 7.839844s-7.835938-3.507813-7.835938-7.835938zm0 0" fill="#ffa816"/><path d="m243 154.644531v-17.347656c0-4.328125 3.507812-7.835937 7.835938-7.835937 4.328124 0 7.835937 3.507812 7.835937 7.835937v17.347656c0 4.328125-3.507813 7.835938-7.835937 7.835938-4.328126 0-7.835938-3.507813-7.835938-7.835938zm0 0" fill="#ffa816"/><path d="m243 256.175781v-73.492187c0-4.328125 3.507812-7.835938 7.835938-7.835938 4.328124 0 7.835937 3.507813 7.835937 7.835938v73.492187c0 4.328125-3.507813 7.835938-7.835937 7.835938-4.328126 0-7.835938-3.507813-7.835938-7.835938zm0 0" fill="#ffa816"/><path d="m223.863281 260.132812c0-10.609374-8.65625-19.210937-19.332031-19.210937s-19.332031 8.601563-19.332031 19.210937c0 10.609376 8.65625 19.210938 19.332031 19.210938s19.332031-8.601562 19.332031-19.210938zm0 0" fill="#ffc843"/><path d="m270.164062 260.132812c0-10.609374-8.652343-19.210937-19.328124-19.210937-10.675782 0-19.332032 8.601563-19.332032 19.210937 0 10.609376 8.65625 19.210938 19.332032 19.210938 10.675781 0 19.328124-8.601562 19.328124-19.210938zm0 0" fill="#ffc843"/><path d="m368.980469 246.703125c-1.09375-4.1875-5.375-6.699219-9.566407-5.601563-4.1875 1.09375-6.695312 5.375-5.601562 9.5625 2.8125 10.769532 4.238281 21.933594 4.238281 33.175782 0 72.050781-58.484375 130.667968-130.367187 130.667968-71.886719 0-130.371094-58.617187-130.371094-130.667968 0-51.800782 30.578125-98.761719 77.902344-119.644532 2.839844-1.25 4.671875-4.0625 4.671875-7.167968v-19.730469h95.59375v19.730469c0 3.105468 1.832031 5.917968 4.671875 7.171875 28.003906 12.355469 50.902344 34.316406 64.472656 61.828125 1.914062 3.878906 6.613281 5.472656 10.496094 3.5625 3.882812-1.917969 5.476562-6.613282 3.5625-10.496094-14.433594-29.261719-38.292969-52.914062-67.53125-67.074219v-15.058593c8.4375-1.617188 14.835937-9.046876 14.835937-17.949219v-27.015625c0-10.082032-8.203125-18.285156-18.289062-18.285156h-8.910157v-13.65625c0-10.082032-8.203124-18.285157-18.285156-18.285157h-2.730468v-23.484375c0-10.082031-8.203126-18.285156-18.285157-18.285156h-23.609375c-10.082031 0-18.285156 8.203125-18.285156 18.285156v23.484375h-2.734375c-10.082031 0-18.285156 8.203125-18.285156 18.285157v13.65625h-8.910157c-10.085937 0-18.285156 8.203124-18.285156 18.285156v27.015625c0 8.902343 6.398438 16.332031 14.835938 17.949219v15.058593c-50.332032 24.351563-82.574219 75.539063-82.574219 131.820313 0 80.695312 65.511719 146.34375 146.042969 146.34375 80.527344 0 146.039062-65.648438 146.039062-146.34375.003906-12.578125-1.59375-25.074219-4.742187-37.136719zm-155.714844-228.417969c0-1.414062 1.199219-2.613281 2.613281-2.613281h23.609375c1.414063 0 2.613281 1.199219 2.613281 2.613281v23.484375h-28.835937zm-48.214844 95.671875h62.632813c4.328125 0 7.835937-3.507812 7.835937-7.835937 0-4.332032-3.507812-7.839844-7.835937-7.839844h-62.632813v-6.285156c0-1.414063 1.199219-2.609375 2.613281-2.609375h53.75c4.328126 0 7.835938-3.507813 7.835938-7.835938 0-4.332031-3.507812-7.839843-7.835938-7.839843h-29.164062v-13.65625c0-1.414063 1.195312-2.609376 2.613281-2.609376h65.640625c1.414063 0 2.613282 1.195313 2.613282 2.609376v13.65625h-10.355469c-4.328125 0-7.835938 3.507812-7.835938 7.839843 0 4.328125 3.507813 7.835938 7.835938 7.835938h34.941406c1.414063 0 2.609375 1.195312 2.609375 2.609375v27.015625c0 1.417969-1.195312 2.613281-2.609375 2.613281h-120.039063c-1.414062 0-2.613281-1.195312-2.613281-2.613281zm0 0" fill="#434c54"/></svg>