<?xml version="1.0" encoding="iso-8859-1"?>
<!-- Generator: Adobe Illustrator 19.0.0, SVG Export Plug-In . SVG Version: 6.00 Build 0)  -->
<svg version="1.1" id="Capa_1" xmlns="http://www.w3.org/2000/svg" xmlns:xlink="http://www.w3.org/1999/xlink" x="0px" y="0px"
	 viewBox="0 0 511.998 511.998" style="enable-background:new 0 0 511.998 511.998;" xml:space="preserve">
<polygon style="fill:#4DCEFD;" points="318.122,235.51 318.122,338.835 276.706,338.835 276.706,242.813 "/>
<polygon style="fill:#42B3DC;" points="287.062,338.835 318.122,338.835 318.122,235.51 287.062,240.987 "/>
<path style="fill:#67D5FF;" d="M353.165,125.05c16.894-2.979,28.175-19.089,25.196-35.983s-19.089-28.175-35.983-25.196L256,79.102
	l-97.165,17.133c-16.894,2.979-28.175,19.089-25.196,35.983s19.089,28.175,35.984,25.196L353.165,125.05z"/>
<g>
	<path style="fill:#4DCEFD;" d="M353.165,188.117c16.894-2.979,28.175-19.089,25.196-35.983s-19.089-28.175-35.983-25.196
		l-183.542,32.364c-16.894,2.979-28.175,19.089-25.196,35.983s19.089,28.175,35.984,25.196L353.165,188.117z"/>
	<path style="fill:#4DCEFD;" d="M312.376,69.162c16.894-2.979,28.175-19.089,25.196-35.983
		c-2.979-16.894-19.089-28.175-35.983-25.196l-101.966,17.98c-16.894,2.979-28.175,19.089-25.196,35.983
		s19.089,28.175,35.983,25.196l45.59-8.039L312.376,69.162z"/>
</g>
<path style="fill:#67D5FF;" d="M235.29,271.818v67.017h-41.416l-0.001-59.563l-24.252,4.276
	c-16.894,2.979-33.005-8.302-35.984-25.196c-2.979-16.894,8.302-33.004,25.196-35.983l183.542-32.364
	c16.894-2.979,33.005,8.302,35.983,25.196s-8.302,33.004-25.196,35.983l-117.847,20.78L235.29,271.818z"/>
<g>
	<polygon style="fill:#4DCEFD;" points="203.251,277.619 203.251,338.835 235.29,338.835 235.29,271.969 	"/>
	<path style="fill:#4DCEFD;" d="M378.36,215.202c-2.979-16.894-19.089-28.175-35.983-25.196l-31.062,5.491
		c16.894-2.979,33.004,8.302,35.983,25.196c2.947,16.711-8.062,32.646-24.651,35.873l30.518-5.381
		C370.058,248.207,381.339,232.096,378.36,215.202z"/>
</g>
<path style="fill:#42B3DC;" d="M378.36,152.135c-2.979-16.894-19.089-28.175-35.983-25.196l-31.062,5.491
	c16.894-2.979,33.004,8.302,35.983,25.196c2.947,16.711-8.062,32.646-24.651,35.873l30.518-5.381
	C370.058,185.138,381.339,169.028,378.36,152.135z"/>
<path style="fill:#4DCEFD;" d="M378.36,89.067c-2.979-16.894-19.089-28.175-35.983-25.196l-31.062,5.491
	c16.894-2.979,33.004,8.302,35.983,25.196c2.947,16.711-8.062,32.646-24.651,35.873l30.518-5.381
	C370.058,122.071,381.339,105.961,378.36,89.067z"/>
<path style="fill:#42B3DC;" d="M337.572,33.179c-2.979-16.894-19.089-28.175-35.983-25.196l-31.062,5.491
	c16.894-2.979,33.004,8.302,35.983,25.196c2.947,16.711-8.062,32.646-24.651,35.873l30.518-5.381
	C329.27,66.183,340.551,50.073,337.572,33.179z"/>
<path style="fill:#25739E;" d="M224.939,483.79c0,11.437,9.271,20.708,20.708,20.708h20.707c11.437,0,20.708-9.271,20.708-20.708
	v-16.825h-62.122V483.79z"/>
<path style="fill:#216486;" d="M256,466.965v16.825c0,9.645-6.604,17.727-15.53,20.029c1.658,0.427,3.386,0.679,5.177,0.679h20.707
	c11.437,0,20.708-9.271,20.708-20.708v-16.825H256z"/>
<path style="fill:#DCF3F4;" d="M338.831,338.834v93.186c0,22.874-18.543,41.417-41.417,41.417h-82.829
	c-22.874,0-41.417-18.543-41.417-41.417v-93.186H338.831z"/>
<g>
	<path style="fill:#B0CDCF;" d="M307.769,338.834v93.186c0,22.874-18.543,41.417-41.417,41.417h31.061
		c22.874,0,41.417-18.543,41.417-41.417v-93.186H307.769z"/>
	<rect x="173.168" y="338.836" style="fill:#B0CDCF;" width="165.658" height="21.357"/>
</g>
<path d="M379.358,179.645c5.908-8.438,8.177-18.67,6.388-28.814c-1.783-10.107-7.382-18.918-15.768-24.825
	c3.603-2.54,6.777-5.711,9.38-9.429c5.908-8.438,8.177-18.67,6.388-28.814s-7.42-18.983-15.858-24.891
	c-8.423-5.898-18.635-8.169-28.76-6.396c3.964-7.523,5.33-16.091,3.829-24.602c-1.789-10.144-7.42-18.983-15.858-24.892
	c-8.437-5.908-18.67-8.179-28.814-6.387L198.32,18.577c-10.144,1.788-18.984,7.42-24.892,15.857
	c-5.908,8.438-8.177,18.67-6.388,28.814c1.54,8.73,5.922,16.259,12.025,21.804l-21.535,3.797
	c-20.94,3.692-34.972,23.732-31.279,44.671c1.842,10.443,7.751,19.165,15.809,24.831c-11.839,8.348-18.486,23.053-15.809,38.238
	c1.84,10.433,7.74,19.148,15.786,24.814c-3.61,2.542-6.79,5.717-9.398,9.441c-5.908,8.438-8.177,18.67-6.388,28.814
	c3.692,20.939,23.732,34.967,44.671,31.278l15.45-2.724l0.001,43.127h-13.206H152.46c-4.142,0-7.5,3.357-7.5,7.5
	c0,4.142,3.358,7.5,7.5,7.5h13.209v23.504c0,0.02-0.003,0.039-0.003,0.059s0.003,0.039,0.003,0.059v30.945
	c0,0.02-0.003,0.039-0.003,0.059s0.003,0.039,0.003,0.059v30.946c0,0.02-0.003,0.039-0.003,0.059c0,0.042,0.006,0.083,0.006,0.124
	c0.07,26.913,21.984,48.787,48.912,48.787h2.854v2.854c0,15.554,12.654,28.208,28.208,28.208h20.707
	c15.554,0,28.208-12.654,28.208-28.208v-2.854h2.854c26.969,0,48.91-21.939,48.915-48.906c0-0.002,0-0.003,0-0.005v-0.002
	c0-0.001,0-0.002,0-0.003v-85.685h13.209c4.142,0,7.5-3.358,7.5-7.5c0-4.143-3.358-7.5-7.5-7.5H338.83h-13.208v-67.68l28.845-5.086
	c10.144-1.788,18.984-7.42,24.892-15.857c5.908-8.438,8.177-18.67,6.388-28.814c-1.84-10.433-7.739-19.149-15.785-24.814
	C373.571,186.544,376.75,183.369,379.358,179.645z M181.814,60.643c-1.093-6.197,0.293-12.45,3.903-17.605s9.011-8.597,15.209-9.689
	L302.892,15.37c1.382-0.243,2.767-0.364,4.142-0.364c4.79,0,9.458,1.463,13.463,4.268c5.155,3.609,8.596,9.011,9.689,15.209
	c1.093,6.197-0.293,12.45-3.903,17.606c-3.609,5.154-9.01,8.595-15.206,9.689l-101.984,17.98
	C196.301,81.991,184.068,73.432,181.814,60.643z M160.137,103.62l51.559-9.091c0.005-0.001,0.011-0.001,0.016-0.002l101.966-17.979
	h0.001l30.001-5.29c1.382-0.243,2.767-0.364,4.142-0.364c4.79,0,9.458,1.463,13.464,4.268c5.155,3.609,8.596,9.011,9.689,15.209
	c1.093,6.197-0.293,12.45-3.903,17.605c-3.61,5.155-9.011,8.597-15.209,9.689l-10.28,1.813c-0.169,0.028-0.338,0.047-0.507,0.077
	l-173.275,30.553c-12.601,1.938-24.55-6.57-26.774-19.191C138.769,118.121,147.343,105.877,160.137,103.62z M279.56,483.793
	c0,7.283-5.925,13.208-13.208,13.208h-20.706c-7.283,0-13.208-5.925-13.208-13.208v-2.854h47.121V483.793z M331.33,362.4h-23.564
	c-4.142,0-7.5,3.358-7.5,7.5c0,4.143,3.358,7.5,7.5,7.5h23.564v16.064h-23.564c-4.142,0-7.5,3.357-7.5,7.5
	c0,4.143,3.358,7.5,7.5,7.5h23.564v16.064h-23.564c-4.142,0-7.5,3.357-7.5,7.5s3.358,7.5,7.5,7.5h22.717
	c-3.426,15.101-16.947,26.412-33.069,26.412H287.06h-62.122h-10.354c-16.122,0-29.644-11.311-33.069-26.412h92.76
	c4.142,0,7.5-3.357,7.5-7.5s-3.358-7.5-7.5-7.5h-93.607v-16.064h93.607c4.142,0,7.5-3.357,7.5-7.5c0-4.143-3.358-7.5-7.5-7.5
	h-93.607V377.4h93.607c4.142,0,7.5-3.357,7.5-7.5c0-4.142-3.358-7.5-7.5-7.5h-93.607v-16.063H331.33L331.33,362.4L331.33,362.4z
	 M242.79,331.338v-53.074l26.416-4.658v57.732H242.79z M310.622,331.337h-26.416V270.96l26.417-4.658L310.622,331.337
	L310.622,331.337z M367.071,234.11c-3.61,5.155-9.011,8.597-15.209,9.689l-116.381,20.521c-0.29-0.009-0.586,0.002-0.882,0.03
	c-3.858,0.356-6.809,3.594-6.809,7.468v59.518h-26.417l-0.001-52.064c0-2.217-0.981-4.32-2.679-5.745
	c-1.698-1.426-3.94-2.03-6.123-1.641l-24.252,4.276c-12.793,2.258-25.04-6.317-27.295-19.112c-1.093-6.197,0.293-12.45,3.903-17.605
	c3.61-5.155,9.011-8.597,15.209-9.689l10.228-1.803c0.187-0.03,0.373-0.053,0.56-0.086l173.228-30.546
	c12.624-1.962,24.594,6.547,26.822,19.183C372.067,222.702,370.68,228.955,367.071,234.11z M367.071,171.042
	c-3.61,5.155-9.011,8.597-15.209,9.689l-10.312,1.818c-0.159,0.026-0.317,0.043-0.476,0.072l-173.234,30.546
	c-12.616,1.958-24.589-6.551-26.816-19.185c-2.256-12.794,6.317-25.038,19.112-27.295l10.191-1.797
	c0.199-0.032,0.397-0.057,0.596-0.092l173.034-30.511c1.289-0.211,2.58-0.327,3.863-0.327c4.79,0,9.458,1.463,13.464,4.268
	c5.155,3.609,8.596,9.011,9.689,15.209C372.067,159.635,370.68,165.886,367.071,171.042z"/>
<g>
</g>
<g>
</g>
<g>
</g>
<g>
</g>
<g>
</g>
<g>
</g>
<g>
</g>
<g>
</g>
<g>
</g>
<g>
</g>
<g>
</g>
<g>
</g>
<g>
</g>
<g>
</g>
<g>
</g>
</svg>
