<svg id="Capa_1" enable-background="new 0 0 512 512" height="512" viewBox="0 0 512 512" width="512" xmlns="http://www.w3.org/2000/svg"><path d="m223.128 454.073v.724l10.751 39.064c1.754 6.39 6.326 10.639 11.434 10.639h21.609c5.156 0 9.753-4.325 11.474-10.79l10.475-39.269v-.368z" fill="#8e8391"/><path d="m269.11 504.23c-.71.18-1.45.27-2.19.27h-21.61c-5.1 0-9.68-4.25-11.43-10.64l-10.75-39.06v-.73h26v.73l10.75 39.06c1.49 5.45 5.05 9.35 9.23 10.37z" fill="#766d78"/><path d="m256.414 7.5c-10.416 0-19.693 6.588-23.125 16.422l-55.526 145.924c-18.324 48.155-13.237 102.09 13.766 145.971l28.072 45.617c3.597 5.845 9.969 9.406 16.832 9.406h38.914c6.863 0 13.235-3.561 16.832-9.406l28.294-45.978c26.878-43.676 32.049-97.326 14.008-145.331l-54.911-146.114c-3.406-9.88-12.706-16.511-23.156-16.511z" fill="#ddee44"/><path d="m271.43 370.84h-35c-6.86 0-13.23-3.56-16.83-9.41l-28.07-45.61c-27.01-43.88-32.09-97.82-13.77-145.97l55.53-145.93c3.43-9.83 12.71-16.42 23.12-16.42 6.74 0 12.99 2.75 17.5 7.36-2.47 2.52-4.41 5.58-5.62 9.06l-55.53 145.93c-18.32 48.15-13.24 102.09 13.77 145.97l28.07 45.61c3.6 5.85 9.97 9.41 16.83 9.41z" fill="#d9e9ff"/><path d="m291.309 461.619h-70.619c-5.333 0-9.656-4.323-9.656-9.656v-86.699c0-5.333 4.323-9.656 9.656-9.656h70.619c5.333 0 9.656 4.323 9.656 9.656v86.699c.001 5.333-4.323 9.656-9.656 9.656z" fill="#62a6fd"/><path d="m255.69 461.62h-35c-5.33 0-9.66-4.32-9.66-9.66v-86.7c0-5.33 4.33-9.65 9.66-9.65h35c-5.33 0-9.66 4.32-9.66 9.65v86.7c0 5.34 4.33 9.66 9.66 9.66z" fill="#4394fb"/><path d="m197.605 333.115h116.789c4.424 0 8.01 3.586 8.01 8.01v34.463c0 4.424-3.586 8.01-8.01 8.01h-116.789c-4.424 0-8.01-3.586-8.01-8.01v-34.463c0-4.424 3.586-8.01 8.01-8.01z" fill="#a0cafe"/><path d="m232.61 383.6h-35c-4.43 0-8.02-3.59-8.02-8.01v-34.46c0-4.43 3.59-8.02 8.02-8.02h35c-4.43 0-8.02 3.59-8.02 8.02v34.46c0 4.42 3.59 8.01 8.02 8.01z" fill="#81b8fd"/><path d="m321.855 327.508 5.009-8.141c27.969-45.451 33.596-101.492 14.644-151.928l-36.94-98.294c-1.457-3.878-5.784-5.841-9.66-4.382-3.877 1.457-5.84 5.782-4.382 9.66l36.94 98.294c17.289 46.01 12.207 97.211-13.378 138.788l-8.668 14.087h-41.921v-59.176h3.228c10.191-.012 18.586-7.668 19.534-17.818l5.411-57.94c.385-4.125-2.646-7.781-6.771-8.166-4.119-.387-7.781 2.646-8.166 6.771l-5.411 57.94c-.225 2.401-2.212 4.211-4.623 4.211h-21.408c-2.411 0-4.398-1.81-4.623-4.21l-5.411-57.94c-.385-4.125-4.042-7.158-8.166-6.771-4.125.385-7.156 4.041-6.771 8.166l5.411 57.941c.949 10.157 9.357 17.817 19.559 17.817h3.203v59.176h-42.141l-8.448-13.728c-25.687-41.73-30.72-93.205-13.149-139.388.067-.175 55.546-145.967 55.608-146.144 5.107-14.635 26.182-15.783 32.182.257l7.422 19.748c1.457 3.878 5.783 5.839 9.66 4.382s5.84-5.782 4.382-9.66l-7.388-19.658c-9.921-28.442-50.339-28.59-60.385-.118l-55.503 145.858c-7.523 19.774-11.338 40.524-11.338 61.674 0 32.125 8.898 63.563 25.733 90.911l4.848 7.879c-4.707 2.667-7.896 7.714-7.896 13.499v34.467c0 8.554 6.959 15.513 15.512 15.513h5.925v20.204c0 4.143 3.358 7.501 7.501 7.501s7.501-3.358 7.501-7.501v-20.204h23.295c4.143 0 7.501-3.358 7.501-7.501s-3.358-7.501-7.501-7.501h-44.222c-.281 0-.51-.229-.51-.511 0-36.385-.285-34.978.51-34.978h116.806c.281 0 .51.229.51.511v34.467c0 .282-.229.511-.51.511h-42.577c-4.143 0-7.501 3.358-7.501 7.501s3.358 7.501 7.501 7.501h21.651v60.868c0 1.191-.969 2.16-2.16 2.16h-70.629c-1.191 0-2.16-.969-2.16-2.16v-10.661c0-4.143-3.358-7.501-7.501-7.501s-7.501 3.358-7.501 7.501v10.661c0 8.985 6.945 16.367 15.747 17.09l7.372 26.796c2.647 9.667 10.149 16.161 18.666 16.161h21.613c8.586 0 16.112-6.573 18.729-16.359l7.095-26.599c8.794-.731 15.731-8.11 15.731-17.09v-60.868h5.925c8.553 0 15.512-6.959 15.512-15.513v-34.467c-.001-5.852-3.261-10.955-8.058-13.596zm-54.935 169.49h-21.613c-1.374 0-3.319-1.916-4.199-5.13l-6.26-22.753h42.35l-6.043 22.655c-.875 3.273-2.841 5.228-4.235 5.228z"/></svg>